<svg width="327" height="87" viewBox="0 0 327 87" fill="none" xmlns="http://www.w3.org/2000/svg">
<rect width="327" height="87" rx="12" fill="#F1F1F1"/>
<rect x="1" y="1" width="325" height="84" rx="12" fill="white"/>
<path d="M1 12C1 5.37258 6.37258 0 13 0H116V85H13C6.37258 85 1 79.6274 1 73V12Z" fill="#075186"/>
<path d="M45.221 42.976C45.221 40.4107 45.776 38.129 46.886 36.131C47.996 34.1083 49.5377 32.542 51.511 31.432C53.509 30.2973 55.766 29.73 58.282 29.73C61.3653 29.73 64.0047 30.544 66.2 32.172C68.3953 33.8 69.863 36.02 70.603 38.832H63.647C63.129 37.7467 62.389 36.9203 61.427 36.353C60.4897 35.7857 59.4167 35.502 58.208 35.502C56.2593 35.502 54.6807 36.1803 53.472 37.537C52.2633 38.8937 51.659 40.7067 51.659 42.976C51.659 45.2453 52.2633 47.0583 53.472 48.415C54.6807 49.7717 56.2593 50.45 58.208 50.45C59.4167 50.45 60.4897 50.1663 61.427 49.599C62.389 49.0317 63.129 48.2053 63.647 47.12H70.603C69.863 49.932 68.3953 52.152 66.2 53.78C64.0047 55.3833 61.3653 56.185 58.282 56.185C55.766 56.185 53.509 55.63 51.511 54.52C49.5377 53.3853 47.996 51.819 46.886 49.821C45.776 47.823 45.221 45.5413 45.221 42.976Z" fill="white"/>
<rect x="85" y="6" width="25" height="12" rx="2" fill="#078669"/>
<path d="M90.4887 10.16V9.662H91.6167V14H91.0647V10.16H90.4887ZM92.5546 11.786C92.5546 11.098 92.6666 10.562 92.8906 10.178C93.1146 9.79 93.5066 9.596 94.0666 9.596C94.6226 9.596 95.0126 9.79 95.2366 10.178C95.4606 10.562 95.5726 11.098 95.5726 11.786C95.5726 12.486 95.4606 13.03 95.2366 13.418C95.0126 13.806 94.6226 14 94.0666 14C93.5066 14 93.1146 13.806 92.8906 13.418C92.6666 13.03 92.5546 12.486 92.5546 11.786ZM95.0326 11.786C95.0326 11.438 95.0086 11.144 94.9606 10.904C94.9166 10.66 94.8226 10.464 94.6786 10.316C94.5386 10.168 94.3346 10.094 94.0666 10.094C93.7946 10.094 93.5866 10.168 93.4426 10.316C93.3026 10.464 93.2086 10.66 93.1606 10.904C93.1166 11.144 93.0946 11.438 93.0946 11.786C93.0946 12.146 93.1166 12.448 93.1606 12.692C93.2086 12.936 93.3026 13.132 93.4426 13.28C93.5866 13.428 93.7946 13.502 94.0666 13.502C94.3346 13.502 94.5386 13.428 94.6786 13.28C94.8226 13.132 94.9166 12.936 94.9606 12.692C95.0086 12.448 95.0326 12.146 95.0326 11.786ZM97.8078 12.344C97.8078 12.008 97.8758 11.714 98.0118 11.462C98.1478 11.206 98.3338 11.008 98.5698 10.868C98.8098 10.728 99.0778 10.658 99.3738 10.658C99.6578 10.658 99.9058 10.722 100.118 10.85C100.334 10.974 100.492 11.128 100.592 11.312V10.712H101.144V15.56H100.592V13.394C100.488 13.578 100.328 13.734 100.112 13.862C99.8958 13.99 99.6438 14.054 99.3558 14.054C99.0678 14.054 98.8058 13.982 98.5698 13.838C98.3338 13.694 98.1478 13.492 98.0118 13.232C97.8758 12.972 97.8078 12.676 97.8078 12.344ZM100.592 12.35C100.592 12.102 100.542 11.886 100.442 11.702C100.342 11.518 100.206 11.378 100.034 11.282C99.8658 11.182 99.6798 11.132 99.4758 11.132C99.2718 11.132 99.0858 11.18 98.9178 11.276C98.7498 11.372 98.6158 11.512 98.5158 11.696C98.4158 11.88 98.3658 12.096 98.3658 12.344C98.3658 12.596 98.4158 12.816 98.5158 13.004C98.6158 13.188 98.7498 13.33 98.9178 13.43C99.0858 13.526 99.2718 13.574 99.4758 13.574C99.6798 13.574 99.8658 13.526 100.034 13.43C100.206 13.33 100.342 13.188 100.442 13.004C100.542 12.816 100.592 12.598 100.592 12.35ZM103.23 14.054C102.978 14.054 102.752 14.012 102.552 13.928C102.352 13.84 102.194 13.72 102.078 13.568C101.962 13.412 101.898 13.234 101.886 13.034H102.45C102.466 13.198 102.542 13.332 102.678 13.436C102.818 13.54 103 13.592 103.224 13.592C103.432 13.592 103.596 13.546 103.716 13.454C103.836 13.362 103.896 13.246 103.896 13.106C103.896 12.962 103.832 12.856 103.704 12.788C103.576 12.716 103.378 12.646 103.11 12.578C102.866 12.514 102.666 12.45 102.51 12.386C102.358 12.318 102.226 12.22 102.114 12.092C102.006 11.96 101.952 11.788 101.952 11.576C101.952 11.408 102.002 11.254 102.102 11.114C102.202 10.974 102.344 10.864 102.528 10.784C102.712 10.7 102.922 10.658 103.158 10.658C103.522 10.658 103.816 10.75 104.04 10.934C104.264 11.118 104.384 11.37 104.4 11.69H103.854C103.842 11.518 103.772 11.38 103.644 11.276C103.52 11.172 103.352 11.12 103.14 11.12C102.944 11.12 102.788 11.162 102.672 11.246C102.556 11.33 102.498 11.44 102.498 11.576C102.498 11.684 102.532 11.774 102.6 11.846C102.672 11.914 102.76 11.97 102.864 12.014C102.972 12.054 103.12 12.1 103.308 12.152C103.544 12.216 103.736 12.28 103.884 12.344C104.032 12.404 104.158 12.496 104.262 12.62C104.37 12.744 104.426 12.906 104.43 13.106C104.43 13.286 104.38 13.448 104.28 13.592C104.18 13.736 104.038 13.85 103.854 13.934C103.674 14.014 103.466 14.054 103.23 14.054Z" fill="white"/>
<path d="M140.865 61.381C140.865 62.1568 140.236 62.7858 139.46 62.7858V63.7858C140.788 63.7858 141.865 62.7091 141.865 61.381H140.865ZM139.46 62.7858C138.684 62.7858 138.055 62.1568 138.055 61.381H137.055C137.055 62.7091 138.132 63.7858 139.46 63.7858V62.7858ZM138.055 61.381C138.055 60.6052 138.684 59.9763 139.46 59.9763V58.9763C138.132 58.9763 137.055 60.0529 137.055 61.381H138.055ZM139.46 59.9763C140.236 59.9763 140.865 60.6052 140.865 61.381H141.865C141.865 60.0529 140.788 58.9763 139.46 58.9763V59.9763ZM137.555 65.6905H141.365V64.6905H137.555V65.6905ZM141.365 68.5H137.555V69.5H141.365V68.5ZM137.555 68.5C136.78 68.5 136.151 67.8711 136.151 67.0953H135.151C135.151 68.4234 136.227 69.5 137.555 69.5V68.5ZM142.77 67.0953C142.77 67.8711 142.141 68.5 141.365 68.5V69.5C142.693 69.5 143.77 68.4234 143.77 67.0953H142.77ZM141.365 65.6905C142.141 65.6905 142.77 66.3194 142.77 67.0953H143.77C143.77 65.7672 142.693 64.6905 141.365 64.6905V65.6905ZM137.555 64.6905C136.227 64.6905 135.151 65.7672 135.151 67.0953H136.151C136.151 66.3194 136.78 65.6905 137.555 65.6905V64.6905Z" fill="#6A737C"/>
<path d="M136.763 63.0563C136.663 62.8954 136.475 62.8095 136.286 62.8095C135.497 62.8095 134.857 62.1699 134.857 61.3809C134.857 60.592 135.497 59.9524 136.286 59.9524C136.475 59.9524 136.663 59.8665 136.763 59.7056C136.768 59.6985 136.772 59.6914 136.777 59.6843C136.943 59.4211 136.859 59.0485 136.549 59.0144C136.463 59.0049 136.375 59 136.286 59C134.971 59 133.905 60.066 133.905 61.3809C133.905 62.6959 134.971 63.7619 136.286 63.7619C136.375 63.7619 136.463 63.757 136.549 63.7475C136.859 63.7134 136.943 63.3407 136.777 63.0775C136.772 63.0705 136.768 63.0634 136.763 63.0563Z" fill="#6A737C"/>
<path d="M134.831 68.09C134.759 67.9698 134.631 67.8888 134.491 67.8888H134.381C133.592 67.8888 132.952 67.2492 132.952 66.4603C132.952 65.6713 133.592 65.0317 134.381 65.0317H134.491C134.631 65.0317 134.759 64.9508 134.831 64.8305C135.007 64.537 134.816 64.0793 134.473 64.0793H134.381C133.066 64.0793 132 65.1453 132 66.4603C132 67.7752 133.066 68.8412 134.381 68.8412H134.473C134.816 68.8412 135.007 68.3835 134.831 68.09Z" fill="#6A737C"/>
<path d="M142.144 63.0775C141.977 63.3407 142.062 63.7134 142.371 63.7475C142.458 63.757 142.546 63.7619 142.635 63.7619C143.95 63.7619 145.016 62.6959 145.016 61.3809C145.016 60.066 143.95 59 142.635 59C142.546 59 142.458 59.0049 142.371 59.0144C142.062 59.0485 141.977 59.4211 142.144 59.6843C142.148 59.6914 142.153 59.6985 142.157 59.7056C142.257 59.8665 142.445 59.9524 142.635 59.9524C143.424 59.9524 144.063 60.592 144.063 61.3809C144.063 62.1699 143.424 62.8095 142.635 62.8095C142.445 62.8095 142.257 62.8954 142.157 63.0563C142.153 63.0634 142.148 63.0705 142.144 63.0775Z" fill="#6A737C"/>
<path d="M144.09 68.09C143.914 68.3835 144.105 68.8412 144.447 68.8412H144.54C145.855 68.8412 146.921 67.7752 146.921 66.4603C146.921 65.1453 145.855 64.0793 144.54 64.0793H144.447C144.105 64.0793 143.914 64.537 144.09 64.8305C144.162 64.9508 144.289 65.0317 144.429 65.0317H144.54C145.329 65.0317 145.968 65.6713 145.968 66.4603C145.968 67.2492 145.329 67.8888 144.54 67.8888H144.429C144.289 67.8888 144.162 67.9698 144.09 68.09Z" fill="#6A737C"/>
<path d="M156.165 62.8095C156.165 63.3025 155.995 63.7133 155.655 64.042C155.321 64.365 154.808 64.5265 154.117 64.5265H152.978V67H152.204V61.0755H154.117C154.785 61.0755 155.293 61.237 155.638 61.56C155.99 61.883 156.165 62.2995 156.165 62.8095ZM154.117 63.889C154.547 63.889 154.865 63.7955 155.069 63.6085C155.273 63.4215 155.375 63.1552 155.375 62.8095C155.375 62.0785 154.955 61.713 154.117 61.713H152.978V63.889H154.117ZM161.258 62.342V67H160.484V66.3115C160.337 66.5495 160.13 66.7365 159.864 66.8725C159.603 67.0028 159.314 67.068 158.997 67.068C158.634 67.068 158.308 66.9943 158.019 66.847C157.73 66.694 157.501 66.4673 157.331 66.167C157.166 65.8667 157.084 65.5012 157.084 65.0705V62.342H157.849V64.9685C157.849 65.4275 157.965 65.7817 158.198 66.031C158.43 66.2747 158.747 66.3965 159.15 66.3965C159.563 66.3965 159.889 66.269 160.127 66.014C160.365 65.759 160.484 65.3878 160.484 64.9005V62.342H161.258ZM163.337 63.209C163.496 62.9313 163.728 62.7047 164.034 62.529C164.34 62.3533 164.689 62.2655 165.08 62.2655C165.499 62.2655 165.876 62.3647 166.21 62.563C166.545 62.7613 166.808 63.0418 167.001 63.4045C167.193 63.7615 167.29 64.178 167.29 64.654C167.29 65.1243 167.193 65.5437 167.001 65.912C166.808 66.2803 166.542 66.5665 166.202 66.7705C165.867 66.9745 165.493 67.0765 165.08 67.0765C164.677 67.0765 164.323 66.9887 164.017 66.813C163.717 66.6373 163.49 66.4135 163.337 66.1415V67H162.564V60.71H163.337V63.209ZM166.499 64.654C166.499 64.3027 166.428 63.9967 166.287 63.736C166.145 63.4753 165.952 63.277 165.709 63.141C165.471 63.005 165.207 62.937 164.918 62.937C164.635 62.937 164.371 63.0078 164.128 63.1495C163.89 63.2855 163.697 63.4867 163.55 63.753C163.408 64.0137 163.337 64.3168 163.337 64.6625C163.337 65.0138 163.408 65.3227 163.55 65.589C163.697 65.8497 163.89 66.0508 164.128 66.1925C164.371 66.3285 164.635 66.3965 164.918 66.3965C165.207 66.3965 165.471 66.3285 165.709 66.1925C165.952 66.0508 166.145 65.8497 166.287 65.589C166.428 65.3227 166.499 65.011 166.499 64.654ZM169.081 60.71V67H168.308V60.71H169.081ZM170.799 61.5855C170.652 61.5855 170.527 61.5345 170.425 61.4325C170.323 61.3305 170.272 61.2058 170.272 61.0585C170.272 60.9112 170.323 60.7865 170.425 60.6845C170.527 60.5825 170.652 60.5315 170.799 60.5315C170.941 60.5315 171.06 60.5825 171.156 60.6845C171.258 60.7865 171.309 60.9112 171.309 61.0585C171.309 61.2058 171.258 61.3305 171.156 61.4325C171.06 61.5345 170.941 61.5855 170.799 61.5855ZM171.173 62.342V67H170.4V62.342H171.173ZM172.202 64.6625C172.202 64.1808 172.299 63.7615 172.491 63.4045C172.684 63.0418 172.95 62.7613 173.29 62.563C173.636 62.3647 174.03 62.2655 174.472 62.2655C175.044 62.2655 175.515 62.4043 175.883 62.682C176.257 62.9597 176.503 63.345 176.622 63.838H175.789C175.71 63.5547 175.554 63.3308 175.322 63.1665C175.095 63.0022 174.812 62.92 174.472 62.92C174.03 62.92 173.673 63.073 173.401 63.379C173.129 63.6793 172.993 64.1072 172.993 64.6625C172.993 65.2235 173.129 65.657 173.401 65.963C173.673 66.269 174.03 66.422 174.472 66.422C174.812 66.422 175.095 66.3427 175.322 66.184C175.549 66.0253 175.704 65.7987 175.789 65.504H176.622C176.498 65.98 176.248 66.3625 175.874 66.6515C175.5 66.9348 175.033 67.0765 174.472 67.0765C174.03 67.0765 173.636 66.9773 173.29 66.779C172.95 66.5807 172.684 66.3002 172.491 65.9375C172.299 65.5748 172.202 65.1498 172.202 64.6625Z" fill="#6A737C"/>
<path d="M137.311 40.0755L135.381 43.7645V46H134.608V43.7645L132.67 40.0755H133.528L134.99 43.076L136.452 40.0755H137.311ZM142.377 43.4925C142.377 43.6398 142.368 43.7957 142.351 43.96H138.628C138.657 44.419 138.812 44.7788 139.096 45.0395C139.385 45.2945 139.733 45.422 140.141 45.422C140.476 45.422 140.753 45.3455 140.974 45.1925C141.201 45.0338 141.36 44.8242 141.45 44.5635H142.283C142.159 45.0112 141.909 45.3767 141.535 45.66C141.161 45.9377 140.697 46.0765 140.141 46.0765C139.699 46.0765 139.303 45.9773 138.951 45.779C138.606 45.5807 138.334 45.3002 138.135 44.9375C137.937 44.5692 137.838 44.1442 137.838 43.6625C137.838 43.1808 137.934 42.7587 138.127 42.396C138.319 42.0333 138.589 41.7557 138.934 41.563C139.286 41.3647 139.688 41.2655 140.141 41.2655C140.583 41.2655 140.974 41.3618 141.314 41.5545C141.654 41.7472 141.915 42.0135 142.096 42.3535C142.283 42.6878 142.377 43.0675 142.377 43.4925ZM141.578 43.331C141.578 43.0363 141.513 42.7842 141.382 42.5745C141.252 42.3592 141.073 42.1977 140.847 42.09C140.626 41.9767 140.379 41.92 140.107 41.92C139.716 41.92 139.382 42.0447 139.104 42.294C138.832 42.5433 138.676 42.889 138.637 43.331H141.578ZM145.047 46.0765C144.69 46.0765 144.369 46.017 144.086 45.898C143.803 45.7733 143.579 45.6033 143.415 45.388C143.25 45.167 143.16 44.9148 143.143 44.6315H143.942C143.964 44.8638 144.072 45.0537 144.265 45.201C144.463 45.3483 144.721 45.422 145.038 45.422C145.333 45.422 145.565 45.3568 145.735 45.2265C145.905 45.0962 145.99 44.9318 145.99 44.7335C145.99 44.5295 145.899 44.3793 145.718 44.283C145.537 44.181 145.256 44.0818 144.877 43.9855C144.531 43.8948 144.248 43.8042 144.027 43.7135C143.811 43.6172 143.624 43.4783 143.466 43.297C143.313 43.11 143.236 42.8663 143.236 42.566C143.236 42.328 143.307 42.1098 143.449 41.9115C143.59 41.7132 143.791 41.5573 144.052 41.444C144.313 41.325 144.61 41.2655 144.945 41.2655C145.46 41.2655 145.877 41.3958 146.194 41.6565C146.511 41.9172 146.681 42.2742 146.704 42.7275H145.931C145.914 42.4838 145.814 42.2883 145.633 42.141C145.457 41.9937 145.219 41.92 144.919 41.92C144.641 41.92 144.42 41.9795 144.256 42.0985C144.092 42.2175 144.01 42.3733 144.01 42.566C144.01 42.719 144.058 42.8465 144.154 42.9485C144.256 43.0448 144.381 43.1242 144.528 43.1865C144.681 43.2432 144.891 43.3083 145.157 43.382C145.491 43.4727 145.763 43.5633 145.973 43.654C146.183 43.739 146.361 43.8693 146.509 44.045C146.662 44.2207 146.741 44.4502 146.747 44.7335C146.747 44.9885 146.676 45.218 146.534 45.422C146.392 45.626 146.191 45.7875 145.931 45.9065C145.676 46.0198 145.381 46.0765 145.047 46.0765ZM148.782 41.9795V44.725C148.782 44.9517 148.83 45.1132 148.927 45.2095C149.023 45.3002 149.19 45.3455 149.428 45.3455H149.998V46H149.301C148.87 46 148.547 45.9008 148.332 45.7025C148.116 45.5042 148.009 45.1783 148.009 44.725V41.9795H147.405V41.342H148.009V40.169H148.782V41.342H149.998V41.9795H148.782ZM155.185 43.4925C155.185 43.6398 155.176 43.7957 155.159 43.96H151.436C151.465 44.419 151.62 44.7788 151.904 45.0395C152.193 45.2945 152.541 45.422 152.949 45.422C153.284 45.422 153.561 45.3455 153.782 45.1925C154.009 45.0338 154.168 44.8242 154.258 44.5635H155.091C154.967 45.0112 154.717 45.3767 154.343 45.66C153.969 45.9377 153.505 46.0765 152.949 46.0765C152.507 46.0765 152.111 45.9773 151.759 45.779C151.414 45.5807 151.142 45.3002 150.943 44.9375C150.745 44.5692 150.646 44.1442 150.646 43.6625C150.646 43.1808 150.742 42.7587 150.935 42.396C151.127 42.0333 151.397 41.7557 151.742 41.563C152.094 41.3647 152.496 41.2655 152.949 41.2655C153.391 41.2655 153.782 41.3618 154.122 41.5545C154.462 41.7472 154.723 42.0135 154.904 42.3535C155.091 42.6878 155.185 43.0675 155.185 43.4925ZM154.386 43.331C154.386 43.0363 154.321 42.7842 154.19 42.5745C154.06 42.3592 153.881 42.1977 153.655 42.09C153.434 41.9767 153.187 41.92 152.915 41.92C152.524 41.92 152.19 42.0447 151.912 42.294C151.64 42.5433 151.484 42.889 151.445 43.331H154.386ZM156.979 42.0985C157.115 41.8322 157.308 41.6253 157.557 41.478C157.812 41.3307 158.121 41.257 158.484 41.257V42.056H158.28C157.413 42.056 156.979 42.5263 156.979 43.467V46H156.206V41.342H156.979V42.0985ZM159.088 43.654C159.088 43.178 159.184 42.7615 159.377 42.4045C159.569 42.0418 159.833 41.7613 160.167 41.563C160.507 41.3647 160.887 41.2655 161.306 41.2655C161.669 41.2655 162.006 41.3505 162.318 41.5205C162.629 41.6848 162.867 41.903 163.032 42.175V39.71H163.814V46H163.032V45.1245C162.879 45.4022 162.652 45.6317 162.352 45.813C162.051 45.9887 161.7 46.0765 161.298 46.0765C160.884 46.0765 160.507 45.9745 160.167 45.7705C159.833 45.5665 159.569 45.2803 159.377 44.912C159.184 44.5437 159.088 44.1243 159.088 43.654ZM163.032 43.6625C163.032 43.3112 162.961 43.0052 162.819 42.7445C162.678 42.4838 162.485 42.2855 162.241 42.1495C162.003 42.0078 161.74 41.937 161.451 41.937C161.162 41.937 160.898 42.005 160.66 42.141C160.422 42.277 160.232 42.4753 160.091 42.736C159.949 42.9967 159.878 43.3027 159.878 43.654C159.878 44.011 159.949 44.3227 160.091 44.589C160.232 44.8497 160.422 45.0508 160.66 45.1925C160.898 45.3285 161.162 45.3965 161.451 45.3965C161.74 45.3965 162.003 45.3285 162.241 45.1925C162.485 45.0508 162.678 44.8497 162.819 44.589C162.961 44.3227 163.032 44.0138 163.032 43.6625ZM164.832 43.654C164.832 43.178 164.928 42.7615 165.121 42.4045C165.313 42.0418 165.577 41.7613 165.911 41.563C166.251 41.3647 166.628 41.2655 167.042 41.2655C167.45 41.2655 167.804 41.3533 168.104 41.529C168.405 41.7047 168.628 41.9257 168.776 42.192V41.342H169.558V46H168.776V45.133C168.623 45.405 168.393 45.6317 168.087 45.813C167.787 45.9887 167.436 46.0765 167.033 46.0765C166.62 46.0765 166.246 45.9745 165.911 45.7705C165.577 45.5665 165.313 45.2803 165.121 44.912C164.928 44.5437 164.832 44.1243 164.832 43.654ZM168.776 43.6625C168.776 43.3112 168.705 43.0052 168.563 42.7445C168.422 42.4838 168.229 42.2855 167.985 42.1495C167.747 42.0078 167.484 41.937 167.195 41.937C166.906 41.937 166.642 42.005 166.404 42.141C166.166 42.277 165.976 42.4753 165.835 42.736C165.693 42.9967 165.622 43.3027 165.622 43.654C165.622 44.011 165.693 44.3227 165.835 44.589C165.976 44.8497 166.166 45.0508 166.404 45.1925C166.642 45.3285 166.906 45.3965 167.195 45.3965C167.484 45.3965 167.747 45.3285 167.985 45.1925C168.229 45.0508 168.422 44.8497 168.563 44.589C168.705 44.3227 168.776 44.0138 168.776 43.6625ZM174.877 41.342L172.072 48.193H171.273L172.191 45.949L170.312 41.342H171.171L172.633 45.116L174.078 41.342H174.877Z" fill="#6A737C"/>
<path d="M189.434 45.3795C190.153 44.8015 190.717 44.3283 191.125 43.96C191.533 43.586 191.876 43.1978 192.154 42.7955C192.437 42.3875 192.579 41.988 192.579 41.597C192.579 41.2287 192.488 40.9397 192.307 40.73C192.131 40.5147 191.845 40.407 191.448 40.407C191.063 40.407 190.762 40.5288 190.547 40.7725C190.337 41.0105 190.224 41.3307 190.207 41.733H189.459C189.482 41.0983 189.674 40.6082 190.037 40.2625C190.4 39.9168 190.867 39.744 191.44 39.744C192.023 39.744 192.485 39.9055 192.825 40.2285C193.171 40.5515 193.344 40.9963 193.344 41.563C193.344 42.0333 193.202 42.4923 192.919 42.94C192.641 43.382 192.324 43.773 191.967 44.113C191.61 44.4473 191.153 44.8383 190.598 45.286H193.522V45.932H189.434V45.3795ZM194.416 42.8635C194.416 41.8888 194.575 41.1295 194.892 40.5855C195.209 40.0358 195.765 39.761 196.558 39.761C197.346 39.761 197.898 40.0358 198.216 40.5855C198.533 41.1295 198.692 41.8888 198.692 42.8635C198.692 43.8552 198.533 44.6258 198.216 45.1755C197.898 45.7252 197.346 46 196.558 46C195.765 46 195.209 45.7252 194.892 45.1755C194.575 44.6258 194.416 43.8552 194.416 42.8635ZM197.927 42.8635C197.927 42.3705 197.893 41.954 197.825 41.614C197.762 41.2683 197.629 40.9907 197.425 40.781C197.227 40.5713 196.938 40.4665 196.558 40.4665C196.173 40.4665 195.878 40.5713 195.674 40.781C195.476 40.9907 195.343 41.2683 195.275 41.614C195.212 41.954 195.181 42.3705 195.181 42.8635C195.181 43.3735 195.212 43.8013 195.275 44.147C195.343 44.4927 195.476 44.7703 195.674 44.98C195.878 45.1897 196.173 45.2945 196.558 45.2945C196.938 45.2945 197.227 45.1897 197.425 44.98C197.629 44.7703 197.762 44.4927 197.825 44.147C197.893 43.8013 197.927 43.3735 197.927 42.8635ZM199.754 42.8635C199.754 41.8888 199.912 41.1295 200.23 40.5855C200.547 40.0358 201.102 39.761 201.896 39.761C202.683 39.761 203.236 40.0358 203.553 40.5855C203.87 41.1295 204.029 41.8888 204.029 42.8635C204.029 43.8552 203.87 44.6258 203.553 45.1755C203.236 45.7252 202.683 46 201.896 46C201.102 46 200.547 45.7252 200.23 45.1755C199.912 44.6258 199.754 43.8552 199.754 42.8635ZM203.264 42.8635C203.264 42.3705 203.23 41.954 203.162 41.614C203.1 41.2683 202.967 40.9907 202.763 40.781C202.564 40.5713 202.275 40.4665 201.896 40.4665C201.51 40.4665 201.216 40.5713 201.012 40.781C200.813 40.9907 200.68 41.2683 200.612 41.614C200.55 41.954 200.519 42.3705 200.519 42.8635C200.519 43.3735 200.55 43.8013 200.612 44.147C200.68 44.4927 200.813 44.7703 201.012 44.98C201.216 45.1897 201.51 45.2945 201.896 45.2945C202.275 45.2945 202.564 45.1897 202.763 44.98C202.967 44.7703 203.1 44.4927 203.162 44.147C203.23 43.8013 203.264 43.3735 203.264 42.8635ZM204.904 44.6315V44.045L207.887 39.914H208.814V43.96H209.664V44.6315H208.814V46H208.049V44.6315H204.904ZM208.083 40.7215L205.796 43.96H208.083V40.7215ZM216.791 41.8095C216.791 42.3025 216.621 42.7133 216.281 43.042C215.947 43.365 215.434 43.5265 214.743 43.5265H213.604V46H212.83V40.0755H214.743C215.411 40.0755 215.919 40.237 216.264 40.56C216.616 40.883 216.791 41.2995 216.791 41.8095ZM214.743 42.889C215.173 42.889 215.491 42.7955 215.695 42.6085C215.899 42.4215 216.001 42.1552 216.001 41.8095C216.001 41.0785 215.581 40.713 214.743 40.713H213.604V42.889H214.743ZM218.526 39.71V46H217.753V39.71H218.526ZM219.555 43.654C219.555 43.178 219.652 42.7615 219.844 42.4045C220.037 42.0418 220.301 41.7613 220.635 41.563C220.975 41.3647 221.352 41.2655 221.765 41.2655C222.173 41.2655 222.528 41.3533 222.828 41.529C223.128 41.7047 223.352 41.9257 223.499 42.192V41.342H224.281V46H223.499V45.133C223.346 45.405 223.117 45.6317 222.811 45.813C222.511 45.9887 222.159 46.0765 221.757 46.0765C221.343 46.0765 220.969 45.9745 220.635 45.7705C220.301 45.5665 220.037 45.2803 219.844 44.912C219.652 44.5437 219.555 44.1243 219.555 43.654ZM223.499 43.6625C223.499 43.3112 223.429 43.0052 223.287 42.7445C223.145 42.4838 222.953 42.2855 222.709 42.1495C222.471 42.0078 222.207 41.937 221.918 41.937C221.629 41.937 221.366 42.005 221.128 42.141C220.89 42.277 220.7 42.4753 220.558 42.736C220.417 42.9967 220.346 43.3027 220.346 43.654C220.346 44.011 220.417 44.3227 220.558 44.589C220.7 44.8497 220.89 45.0508 221.128 45.1925C221.366 45.3285 221.629 45.3965 221.918 45.3965C222.207 45.3965 222.471 45.3285 222.709 45.1925C222.953 45.0508 223.145 44.8497 223.287 44.589C223.429 44.3227 223.499 44.0138 223.499 43.6625ZM229.601 41.342L226.796 48.193H225.997L226.915 45.949L225.036 41.342H225.895L227.357 45.116L228.802 41.342H229.601ZM232.027 46.0765C231.67 46.0765 231.35 46.017 231.067 45.898C230.783 45.7733 230.559 45.6033 230.395 45.388C230.231 45.167 230.14 44.9148 230.123 44.6315H230.922C230.945 44.8638 231.052 45.0537 231.245 45.201C231.443 45.3483 231.701 45.422 232.019 45.422C232.313 45.422 232.546 45.3568 232.716 45.2265C232.886 45.0962 232.971 44.9318 232.971 44.7335C232.971 44.5295 232.88 44.3793 232.699 44.283C232.517 44.181 232.237 44.0818 231.857 43.9855C231.511 43.8948 231.228 43.8042 231.007 43.7135C230.792 43.6172 230.605 43.4783 230.446 43.297C230.293 43.11 230.217 42.8663 230.217 42.566C230.217 42.328 230.287 42.1098 230.429 41.9115C230.571 41.7132 230.772 41.5573 231.033 41.444C231.293 41.325 231.591 41.2655 231.925 41.2655C232.441 41.2655 232.857 41.3958 233.175 41.6565C233.492 41.9172 233.662 42.2742 233.685 42.7275H232.911C232.894 42.4838 232.795 42.2883 232.614 42.141C232.438 41.9937 232.2 41.92 231.9 41.92C231.622 41.92 231.401 41.9795 231.237 42.0985C231.072 42.2175 230.99 42.3733 230.99 42.566C230.99 42.719 231.038 42.8465 231.135 42.9485C231.237 43.0448 231.361 43.1242 231.509 43.1865C231.662 43.2432 231.871 43.3083 232.138 43.382C232.472 43.4727 232.744 43.5633 232.954 43.654C233.163 43.739 233.342 43.8693 233.489 44.045C233.642 44.2207 233.721 44.4502 233.727 44.7335C233.727 44.9885 233.656 45.218 233.515 45.422C233.373 45.626 233.172 45.7875 232.911 45.9065C232.656 46.0198 232.361 46.0765 232.027 46.0765Z" fill="#6A737C"/>
<circle cx="182" cy="43" r="2" fill="#078669"/>
<path d="M132.444 21.812C132.444 20.996 132.632 20.264 133.008 19.616C133.392 18.968 133.908 18.464 134.556 18.104C135.212 17.736 135.928 17.552 136.704 17.552C137.592 17.552 138.38 17.772 139.068 18.212C139.764 18.644 140.268 19.26 140.58 20.06H138.936C138.72 19.62 138.42 19.292 138.036 19.076C137.652 18.86 137.208 18.752 136.704 18.752C136.152 18.752 135.66 18.876 135.228 19.124C134.796 19.372 134.456 19.728 134.208 20.192C133.968 20.656 133.848 21.196 133.848 21.812C133.848 22.428 133.968 22.968 134.208 23.432C134.456 23.896 134.796 24.256 135.228 24.512C135.66 24.76 136.152 24.884 136.704 24.884C137.208 24.884 137.652 24.776 138.036 24.56C138.42 24.344 138.72 24.016 138.936 23.576H140.58C140.268 24.376 139.764 24.992 139.068 25.424C138.38 25.856 137.592 26.072 136.704 26.072C135.92 26.072 135.204 25.892 134.556 25.532C133.908 25.164 133.392 24.656 133.008 24.008C132.632 23.36 132.444 22.628 132.444 21.812ZM151.13 20.144C151.13 20.568 151.03 20.968 150.83 21.344C150.63 21.72 150.31 22.028 149.87 22.268C149.43 22.5 148.866 22.616 148.178 22.616H146.666V26H145.298V17.66H148.178C148.818 17.66 149.358 17.772 149.798 17.996C150.246 18.212 150.578 18.508 150.794 18.884C151.018 19.26 151.13 19.68 151.13 20.144ZM148.178 21.5C148.698 21.5 149.086 21.384 149.342 21.152C149.598 20.912 149.726 20.576 149.726 20.144C149.726 19.232 149.21 18.776 148.178 18.776H146.666V21.5H148.178ZM153.803 20.348C154.003 20.012 154.267 19.752 154.595 19.568C154.931 19.376 155.327 19.28 155.783 19.28V20.696H155.435C154.899 20.696 154.491 20.832 154.211 21.104C153.939 21.376 153.803 21.848 153.803 22.52V26H152.435V19.388H153.803V20.348ZM159.909 26.108C159.285 26.108 158.721 25.968 158.217 25.688C157.713 25.4 157.317 25 157.029 24.488C156.741 23.968 156.597 23.368 156.597 22.688C156.597 22.016 156.745 21.42 157.041 20.9C157.337 20.38 157.741 19.98 158.253 19.7C158.765 19.42 159.337 19.28 159.969 19.28C160.601 19.28 161.173 19.42 161.685 19.7C162.197 19.98 162.601 20.38 162.897 20.9C163.193 21.42 163.341 22.016 163.341 22.688C163.341 23.36 163.189 23.956 162.885 24.476C162.581 24.996 162.165 25.4 161.637 25.688C161.117 25.968 160.541 26.108 159.909 26.108ZM159.909 24.92C160.261 24.92 160.589 24.836 160.893 24.668C161.205 24.5 161.457 24.248 161.649 23.912C161.841 23.576 161.937 23.168 161.937 22.688C161.937 22.208 161.845 21.804 161.661 21.476C161.477 21.14 161.233 20.888 160.929 20.72C160.625 20.552 160.297 20.468 159.945 20.468C159.593 20.468 159.265 20.552 158.961 20.72C158.665 20.888 158.429 21.14 158.253 21.476C158.077 21.804 157.989 22.208 157.989 22.688C157.989 23.4 158.169 23.952 158.529 24.344C158.897 24.728 159.357 24.92 159.909 24.92ZM167.357 19.28C167.869 19.28 168.321 19.384 168.713 19.592C169.113 19.792 169.425 20.044 169.649 20.348V19.388H171.029V26.108C171.029 26.716 170.901 27.256 170.645 27.728C170.389 28.208 170.017 28.584 169.529 28.856C169.049 29.128 168.473 29.264 167.801 29.264C166.905 29.264 166.161 29.052 165.569 28.628C164.977 28.212 164.641 27.644 164.561 26.924H165.917C166.021 27.268 166.241 27.544 166.577 27.752C166.921 27.968 167.329 28.076 167.801 28.076C168.353 28.076 168.797 27.908 169.133 27.572C169.477 27.236 169.649 26.748 169.649 26.108V25.004C169.417 25.316 169.101 25.58 168.701 25.796C168.309 26.004 167.861 26.108 167.357 26.108C166.781 26.108 166.253 25.964 165.773 25.676C165.301 25.38 164.925 24.972 164.645 24.452C164.373 23.924 164.237 23.328 164.237 22.664C164.237 22 164.373 21.412 164.645 20.9C164.925 20.388 165.301 19.992 165.773 19.712C166.253 19.424 166.781 19.28 167.357 19.28ZM169.649 22.688C169.649 22.232 169.553 21.836 169.361 21.5C169.177 21.164 168.933 20.908 168.629 20.732C168.325 20.556 167.997 20.468 167.645 20.468C167.293 20.468 166.965 20.556 166.661 20.732C166.357 20.9 166.109 21.152 165.917 21.488C165.733 21.816 165.641 22.208 165.641 22.664C165.641 23.12 165.733 23.52 165.917 23.864C166.109 24.208 166.357 24.472 166.661 24.656C166.973 24.832 167.301 24.92 167.645 24.92C167.997 24.92 168.325 24.832 168.629 24.656C168.933 24.48 169.177 24.224 169.361 23.888C169.553 23.544 169.649 23.144 169.649 22.688ZM174.194 20.348C174.394 20.012 174.658 19.752 174.986 19.568C175.322 19.376 175.718 19.28 176.174 19.28V20.696H175.826C175.29 20.696 174.882 20.832 174.602 21.104C174.33 21.376 174.194 21.848 174.194 22.52V26H172.826V19.388H174.194V20.348ZM176.975 22.664C176.975 22 177.111 21.412 177.383 20.9C177.663 20.388 178.039 19.992 178.511 19.712C178.991 19.424 179.519 19.28 180.095 19.28C180.615 19.28 181.067 19.384 181.451 19.592C181.843 19.792 182.155 20.044 182.387 20.348V19.388H183.767V26H182.387V25.016C182.155 25.328 181.839 25.588 181.439 25.796C181.039 26.004 180.583 26.108 180.071 26.108C179.503 26.108 178.983 25.964 178.511 25.676C178.039 25.38 177.663 24.972 177.383 24.452C177.111 23.924 176.975 23.328 176.975 22.664ZM182.387 22.688C182.387 22.232 182.291 21.836 182.099 21.5C181.915 21.164 181.671 20.908 181.367 20.732C181.063 20.556 180.735 20.468 180.383 20.468C180.031 20.468 179.703 20.556 179.399 20.732C179.095 20.9 178.847 21.152 178.655 21.488C178.471 21.816 178.379 22.208 178.379 22.664C178.379 23.12 178.471 23.52 178.655 23.864C178.847 24.208 179.095 24.472 179.399 24.656C179.711 24.832 180.039 24.92 180.383 24.92C180.735 24.92 181.063 24.832 181.367 24.656C181.671 24.48 181.915 24.224 182.099 23.888C182.291 23.544 182.387 23.144 182.387 22.688ZM193.568 19.28C194.088 19.28 194.552 19.388 194.96 19.604C195.376 19.82 195.7 20.14 195.932 20.564C196.172 20.988 196.292 21.5 196.292 22.1V26H194.936V22.304C194.936 21.712 194.788 21.26 194.492 20.948C194.196 20.628 193.792 20.468 193.28 20.468C192.768 20.468 192.36 20.628 192.056 20.948C191.76 21.26 191.612 21.712 191.612 22.304V26H190.256V22.304C190.256 21.712 190.108 21.26 189.812 20.948C189.516 20.628 189.112 20.468 188.6 20.468C188.088 20.468 187.68 20.628 187.376 20.948C187.08 21.26 186.932 21.712 186.932 22.304V26H185.564V19.388H186.932V20.144C187.156 19.872 187.44 19.66 187.784 19.508C188.128 19.356 188.496 19.28 188.888 19.28C189.416 19.28 189.888 19.392 190.304 19.616C190.72 19.84 191.04 20.164 191.264 20.588C191.464 20.188 191.776 19.872 192.2 19.64C192.624 19.4 193.08 19.28 193.568 19.28ZM206.037 19.28C206.557 19.28 207.021 19.388 207.429 19.604C207.845 19.82 208.169 20.14 208.401 20.564C208.641 20.988 208.761 21.5 208.761 22.1V26H207.405V22.304C207.405 21.712 207.257 21.26 206.961 20.948C206.665 20.628 206.261 20.468 205.749 20.468C205.237 20.468 204.829 20.628 204.525 20.948C204.229 21.26 204.081 21.712 204.081 22.304V26H202.725V22.304C202.725 21.712 202.577 21.26 202.281 20.948C201.985 20.628 201.581 20.468 201.069 20.468C200.557 20.468 200.149 20.628 199.845 20.948C199.549 21.26 199.401 21.712 199.401 22.304V26H198.033V19.388H199.401V20.144C199.625 19.872 199.909 19.66 200.253 19.508C200.597 19.356 200.965 19.28 201.357 19.28C201.885 19.28 202.357 19.392 202.773 19.616C203.189 19.84 203.509 20.164 203.733 20.588C203.933 20.188 204.245 19.872 204.669 19.64C205.093 19.4 205.549 19.28 206.037 19.28ZM211.198 18.512C210.95 18.512 210.742 18.428 210.574 18.26C210.406 18.092 210.322 17.884 210.322 17.636C210.322 17.388 210.406 17.18 210.574 17.012C210.742 16.844 210.95 16.76 211.198 16.76C211.438 16.76 211.642 16.844 211.81 17.012C211.978 17.18 212.062 17.388 212.062 17.636C212.062 17.884 211.978 18.092 211.81 18.26C211.642 18.428 211.438 18.512 211.198 18.512ZM211.87 19.388V26H210.502V19.388H211.87ZM217.002 19.28C217.522 19.28 217.986 19.388 218.394 19.604C218.81 19.82 219.134 20.14 219.366 20.564C219.598 20.988 219.714 21.5 219.714 22.1V26H218.358V22.304C218.358 21.712 218.21 21.26 217.914 20.948C217.618 20.628 217.214 20.468 216.702 20.468C216.19 20.468 215.782 20.628 215.478 20.948C215.182 21.26 215.034 21.712 215.034 22.304V26H213.666V19.388H215.034V20.144C215.258 19.872 215.542 19.66 215.886 19.508C216.238 19.356 216.61 19.28 217.002 19.28ZM224.123 19.28C224.635 19.28 225.087 19.384 225.479 19.592C225.879 19.792 226.191 20.044 226.415 20.348V19.388H227.795V26.108C227.795 26.716 227.667 27.256 227.411 27.728C227.155 28.208 226.783 28.584 226.295 28.856C225.815 29.128 225.239 29.264 224.567 29.264C223.671 29.264 222.927 29.052 222.335 28.628C221.743 28.212 221.407 27.644 221.327 26.924H222.683C222.787 27.268 223.007 27.544 223.343 27.752C223.687 27.968 224.095 28.076 224.567 28.076C225.119 28.076 225.563 27.908 225.899 27.572C226.243 27.236 226.415 26.748 226.415 26.108V25.004C226.183 25.316 225.867 25.58 225.467 25.796C225.075 26.004 224.627 26.108 224.123 26.108C223.547 26.108 223.019 25.964 222.539 25.676C222.067 25.38 221.691 24.972 221.411 24.452C221.139 23.924 221.003 23.328 221.003 22.664C221.003 22 221.139 21.412 221.411 20.9C221.691 20.388 222.067 19.992 222.539 19.712C223.019 19.424 223.547 19.28 224.123 19.28ZM226.415 22.688C226.415 22.232 226.319 21.836 226.127 21.5C225.943 21.164 225.699 20.908 225.395 20.732C225.091 20.556 224.763 20.468 224.411 20.468C224.059 20.468 223.731 20.556 223.427 20.732C223.123 20.9 222.875 21.152 222.683 21.488C222.499 21.816 222.407 22.208 222.407 22.664C222.407 23.12 222.499 23.52 222.683 23.864C222.875 24.208 223.123 24.472 223.427 24.656C223.739 24.832 224.067 24.92 224.411 24.92C224.763 24.92 225.091 24.832 225.395 24.656C225.699 24.48 225.943 24.224 226.127 23.888C226.319 23.544 226.415 23.144 226.415 22.688Z" fill="#1D2746"/>
</svg>
