<svg width="327" height="75" viewBox="0 0 327 75" fill="none" xmlns="http://www.w3.org/2000/svg">
<rect width="327" height="87" rx="12" fill="#F1F1F1"/>
<rect x="1" y="1" width="325" height="84" rx="12" fill="white"/>
<path d="M1 12C1 5.37258 6.37258 0 13 0H116V85H13C6.37258 85 1 79.6274 1 73V12Z" fill="#DFC5F4"/>
<path d="M46.7 28.4809H53.345V47.1048C53.345 55.4986 49.3231 58.4279 42.8964 58.4279C41.3227 58.4279 39.3117 58.1656 38 57.7284L38.7432 52.3511C39.6613 52.6571 40.8417 52.8757 42.1532 52.8757C44.9511 52.8757 46.7 51.6078 46.7 47.0612V28.4809Z" fill="#1D2746"/>
<path d="M59.1145 51.1268C60.8632 52.0449 63.6612 52.963 66.5029 52.963C69.5632 52.963 71.1807 51.6952 71.1807 49.7279C71.1807 47.9355 69.7818 46.8426 66.2406 45.6184C61.3441 43.8696 58.1091 41.1591 58.1091 36.8312C58.1091 31.8035 62.3497 28 69.2571 28C72.6235 28 75.0278 28.656 76.7767 29.4865L75.2901 34.82C74.1535 34.2518 72.0112 33.4211 69.1698 33.4211C66.2844 33.4211 64.8853 34.7763 64.8853 36.2628C64.8853 38.1427 66.5029 38.9732 70.3502 40.4598C75.5525 42.3834 77.957 45.0939 77.957 49.2908C77.957 54.2309 74.1972 58.4279 66.1095 58.4279C62.7431 58.4279 59.4204 57.5097 57.7594 56.5917L59.1145 51.1268Z" fill="#1D2746"/>
<rect x="85" y="6" width="25" height="12" rx="2" fill="#078669"/>
<path d="M90.4887 10.16V9.662H91.6167V14H91.0647V10.16H90.4887ZM92.5546 11.786C92.5546 11.098 92.6666 10.562 92.8906 10.178C93.1146 9.79 93.5066 9.596 94.0666 9.596C94.6226 9.596 95.0126 9.79 95.2366 10.178C95.4606 10.562 95.5726 11.098 95.5726 11.786C95.5726 12.486 95.4606 13.03 95.2366 13.418C95.0126 13.806 94.6226 14 94.0666 14C93.5066 14 93.1146 13.806 92.8906 13.418C92.6666 13.03 92.5546 12.486 92.5546 11.786ZM95.0326 11.786C95.0326 11.438 95.0086 11.144 94.9606 10.904C94.9166 10.66 94.8226 10.464 94.6786 10.316C94.5386 10.168 94.3346 10.094 94.0666 10.094C93.7946 10.094 93.5866 10.168 93.4426 10.316C93.3026 10.464 93.2086 10.66 93.1606 10.904C93.1166 11.144 93.0946 11.438 93.0946 11.786C93.0946 12.146 93.1166 12.448 93.1606 12.692C93.2086 12.936 93.3026 13.132 93.4426 13.28C93.5866 13.428 93.7946 13.502 94.0666 13.502C94.3346 13.502 94.5386 13.428 94.6786 13.28C94.8226 13.132 94.9166 12.936 94.9606 12.692C95.0086 12.448 95.0326 12.146 95.0326 11.786ZM97.8078 12.344C97.8078 12.008 97.8758 11.714 98.0118 11.462C98.1478 11.206 98.3338 11.008 98.5698 10.868C98.8098 10.728 99.0778 10.658 99.3738 10.658C99.6578 10.658 99.9058 10.722 100.118 10.85C100.334 10.974 100.492 11.128 100.592 11.312V10.712H101.144V15.56H100.592V13.394C100.488 13.578 100.328 13.734 100.112 13.862C99.8958 13.99 99.6438 14.054 99.3558 14.054C99.0678 14.054 98.8058 13.982 98.5698 13.838C98.3338 13.694 98.1478 13.492 98.0118 13.232C97.8758 12.972 97.8078 12.676 97.8078 12.344ZM100.592 12.35C100.592 12.102 100.542 11.886 100.442 11.702C100.342 11.518 100.206 11.378 100.034 11.282C99.8658 11.182 99.6798 11.132 99.4758 11.132C99.2718 11.132 99.0858 11.18 98.9178 11.276C98.7498 11.372 98.6158 11.512 98.5158 11.696C98.4158 11.88 98.3658 12.096 98.3658 12.344C98.3658 12.596 98.4158 12.816 98.5158 13.004C98.6158 13.188 98.7498 13.33 98.9178 13.43C99.0858 13.526 99.2718 13.574 99.4758 13.574C99.6798 13.574 99.8658 13.526 100.034 13.43C100.206 13.33 100.342 13.188 100.442 13.004C100.542 12.816 100.592 12.598 100.592 12.35ZM103.23 14.054C102.978 14.054 102.752 14.012 102.552 13.928C102.352 13.84 102.194 13.72 102.078 13.568C101.962 13.412 101.898 13.234 101.886 13.034H102.45C102.466 13.198 102.542 13.332 102.678 13.436C102.818 13.54 103 13.592 103.224 13.592C103.432 13.592 103.596 13.546 103.716 13.454C103.836 13.362 103.896 13.246 103.896 13.106C103.896 12.962 103.832 12.856 103.704 12.788C103.576 12.716 103.378 12.646 103.11 12.578C102.866 12.514 102.666 12.45 102.51 12.386C102.358 12.318 102.226 12.22 102.114 12.092C102.006 11.96 101.952 11.788 101.952 11.576C101.952 11.408 102.002 11.254 102.102 11.114C102.202 10.974 102.344 10.864 102.528 10.784C102.712 10.7 102.922 10.658 103.158 10.658C103.522 10.658 103.816 10.75 104.04 10.934C104.264 11.118 104.384 11.37 104.4 11.69H103.854C103.842 11.518 103.772 11.38 103.644 11.276C103.52 11.172 103.352 11.12 103.14 11.12C102.944 11.12 102.788 11.162 102.672 11.246C102.556 11.33 102.498 11.44 102.498 11.576C102.498 11.684 102.532 11.774 102.6 11.846C102.672 11.914 102.76 11.97 102.864 12.014C102.972 12.054 103.12 12.1 103.308 12.152C103.544 12.216 103.736 12.28 103.884 12.344C104.032 12.404 104.158 12.496 104.262 12.62C104.37 12.744 104.426 12.906 104.43 13.106C104.43 13.286 104.38 13.448 104.28 13.592C104.18 13.736 104.038 13.85 103.854 13.934C103.674 14.014 103.466 14.054 103.23 14.054Z" fill="white"/>
<path d="M140.865 61.381C140.865 62.1569 140.236 62.7858 139.46 62.7858V63.7858C140.788 63.7858 141.865 62.7091 141.865 61.381H140.865ZM139.46 62.7858C138.684 62.7858 138.055 62.1569 138.055 61.381H137.055C137.055 62.7091 138.132 63.7858 139.46 63.7858V62.7858ZM138.055 61.381C138.055 60.6052 138.684 59.9763 139.46 59.9763V58.9763C138.132 58.9763 137.055 60.0529 137.055 61.381H138.055ZM139.46 59.9763C140.236 59.9763 140.865 60.6052 140.865 61.381H141.865C141.865 60.0529 140.788 58.9763 139.46 58.9763V59.9763ZM137.555 65.6905H141.365V64.6905H137.555V65.6905ZM141.365 68.5H137.555V69.5H141.365V68.5ZM137.555 68.5C136.78 68.5 136.151 67.8711 136.151 67.0953H135.151C135.151 68.4234 136.227 69.5 137.555 69.5V68.5ZM142.77 67.0953C142.77 67.8711 142.141 68.5 141.365 68.5V69.5C142.693 69.5 143.77 68.4234 143.77 67.0953H142.77ZM141.365 65.6905C142.141 65.6905 142.77 66.3195 142.77 67.0953H143.77C143.77 65.7672 142.693 64.6905 141.365 64.6905V65.6905ZM137.555 64.6905C136.227 64.6905 135.151 65.7672 135.151 67.0953H136.151C136.151 66.3195 136.78 65.6905 137.555 65.6905V64.6905Z" fill="#6A737C"/>
<path d="M136.763 63.0563C136.663 62.8954 136.475 62.8095 136.286 62.8095C135.497 62.8095 134.857 62.1699 134.857 61.3809C134.857 60.592 135.497 59.9524 136.286 59.9524C136.475 59.9524 136.663 59.8665 136.763 59.7056C136.768 59.6985 136.772 59.6914 136.777 59.6843C136.943 59.4211 136.859 59.0485 136.549 59.0144C136.463 59.0049 136.375 59 136.286 59C134.971 59 133.905 60.066 133.905 61.3809C133.905 62.6959 134.971 63.7619 136.286 63.7619C136.375 63.7619 136.463 63.757 136.549 63.7475C136.859 63.7134 136.943 63.3407 136.777 63.0775C136.772 63.0705 136.768 63.0634 136.763 63.0563Z" fill="#6A737C"/>
<path d="M134.831 68.09C134.759 67.9698 134.631 67.8888 134.491 67.8888H134.381C133.592 67.8888 132.952 67.2492 132.952 66.4603C132.952 65.6713 133.592 65.0317 134.381 65.0317H134.491C134.631 65.0317 134.759 64.9508 134.831 64.8305C135.007 64.537 134.816 64.0793 134.473 64.0793H134.381C133.066 64.0793 132 65.1453 132 66.4603C132 67.7752 133.066 68.8412 134.381 68.8412H134.473C134.816 68.8412 135.007 68.3835 134.831 68.09Z" fill="#6A737C"/>
<path d="M142.144 63.0775C141.977 63.3407 142.062 63.7134 142.371 63.7475C142.458 63.757 142.546 63.7619 142.635 63.7619C143.95 63.7619 145.016 62.6959 145.016 61.3809C145.016 60.066 143.95 59 142.635 59C142.546 59 142.458 59.0049 142.371 59.0144C142.062 59.0485 141.977 59.4211 142.144 59.6843C142.148 59.6914 142.153 59.6985 142.157 59.7056C142.257 59.8665 142.445 59.9524 142.635 59.9524C143.424 59.9524 144.063 60.592 144.063 61.3809C144.063 62.1699 143.424 62.8095 142.635 62.8095C142.445 62.8095 142.257 62.8954 142.157 63.0563C142.153 63.0634 142.148 63.0705 142.144 63.0775Z" fill="#6A737C"/>
<path d="M144.09 68.09C143.914 68.3835 144.105 68.8412 144.447 68.8412H144.54C145.855 68.8412 146.921 67.7752 146.921 66.4603C146.921 65.1453 145.855 64.0793 144.54 64.0793H144.447C144.105 64.0793 143.914 64.537 144.09 64.8305C144.162 64.9508 144.289 65.0317 144.429 65.0317H144.54C145.329 65.0317 145.968 65.6713 145.968 66.4603C145.968 67.2492 145.329 67.8888 144.54 67.8888H144.429C144.289 67.8888 144.162 67.9698 144.09 68.09Z" fill="#6A737C"/>
<path d="M156.165 62.8095C156.165 63.3025 155.995 63.7133 155.655 64.042C155.321 64.365 154.808 64.5265 154.117 64.5265H152.978V67H152.204V61.0755H154.117C154.785 61.0755 155.293 61.237 155.638 61.56C155.99 61.883 156.165 62.2995 156.165 62.8095ZM154.117 63.889C154.547 63.889 154.865 63.7955 155.069 63.6085C155.273 63.4215 155.375 63.1552 155.375 62.8095C155.375 62.0785 154.955 61.713 154.117 61.713H152.978V63.889H154.117ZM161.258 62.342V67H160.484V66.3115C160.337 66.5495 160.13 66.7365 159.864 66.8725C159.603 67.0028 159.314 67.068 158.997 67.068C158.634 67.068 158.308 66.9943 158.019 66.847C157.73 66.694 157.501 66.4673 157.331 66.167C157.166 65.8667 157.084 65.5012 157.084 65.0705V62.342H157.849V64.9685C157.849 65.4275 157.965 65.7817 158.198 66.031C158.43 66.2747 158.747 66.3965 159.15 66.3965C159.563 66.3965 159.889 66.269 160.127 66.014C160.365 65.759 160.484 65.3878 160.484 64.9005V62.342H161.258ZM163.337 63.209C163.496 62.9313 163.728 62.7047 164.034 62.529C164.34 62.3533 164.689 62.2655 165.08 62.2655C165.499 62.2655 165.876 62.3647 166.21 62.563C166.545 62.7613 166.808 63.0418 167.001 63.4045C167.193 63.7615 167.29 64.178 167.29 64.654C167.29 65.1243 167.193 65.5437 167.001 65.912C166.808 66.2803 166.542 66.5665 166.202 66.7705C165.867 66.9745 165.493 67.0765 165.08 67.0765C164.677 67.0765 164.323 66.9887 164.017 66.813C163.717 66.6373 163.49 66.4135 163.337 66.1415V67H162.564V60.71H163.337V63.209ZM166.499 64.654C166.499 64.3027 166.428 63.9967 166.287 63.736C166.145 63.4753 165.952 63.277 165.709 63.141C165.471 63.005 165.207 62.937 164.918 62.937C164.635 62.937 164.371 63.0078 164.128 63.1495C163.89 63.2855 163.697 63.4867 163.55 63.753C163.408 64.0137 163.337 64.3168 163.337 64.6625C163.337 65.0138 163.408 65.3227 163.55 65.589C163.697 65.8497 163.89 66.0508 164.128 66.1925C164.371 66.3285 164.635 66.3965 164.918 66.3965C165.207 66.3965 165.471 66.3285 165.709 66.1925C165.952 66.0508 166.145 65.8497 166.287 65.589C166.428 65.3227 166.499 65.011 166.499 64.654ZM169.081 60.71V67H168.308V60.71H169.081ZM170.799 61.5855C170.652 61.5855 170.527 61.5345 170.425 61.4325C170.323 61.3305 170.272 61.2058 170.272 61.0585C170.272 60.9112 170.323 60.7865 170.425 60.6845C170.527 60.5825 170.652 60.5315 170.799 60.5315C170.941 60.5315 171.06 60.5825 171.156 60.6845C171.258 60.7865 171.309 60.9112 171.309 61.0585C171.309 61.2058 171.258 61.3305 171.156 61.4325C171.06 61.5345 170.941 61.5855 170.799 61.5855ZM171.173 62.342V67H170.4V62.342H171.173ZM172.202 64.6625C172.202 64.1808 172.299 63.7615 172.491 63.4045C172.684 63.0418 172.95 62.7613 173.29 62.563C173.636 62.3647 174.03 62.2655 174.472 62.2655C175.044 62.2655 175.515 62.4043 175.883 62.682C176.257 62.9597 176.503 63.345 176.622 63.838H175.789C175.71 63.5547 175.554 63.3308 175.322 63.1665C175.095 63.0022 174.812 62.92 174.472 62.92C174.03 62.92 173.673 63.073 173.401 63.379C173.129 63.6793 172.993 64.1072 172.993 64.6625C172.993 65.2235 173.129 65.657 173.401 65.963C173.673 66.269 174.03 66.422 174.472 66.422C174.812 66.422 175.095 66.3427 175.322 66.184C175.549 66.0253 175.704 65.7987 175.789 65.504H176.622C176.498 65.98 176.248 66.3625 175.874 66.6515C175.5 66.9348 175.033 67.0765 174.472 67.0765C174.03 67.0765 173.636 66.9773 173.29 66.779C172.95 66.5807 172.684 66.3002 172.491 65.9375C172.299 65.5748 172.202 65.1498 172.202 64.6625Z" fill="#6A737C"/>
<path d="M137.311 40.0755L135.381 43.7645V46H134.608V43.7645L132.67 40.0755H133.528L134.99 43.076L136.452 40.0755H137.311ZM142.377 43.4925C142.377 43.6398 142.368 43.7957 142.351 43.96H138.628C138.657 44.419 138.812 44.7788 139.096 45.0395C139.385 45.2945 139.733 45.422 140.141 45.422C140.476 45.422 140.753 45.3455 140.974 45.1925C141.201 45.0338 141.36 44.8242 141.45 44.5635H142.283C142.159 45.0112 141.909 45.3767 141.535 45.66C141.161 45.9377 140.697 46.0765 140.141 46.0765C139.699 46.0765 139.303 45.9773 138.951 45.779C138.606 45.5807 138.334 45.3002 138.135 44.9375C137.937 44.5692 137.838 44.1442 137.838 43.6625C137.838 43.1808 137.934 42.7587 138.127 42.396C138.319 42.0333 138.589 41.7557 138.934 41.563C139.286 41.3647 139.688 41.2655 140.141 41.2655C140.583 41.2655 140.974 41.3618 141.314 41.5545C141.654 41.7472 141.915 42.0135 142.096 42.3535C142.283 42.6878 142.377 43.0675 142.377 43.4925ZM141.578 43.331C141.578 43.0363 141.513 42.7842 141.382 42.5745C141.252 42.3592 141.073 42.1977 140.847 42.09C140.626 41.9767 140.379 41.92 140.107 41.92C139.716 41.92 139.382 42.0447 139.104 42.294C138.832 42.5433 138.676 42.889 138.637 43.331H141.578ZM145.047 46.0765C144.69 46.0765 144.369 46.017 144.086 45.898C143.803 45.7733 143.579 45.6033 143.415 45.388C143.25 45.167 143.16 44.9148 143.143 44.6315H143.942C143.964 44.8638 144.072 45.0537 144.265 45.201C144.463 45.3483 144.721 45.422 145.038 45.422C145.333 45.422 145.565 45.3568 145.735 45.2265C145.905 45.0962 145.99 44.9318 145.99 44.7335C145.99 44.5295 145.899 44.3793 145.718 44.283C145.537 44.181 145.256 44.0818 144.877 43.9855C144.531 43.8948 144.248 43.8042 144.027 43.7135C143.811 43.6172 143.624 43.4783 143.466 43.297C143.313 43.11 143.236 42.8663 143.236 42.566C143.236 42.328 143.307 42.1098 143.449 41.9115C143.59 41.7132 143.791 41.5573 144.052 41.444C144.313 41.325 144.61 41.2655 144.945 41.2655C145.46 41.2655 145.877 41.3958 146.194 41.6565C146.511 41.9172 146.681 42.2742 146.704 42.7275H145.931C145.914 42.4838 145.814 42.2883 145.633 42.141C145.457 41.9937 145.219 41.92 144.919 41.92C144.641 41.92 144.42 41.9795 144.256 42.0985C144.092 42.2175 144.01 42.3733 144.01 42.566C144.01 42.719 144.058 42.8465 144.154 42.9485C144.256 43.0448 144.381 43.1242 144.528 43.1865C144.681 43.2432 144.891 43.3083 145.157 43.382C145.491 43.4727 145.763 43.5633 145.973 43.654C146.183 43.739 146.361 43.8693 146.509 44.045C146.662 44.2207 146.741 44.4502 146.747 44.7335C146.747 44.9885 146.676 45.218 146.534 45.422C146.392 45.626 146.191 45.7875 145.931 45.9065C145.676 46.0198 145.381 46.0765 145.047 46.0765ZM148.782 41.9795V44.725C148.782 44.9517 148.83 45.1132 148.927 45.2095C149.023 45.3002 149.19 45.3455 149.428 45.3455H149.998V46H149.301C148.87 46 148.547 45.9008 148.332 45.7025C148.116 45.5042 148.009 45.1783 148.009 44.725V41.9795H147.405V41.342H148.009V40.169H148.782V41.342H149.998V41.9795H148.782ZM155.185 43.4925C155.185 43.6398 155.176 43.7957 155.159 43.96H151.436C151.465 44.419 151.62 44.7788 151.904 45.0395C152.193 45.2945 152.541 45.422 152.949 45.422C153.284 45.422 153.561 45.3455 153.782 45.1925C154.009 45.0338 154.168 44.8242 154.258 44.5635H155.091C154.967 45.0112 154.717 45.3767 154.343 45.66C153.969 45.9377 153.505 46.0765 152.949 46.0765C152.507 46.0765 152.111 45.9773 151.759 45.779C151.414 45.5807 151.142 45.3002 150.943 44.9375C150.745 44.5692 150.646 44.1442 150.646 43.6625C150.646 43.1808 150.742 42.7587 150.935 42.396C151.127 42.0333 151.397 41.7557 151.742 41.563C152.094 41.3647 152.496 41.2655 152.949 41.2655C153.391 41.2655 153.782 41.3618 154.122 41.5545C154.462 41.7472 154.723 42.0135 154.904 42.3535C155.091 42.6878 155.185 43.0675 155.185 43.4925ZM154.386 43.331C154.386 43.0363 154.321 42.7842 154.19 42.5745C154.06 42.3592 153.881 42.1977 153.655 42.09C153.434 41.9767 153.187 41.92 152.915 41.92C152.524 41.92 152.19 42.0447 151.912 42.294C151.64 42.5433 151.484 42.889 151.445 43.331H154.386ZM156.979 42.0985C157.115 41.8322 157.308 41.6253 157.557 41.478C157.812 41.3307 158.121 41.257 158.484 41.257V42.056H158.28C157.413 42.056 156.979 42.5263 156.979 43.467V46H156.206V41.342H156.979V42.0985ZM159.088 43.654C159.088 43.178 159.184 42.7615 159.377 42.4045C159.569 42.0418 159.833 41.7613 160.167 41.563C160.507 41.3647 160.887 41.2655 161.306 41.2655C161.669 41.2655 162.006 41.3505 162.318 41.5205C162.629 41.6848 162.867 41.903 163.032 42.175V39.71H163.814V46H163.032V45.1245C162.879 45.4022 162.652 45.6317 162.352 45.813C162.051 45.9887 161.7 46.0765 161.298 46.0765C160.884 46.0765 160.507 45.9745 160.167 45.7705C159.833 45.5665 159.569 45.2803 159.377 44.912C159.184 44.5437 159.088 44.1243 159.088 43.654ZM163.032 43.6625C163.032 43.3112 162.961 43.0052 162.819 42.7445C162.678 42.4838 162.485 42.2855 162.241 42.1495C162.003 42.0078 161.74 41.937 161.451 41.937C161.162 41.937 160.898 42.005 160.66 42.141C160.422 42.277 160.232 42.4753 160.091 42.736C159.949 42.9967 159.878 43.3027 159.878 43.654C159.878 44.011 159.949 44.3227 160.091 44.589C160.232 44.8497 160.422 45.0508 160.66 45.1925C160.898 45.3285 161.162 45.3965 161.451 45.3965C161.74 45.3965 162.003 45.3285 162.241 45.1925C162.485 45.0508 162.678 44.8497 162.819 44.589C162.961 44.3227 163.032 44.0138 163.032 43.6625ZM164.832 43.654C164.832 43.178 164.928 42.7615 165.121 42.4045C165.313 42.0418 165.577 41.7613 165.911 41.563C166.251 41.3647 166.628 41.2655 167.042 41.2655C167.45 41.2655 167.804 41.3533 168.104 41.529C168.405 41.7047 168.628 41.9257 168.776 42.192V41.342H169.558V46H168.776V45.133C168.623 45.405 168.393 45.6317 168.087 45.813C167.787 45.9887 167.436 46.0765 167.033 46.0765C166.62 46.0765 166.246 45.9745 165.911 45.7705C165.577 45.5665 165.313 45.2803 165.121 44.912C164.928 44.5437 164.832 44.1243 164.832 43.654ZM168.776 43.6625C168.776 43.3112 168.705 43.0052 168.563 42.7445C168.422 42.4838 168.229 42.2855 167.985 42.1495C167.747 42.0078 167.484 41.937 167.195 41.937C166.906 41.937 166.642 42.005 166.404 42.141C166.166 42.277 165.976 42.4753 165.835 42.736C165.693 42.9967 165.622 43.3027 165.622 43.654C165.622 44.011 165.693 44.3227 165.835 44.589C165.976 44.8497 166.166 45.0508 166.404 45.1925C166.642 45.3285 166.906 45.3965 167.195 45.3965C167.484 45.3965 167.747 45.3285 167.985 45.1925C168.229 45.0508 168.422 44.8497 168.563 44.589C168.705 44.3227 168.776 44.0138 168.776 43.6625ZM174.877 41.342L172.072 48.193H171.273L172.191 45.949L170.312 41.342H171.171L172.633 45.116L174.078 41.342H174.877Z" fill="#6A737C"/>
<path d="M189.434 45.3795C190.153 44.8015 190.717 44.3283 191.125 43.96C191.533 43.586 191.876 43.1978 192.154 42.7955C192.437 42.3875 192.579 41.988 192.579 41.597C192.579 41.2287 192.488 40.9397 192.307 40.73C192.131 40.5147 191.845 40.407 191.448 40.407C191.063 40.407 190.762 40.5288 190.547 40.7725C190.337 41.0105 190.224 41.3307 190.207 41.733H189.459C189.482 41.0983 189.674 40.6082 190.037 40.2625C190.4 39.9168 190.867 39.744 191.44 39.744C192.023 39.744 192.485 39.9055 192.825 40.2285C193.171 40.5515 193.344 40.9963 193.344 41.563C193.344 42.0333 193.202 42.4923 192.919 42.94C192.641 43.382 192.324 43.773 191.967 44.113C191.61 44.4473 191.153 44.8383 190.598 45.286H193.522V45.932H189.434V45.3795ZM194.416 42.8635C194.416 41.8888 194.575 41.1295 194.892 40.5855C195.209 40.0358 195.765 39.761 196.558 39.761C197.346 39.761 197.898 40.0358 198.216 40.5855C198.533 41.1295 198.692 41.8888 198.692 42.8635C198.692 43.8552 198.533 44.6258 198.216 45.1755C197.898 45.7252 197.346 46 196.558 46C195.765 46 195.209 45.7252 194.892 45.1755C194.575 44.6258 194.416 43.8552 194.416 42.8635ZM197.927 42.8635C197.927 42.3705 197.893 41.954 197.825 41.614C197.762 41.2683 197.629 40.9907 197.425 40.781C197.227 40.5713 196.938 40.4665 196.558 40.4665C196.173 40.4665 195.878 40.5713 195.674 40.781C195.476 40.9907 195.343 41.2683 195.275 41.614C195.212 41.954 195.181 42.3705 195.181 42.8635C195.181 43.3735 195.212 43.8013 195.275 44.147C195.343 44.4927 195.476 44.7703 195.674 44.98C195.878 45.1897 196.173 45.2945 196.558 45.2945C196.938 45.2945 197.227 45.1897 197.425 44.98C197.629 44.7703 197.762 44.4927 197.825 44.147C197.893 43.8013 197.927 43.3735 197.927 42.8635ZM199.754 42.8635C199.754 41.8888 199.912 41.1295 200.23 40.5855C200.547 40.0358 201.102 39.761 201.896 39.761C202.683 39.761 203.236 40.0358 203.553 40.5855C203.87 41.1295 204.029 41.8888 204.029 42.8635C204.029 43.8552 203.87 44.6258 203.553 45.1755C203.236 45.7252 202.683 46 201.896 46C201.102 46 200.547 45.7252 200.23 45.1755C199.912 44.6258 199.754 43.8552 199.754 42.8635ZM203.264 42.8635C203.264 42.3705 203.23 41.954 203.162 41.614C203.1 41.2683 202.967 40.9907 202.763 40.781C202.564 40.5713 202.275 40.4665 201.896 40.4665C201.51 40.4665 201.216 40.5713 201.012 40.781C200.813 40.9907 200.68 41.2683 200.612 41.614C200.55 41.954 200.519 42.3705 200.519 42.8635C200.519 43.3735 200.55 43.8013 200.612 44.147C200.68 44.4927 200.813 44.7703 201.012 44.98C201.216 45.1897 201.51 45.2945 201.896 45.2945C202.275 45.2945 202.564 45.1897 202.763 44.98C202.967 44.7703 203.1 44.4927 203.162 44.147C203.23 43.8013 203.264 43.3735 203.264 42.8635ZM204.904 44.6315V44.045L207.887 39.914H208.814V43.96H209.664V44.6315H208.814V46H208.049V44.6315H204.904ZM208.083 40.7215L205.796 43.96H208.083V40.7215ZM216.791 41.8095C216.791 42.3025 216.621 42.7133 216.281 43.042C215.947 43.365 215.434 43.5265 214.743 43.5265H213.604V46H212.83V40.0755H214.743C215.411 40.0755 215.919 40.237 216.264 40.56C216.616 40.883 216.791 41.2995 216.791 41.8095ZM214.743 42.889C215.173 42.889 215.491 42.7955 215.695 42.6085C215.899 42.4215 216.001 42.1552 216.001 41.8095C216.001 41.0785 215.581 40.713 214.743 40.713H213.604V42.889H214.743ZM218.526 39.71V46H217.753V39.71H218.526ZM219.555 43.654C219.555 43.178 219.652 42.7615 219.844 42.4045C220.037 42.0418 220.301 41.7613 220.635 41.563C220.975 41.3647 221.352 41.2655 221.765 41.2655C222.173 41.2655 222.528 41.3533 222.828 41.529C223.128 41.7047 223.352 41.9257 223.499 42.192V41.342H224.281V46H223.499V45.133C223.346 45.405 223.117 45.6317 222.811 45.813C222.511 45.9887 222.159 46.0765 221.757 46.0765C221.343 46.0765 220.969 45.9745 220.635 45.7705C220.301 45.5665 220.037 45.2803 219.844 44.912C219.652 44.5437 219.555 44.1243 219.555 43.654ZM223.499 43.6625C223.499 43.3112 223.429 43.0052 223.287 42.7445C223.145 42.4838 222.953 42.2855 222.709 42.1495C222.471 42.0078 222.207 41.937 221.918 41.937C221.629 41.937 221.366 42.005 221.128 42.141C220.89 42.277 220.7 42.4753 220.558 42.736C220.417 42.9967 220.346 43.3027 220.346 43.654C220.346 44.011 220.417 44.3227 220.558 44.589C220.7 44.8497 220.89 45.0508 221.128 45.1925C221.366 45.3285 221.629 45.3965 221.918 45.3965C222.207 45.3965 222.471 45.3285 222.709 45.1925C222.953 45.0508 223.145 44.8497 223.287 44.589C223.429 44.3227 223.499 44.0138 223.499 43.6625ZM229.601 41.342L226.796 48.193H225.997L226.915 45.949L225.036 41.342H225.895L227.357 45.116L228.802 41.342H229.601ZM232.027 46.0765C231.67 46.0765 231.35 46.017 231.067 45.898C230.783 45.7733 230.559 45.6033 230.395 45.388C230.231 45.167 230.14 44.9148 230.123 44.6315H230.922C230.945 44.8638 231.052 45.0537 231.245 45.201C231.443 45.3483 231.701 45.422 232.019 45.422C232.313 45.422 232.546 45.3568 232.716 45.2265C232.886 45.0962 232.971 44.9318 232.971 44.7335C232.971 44.5295 232.88 44.3793 232.699 44.283C232.517 44.181 232.237 44.0818 231.857 43.9855C231.511 43.8948 231.228 43.8042 231.007 43.7135C230.792 43.6172 230.605 43.4783 230.446 43.297C230.293 43.11 230.217 42.8663 230.217 42.566C230.217 42.328 230.287 42.1098 230.429 41.9115C230.571 41.7132 230.772 41.5573 231.033 41.444C231.293 41.325 231.591 41.2655 231.925 41.2655C232.441 41.2655 232.857 41.3958 233.175 41.6565C233.492 41.9172 233.662 42.2742 233.685 42.7275H232.911C232.894 42.4838 232.795 42.2883 232.614 42.141C232.438 41.9937 232.2 41.92 231.9 41.92C231.622 41.92 231.401 41.9795 231.237 42.0985C231.072 42.2175 230.99 42.3733 230.99 42.566C230.99 42.719 231.038 42.8465 231.135 42.9485C231.237 43.0448 231.361 43.1242 231.509 43.1865C231.662 43.2432 231.871 43.3083 232.138 43.382C232.472 43.4727 232.744 43.5633 232.954 43.654C233.163 43.739 233.342 43.8693 233.489 44.045C233.642 44.2207 233.721 44.4502 233.727 44.7335C233.727 44.9885 233.656 45.218 233.515 45.422C233.373 45.626 233.172 45.7875 232.911 45.9065C232.656 46.0198 232.361 46.0765 232.027 46.0765Z" fill="#6A737C"/>
<circle cx="182" cy="43" r="2" fill="#078669"/>
<path d="M137.448 17.66V23.672C137.448 24.416 137.22 25.004 136.764 25.436C136.316 25.868 135.724 26.084 134.988 26.084C134.252 26.084 133.656 25.868 133.2 25.436C132.752 25.004 132.528 24.416 132.528 23.672H133.908C133.916 24.04 134.008 24.332 134.184 24.548C134.368 24.764 134.636 24.872 134.988 24.872C135.34 24.872 135.608 24.764 135.792 24.548C135.976 24.324 136.068 24.032 136.068 23.672V17.66H137.448ZM139.217 22.664C139.217 22 139.353 21.412 139.625 20.9C139.905 20.388 140.281 19.992 140.753 19.712C141.233 19.424 141.761 19.28 142.337 19.28C142.857 19.28 143.309 19.384 143.693 19.592C144.085 19.792 144.397 20.044 144.629 20.348V19.388H146.009V26H144.629V25.016C144.397 25.328 144.081 25.588 143.681 25.796C143.281 26.004 142.825 26.108 142.313 26.108C141.745 26.108 141.225 25.964 140.753 25.676C140.281 25.38 139.905 24.972 139.625 24.452C139.353 23.924 139.217 23.328 139.217 22.664ZM144.629 22.688C144.629 22.232 144.533 21.836 144.341 21.5C144.157 21.164 143.913 20.908 143.609 20.732C143.305 20.556 142.977 20.468 142.625 20.468C142.273 20.468 141.945 20.556 141.641 20.732C141.337 20.9 141.089 21.152 140.897 21.488C140.713 21.816 140.621 22.208 140.621 22.664C140.621 23.12 140.713 23.52 140.897 23.864C141.089 24.208 141.337 24.472 141.641 24.656C141.953 24.832 142.281 24.92 142.625 24.92C142.977 24.92 143.305 24.832 143.609 24.656C143.913 24.48 144.157 24.224 144.341 23.888C144.533 23.544 144.629 23.144 144.629 22.688ZM150.362 24.776L152.234 19.388H153.686L151.166 26H149.534L147.026 19.388H148.49L150.362 24.776ZM154.264 22.664C154.264 22 154.4 21.412 154.672 20.9C154.952 20.388 155.328 19.992 155.8 19.712C156.28 19.424 156.808 19.28 157.384 19.28C157.904 19.28 158.356 19.384 158.74 19.592C159.132 19.792 159.444 20.044 159.676 20.348V19.388H161.056V26H159.676V25.016C159.444 25.328 159.128 25.588 158.728 25.796C158.328 26.004 157.872 26.108 157.36 26.108C156.792 26.108 156.272 25.964 155.8 25.676C155.328 25.38 154.952 24.972 154.672 24.452C154.4 23.924 154.264 23.328 154.264 22.664ZM159.676 22.688C159.676 22.232 159.58 21.836 159.388 21.5C159.204 21.164 158.96 20.908 158.656 20.732C158.352 20.556 158.024 20.468 157.672 20.468C157.32 20.468 156.992 20.556 156.688 20.732C156.384 20.9 156.136 21.152 155.944 21.488C155.76 21.816 155.668 22.208 155.668 22.664C155.668 23.12 155.76 23.52 155.944 23.864C156.136 24.208 156.384 24.472 156.688 24.656C157 24.832 157.328 24.92 157.672 24.92C158.024 24.92 158.352 24.832 158.656 24.656C158.96 24.48 159.204 24.224 159.388 23.888C159.58 23.544 159.676 23.144 159.676 22.688ZM165.601 26.084C165.041 26.084 164.537 25.988 164.089 25.796C163.641 25.596 163.289 25.316 163.033 24.956C162.777 24.596 162.649 24.176 162.649 23.696H164.113C164.145 24.056 164.285 24.352 164.533 24.584C164.789 24.816 165.145 24.932 165.601 24.932C166.073 24.932 166.441 24.82 166.705 24.596C166.969 24.364 167.101 24.068 167.101 23.708C167.101 23.428 167.017 23.2 166.849 23.024C166.689 22.848 166.485 22.712 166.237 22.616C165.997 22.52 165.661 22.416 165.229 22.304C164.685 22.16 164.241 22.016 163.897 21.872C163.561 21.72 163.273 21.488 163.033 21.176C162.793 20.864 162.673 20.448 162.673 19.928C162.673 19.448 162.793 19.028 163.033 18.668C163.273 18.308 163.609 18.032 164.041 17.84C164.473 17.648 164.973 17.552 165.541 17.552C166.349 17.552 167.009 17.756 167.521 18.164C168.041 18.564 168.329 19.116 168.385 19.82H166.873C166.849 19.516 166.705 19.256 166.441 19.04C166.177 18.824 165.829 18.716 165.397 18.716C165.005 18.716 164.685 18.816 164.437 19.016C164.189 19.216 164.065 19.504 164.065 19.88C164.065 20.136 164.141 20.348 164.293 20.516C164.453 20.676 164.653 20.804 164.893 20.9C165.133 20.996 165.461 21.1 165.877 21.212C166.429 21.364 166.877 21.516 167.221 21.668C167.573 21.82 167.869 22.056 168.109 22.376C168.357 22.688 168.481 23.108 168.481 23.636C168.481 24.06 168.365 24.46 168.133 24.836C167.909 25.212 167.577 25.516 167.137 25.748C166.705 25.972 166.193 26.084 165.601 26.084ZM169.639 22.688C169.639 22.008 169.775 21.412 170.047 20.9C170.327 20.38 170.711 19.98 171.199 19.7C171.687 19.42 172.247 19.28 172.879 19.28C173.679 19.28 174.339 19.472 174.859 19.856C175.387 20.232 175.743 20.772 175.927 21.476H174.451C174.331 21.148 174.139 20.892 173.875 20.708C173.611 20.524 173.279 20.432 172.879 20.432C172.319 20.432 171.871 20.632 171.535 21.032C171.207 21.424 171.043 21.976 171.043 22.688C171.043 23.4 171.207 23.956 171.535 24.356C171.871 24.756 172.319 24.956 172.879 24.956C173.671 24.956 174.195 24.608 174.451 23.912H175.927C175.735 24.584 175.375 25.12 174.847 25.52C174.319 25.912 173.663 26.108 172.879 26.108C172.247 26.108 171.687 25.968 171.199 25.688C170.711 25.4 170.327 25 170.047 24.488C169.775 23.968 169.639 23.368 169.639 22.688ZM178.659 20.348C178.859 20.012 179.123 19.752 179.451 19.568C179.787 19.376 180.183 19.28 180.639 19.28V20.696H180.291C179.755 20.696 179.347 20.832 179.067 21.104C178.795 21.376 178.659 21.848 178.659 22.52V26H177.291V19.388H178.659V20.348ZM182.592 18.512C182.344 18.512 182.136 18.428 181.968 18.26C181.8 18.092 181.716 17.884 181.716 17.636C181.716 17.388 181.8 17.18 181.968 17.012C182.136 16.844 182.344 16.76 182.592 16.76C182.832 16.76 183.036 16.844 183.204 17.012C183.372 17.18 183.456 17.388 183.456 17.636C183.456 17.884 183.372 18.092 183.204 18.26C183.036 18.428 182.832 18.512 182.592 18.512ZM183.264 19.388V26H181.896V19.388H183.264ZM186.428 20.36C186.66 20.056 186.976 19.8 187.376 19.592C187.776 19.384 188.228 19.28 188.732 19.28C189.308 19.28 189.832 19.424 190.304 19.712C190.784 19.992 191.16 20.388 191.432 20.9C191.704 21.412 191.84 22 191.84 22.664C191.84 23.328 191.704 23.924 191.432 24.452C191.16 24.972 190.784 25.38 190.304 25.676C189.832 25.964 189.308 26.108 188.732 26.108C188.228 26.108 187.78 26.008 187.388 25.808C186.996 25.6 186.676 25.344 186.428 25.04V29.144H185.06V19.388H186.428V20.36ZM190.448 22.664C190.448 22.208 190.352 21.816 190.16 21.488C189.976 21.152 189.728 20.9 189.416 20.732C189.112 20.556 188.784 20.468 188.432 20.468C188.088 20.468 187.76 20.556 187.448 20.732C187.144 20.908 186.896 21.164 186.704 21.5C186.52 21.836 186.428 22.232 186.428 22.688C186.428 23.144 186.52 23.544 186.704 23.888C186.896 24.224 187.144 24.48 187.448 24.656C187.76 24.832 188.088 24.92 188.432 24.92C188.784 24.92 189.112 24.832 189.416 24.656C189.728 24.472 189.976 24.208 190.16 23.864C190.352 23.52 190.448 23.12 190.448 22.664ZM194.789 20.504V24.164C194.789 24.412 194.845 24.592 194.957 24.704C195.077 24.808 195.277 24.86 195.557 24.86H196.397V26H195.317C194.701 26 194.229 25.856 193.901 25.568C193.573 25.28 193.409 24.812 193.409 24.164V20.504H192.629V19.388H193.409V17.744H194.789V19.388H196.397V20.504H194.789Z" fill="#1D2746"/>
</svg>
