<svg width="327" height="87" viewBox="0 0 327 87" fill="none" xmlns="http://www.w3.org/2000/svg">
<rect width="327" height="87" rx="12" fill="#F1F1F1"/>
<rect x="1" y="1" width="325" height="84" rx="12" fill="white"/>
<path d="M1 12C1 5.37258 6.37258 0 13 0H116V85H13C6.37258 85 1 79.6274 1 73V12Z" fill="#078669"/>
<path d="M35.7747 48.3358C37.7425 48.3358 39.2116 47.9672 40.1411 47.2405C41.0606 46.5214 41.6957 45.2754 42.0286 43.5374C42.339 41.9128 42.2207 40.7785 41.6773 40.1663C41.1216 39.5411 39.9202 39.224 38.1066 39.224H34.9618L33.2185 48.3358H35.7747ZM25.4892 59.5598C25.3432 59.5598 25.2046 59.4935 25.1118 59.3789C25.0188 59.2644 24.9811 59.1137 25.009 58.968L29.6293 34.8217C29.674 34.5883 29.8754 34.4196 30.1096 34.4196H40.0675C43.1971 34.4196 45.5265 35.2828 46.9906 36.9854C48.4626 38.6969 48.9171 41.0893 48.3416 44.096C48.1073 45.3209 47.7045 46.4586 47.1442 47.4771C46.5833 48.4968 45.8421 49.4403 44.9406 50.2819C43.8615 51.3077 42.6402 52.0516 41.3139 52.4892C40.0086 52.9211 38.3323 53.1402 36.3315 53.1402H32.2994L31.1479 59.1576C31.1032 59.3911 30.902 59.5598 30.6677 59.5598H25.4892Z" fill="white"/>
<path d="M60.6206 53.1402C60.4763 53.1402 60.3396 53.0739 60.248 52.9592C60.1561 52.8448 60.1189 52.6942 60.1464 52.5484L62.164 41.8646C62.356 40.8486 62.3086 40.1193 62.0309 39.8112C61.8608 39.6228 61.3501 39.3069 59.84 39.3069H56.1848L53.6481 52.7379C53.604 52.9715 53.4051 53.1402 53.1739 53.1402H48.1021C47.9578 53.1402 47.8211 53.0739 47.7294 52.9592C47.6376 52.8448 47.6004 52.694 47.6279 52.5484L52.189 28.4021C52.2331 28.1687 52.432 28 52.6632 28H57.735C57.8792 28 58.0159 28.0663 58.1077 28.1807C58.1995 28.2954 58.2367 28.446 58.2092 28.5918L57.1085 34.4196H61.0407C64.0363 34.4196 66.0675 34.963 67.2506 36.081C68.4566 37.2214 68.8329 39.0449 68.3692 41.5015L66.2471 52.7379C66.203 52.9715 66.0043 53.1402 65.7729 53.1402H60.6206Z" fill="white"/>
<path d="M77.7052 48.3358C79.7485 48.3358 81.2739 47.9672 82.239 47.2405C83.1939 46.5215 83.8533 45.2756 84.1992 43.5374C84.5215 41.9128 84.3987 40.7785 83.8342 40.1663C83.2572 39.5411 82.0097 39.224 80.1265 39.224H76.8611L75.0508 48.3358H77.7052ZM67.0251 59.5598C66.8735 59.5598 66.7296 59.4935 66.6332 59.3789C66.5367 59.2644 66.4974 59.1137 66.5264 58.968L71.3239 34.8217C71.3705 34.5883 71.5795 34.4196 71.8228 34.4196H82.1626C85.4125 34.4196 87.831 35.2828 89.3515 36.9854C90.88 38.6967 91.3518 41.0891 90.7543 44.096C90.5108 45.3209 90.0926 46.4586 89.5109 47.4771C88.9285 48.4968 88.1587 49.4403 87.2227 50.2819C86.1022 51.3077 84.8341 52.0516 83.4569 52.4892C82.1015 52.9211 80.3608 53.1402 78.2833 53.1402H74.0963L72.9011 59.1576C72.8546 59.3911 72.6456 59.5598 72.4022 59.5598H67.0251Z" fill="white"/>
<rect x="85" y="6" width="25" height="12" rx="2" fill="#078669"/>
<path d="M90.4887 10.16V9.662H91.6167V14H91.0647V10.16H90.4887ZM92.5546 11.786C92.5546 11.098 92.6666 10.562 92.8906 10.178C93.1146 9.79 93.5066 9.596 94.0666 9.596C94.6226 9.596 95.0126 9.79 95.2366 10.178C95.4606 10.562 95.5726 11.098 95.5726 11.786C95.5726 12.486 95.4606 13.03 95.2366 13.418C95.0126 13.806 94.6226 14 94.0666 14C93.5066 14 93.1146 13.806 92.8906 13.418C92.6666 13.03 92.5546 12.486 92.5546 11.786ZM95.0326 11.786C95.0326 11.438 95.0086 11.144 94.9606 10.904C94.9166 10.66 94.8226 10.464 94.6786 10.316C94.5386 10.168 94.3346 10.094 94.0666 10.094C93.7946 10.094 93.5866 10.168 93.4426 10.316C93.3026 10.464 93.2086 10.66 93.1606 10.904C93.1166 11.144 93.0946 11.438 93.0946 11.786C93.0946 12.146 93.1166 12.448 93.1606 12.692C93.2086 12.936 93.3026 13.132 93.4426 13.28C93.5866 13.428 93.7946 13.502 94.0666 13.502C94.3346 13.502 94.5386 13.428 94.6786 13.28C94.8226 13.132 94.9166 12.936 94.9606 12.692C95.0086 12.448 95.0326 12.146 95.0326 11.786ZM97.8078 12.344C97.8078 12.008 97.8758 11.714 98.0118 11.462C98.1478 11.206 98.3338 11.008 98.5698 10.868C98.8098 10.728 99.0778 10.658 99.3738 10.658C99.6578 10.658 99.9058 10.722 100.118 10.85C100.334 10.974 100.492 11.128 100.592 11.312V10.712H101.144V15.56H100.592V13.394C100.488 13.578 100.328 13.734 100.112 13.862C99.8958 13.99 99.6438 14.054 99.3558 14.054C99.0678 14.054 98.8058 13.982 98.5698 13.838C98.3338 13.694 98.1478 13.492 98.0118 13.232C97.8758 12.972 97.8078 12.676 97.8078 12.344ZM100.592 12.35C100.592 12.102 100.542 11.886 100.442 11.702C100.342 11.518 100.206 11.378 100.034 11.282C99.8658 11.182 99.6798 11.132 99.4758 11.132C99.2718 11.132 99.0858 11.18 98.9178 11.276C98.7498 11.372 98.6158 11.512 98.5158 11.696C98.4158 11.88 98.3658 12.096 98.3658 12.344C98.3658 12.596 98.4158 12.816 98.5158 13.004C98.6158 13.188 98.7498 13.33 98.9178 13.43C99.0858 13.526 99.2718 13.574 99.4758 13.574C99.6798 13.574 99.8658 13.526 100.034 13.43C100.206 13.33 100.342 13.188 100.442 13.004C100.542 12.816 100.592 12.598 100.592 12.35ZM103.23 14.054C102.978 14.054 102.752 14.012 102.552 13.928C102.352 13.84 102.194 13.72 102.078 13.568C101.962 13.412 101.898 13.234 101.886 13.034H102.45C102.466 13.198 102.542 13.332 102.678 13.436C102.818 13.54 103 13.592 103.224 13.592C103.432 13.592 103.596 13.546 103.716 13.454C103.836 13.362 103.896 13.246 103.896 13.106C103.896 12.962 103.832 12.856 103.704 12.788C103.576 12.716 103.378 12.646 103.11 12.578C102.866 12.514 102.666 12.45 102.51 12.386C102.358 12.318 102.226 12.22 102.114 12.092C102.006 11.96 101.952 11.788 101.952 11.576C101.952 11.408 102.002 11.254 102.102 11.114C102.202 10.974 102.344 10.864 102.528 10.784C102.712 10.7 102.922 10.658 103.158 10.658C103.522 10.658 103.816 10.75 104.04 10.934C104.264 11.118 104.384 11.37 104.4 11.69H103.854C103.842 11.518 103.772 11.38 103.644 11.276C103.52 11.172 103.352 11.12 103.14 11.12C102.944 11.12 102.788 11.162 102.672 11.246C102.556 11.33 102.498 11.44 102.498 11.576C102.498 11.684 102.532 11.774 102.6 11.846C102.672 11.914 102.76 11.97 102.864 12.014C102.972 12.054 103.12 12.1 103.308 12.152C103.544 12.216 103.736 12.28 103.884 12.344C104.032 12.404 104.158 12.496 104.262 12.62C104.37 12.744 104.426 12.906 104.43 13.106C104.43 13.286 104.38 13.448 104.28 13.592C104.18 13.736 104.038 13.85 103.854 13.934C103.674 14.014 103.466 14.054 103.23 14.054Z" fill="white"/>
<path d="M140.865 61.381C140.865 62.1569 140.236 62.7858 139.46 62.7858V63.7858C140.788 63.7858 141.865 62.7091 141.865 61.381H140.865ZM139.46 62.7858C138.684 62.7858 138.055 62.1569 138.055 61.381H137.055C137.055 62.7091 138.132 63.7858 139.46 63.7858V62.7858ZM138.055 61.381C138.055 60.6052 138.684 59.9763 139.46 59.9763V58.9763C138.132 58.9763 137.055 60.0529 137.055 61.381H138.055ZM139.46 59.9763C140.236 59.9763 140.865 60.6052 140.865 61.381H141.865C141.865 60.0529 140.788 58.9763 139.46 58.9763V59.9763ZM137.555 65.6905H141.365V64.6905H137.555V65.6905ZM141.365 68.5H137.555V69.5H141.365V68.5ZM137.555 68.5C136.78 68.5 136.151 67.8711 136.151 67.0953H135.151C135.151 68.4234 136.227 69.5 137.555 69.5V68.5ZM142.77 67.0953C142.77 67.8711 142.141 68.5 141.365 68.5V69.5C142.693 69.5 143.77 68.4234 143.77 67.0953H142.77ZM141.365 65.6905C142.141 65.6905 142.77 66.3195 142.77 67.0953H143.77C143.77 65.7672 142.693 64.6905 141.365 64.6905V65.6905ZM137.555 64.6905C136.227 64.6905 135.151 65.7672 135.151 67.0953H136.151C136.151 66.3195 136.78 65.6905 137.555 65.6905V64.6905Z" fill="#6A737C"/>
<path d="M136.763 63.0563C136.663 62.8954 136.475 62.8095 136.286 62.8095C135.497 62.8095 134.857 62.1699 134.857 61.3809C134.857 60.592 135.497 59.9524 136.286 59.9524C136.475 59.9524 136.663 59.8665 136.763 59.7056C136.768 59.6985 136.772 59.6914 136.777 59.6843C136.943 59.4211 136.859 59.0485 136.549 59.0144C136.463 59.0049 136.375 59 136.286 59C134.971 59 133.905 60.066 133.905 61.3809C133.905 62.6959 134.971 63.7619 136.286 63.7619C136.375 63.7619 136.463 63.757 136.549 63.7475C136.859 63.7134 136.943 63.3407 136.777 63.0775C136.772 63.0705 136.768 63.0634 136.763 63.0563Z" fill="#6A737C"/>
<path d="M134.831 68.09C134.759 67.9698 134.631 67.8888 134.491 67.8888H134.381C133.592 67.8888 132.952 67.2492 132.952 66.4603C132.952 65.6713 133.592 65.0317 134.381 65.0317H134.491C134.631 65.0317 134.759 64.9508 134.831 64.8305C135.007 64.537 134.816 64.0793 134.473 64.0793H134.381C133.066 64.0793 132 65.1453 132 66.4603C132 67.7752 133.066 68.8412 134.381 68.8412H134.473C134.816 68.8412 135.007 68.3835 134.831 68.09Z" fill="#6A737C"/>
<path d="M142.144 63.0775C141.977 63.3407 142.062 63.7134 142.371 63.7475C142.458 63.757 142.546 63.7619 142.635 63.7619C143.95 63.7619 145.016 62.6959 145.016 61.3809C145.016 60.066 143.95 59 142.635 59C142.546 59 142.458 59.0049 142.371 59.0144C142.062 59.0485 141.977 59.4211 142.144 59.6843C142.148 59.6914 142.153 59.6985 142.157 59.7056C142.257 59.8665 142.445 59.9524 142.635 59.9524C143.424 59.9524 144.063 60.592 144.063 61.3809C144.063 62.1699 143.424 62.8095 142.635 62.8095C142.445 62.8095 142.257 62.8954 142.157 63.0563C142.153 63.0634 142.148 63.0705 142.144 63.0775Z" fill="#6A737C"/>
<path d="M144.09 68.09C143.914 68.3835 144.105 68.8412 144.447 68.8412H144.54C145.855 68.8412 146.921 67.7752 146.921 66.4603C146.921 65.1453 145.855 64.0793 144.54 64.0793H144.447C144.105 64.0793 143.914 64.537 144.09 64.8305C144.162 64.9508 144.289 65.0317 144.429 65.0317H144.54C145.329 65.0317 145.968 65.6713 145.968 66.4603C145.968 67.2492 145.329 67.8888 144.54 67.8888H144.429C144.289 67.8888 144.162 67.9698 144.09 68.09Z" fill="#6A737C"/>
<path d="M156.165 62.8095C156.165 63.3025 155.995 63.7133 155.655 64.042C155.321 64.365 154.808 64.5265 154.117 64.5265H152.978V67H152.204V61.0755H154.117C154.785 61.0755 155.293 61.237 155.638 61.56C155.99 61.883 156.165 62.2995 156.165 62.8095ZM154.117 63.889C154.547 63.889 154.865 63.7955 155.069 63.6085C155.273 63.4215 155.375 63.1552 155.375 62.8095C155.375 62.0785 154.955 61.713 154.117 61.713H152.978V63.889H154.117ZM161.258 62.342V67H160.484V66.3115C160.337 66.5495 160.13 66.7365 159.864 66.8725C159.603 67.0028 159.314 67.068 158.997 67.068C158.634 67.068 158.308 66.9943 158.019 66.847C157.73 66.694 157.501 66.4673 157.331 66.167C157.166 65.8667 157.084 65.5012 157.084 65.0705V62.342H157.849V64.9685C157.849 65.4275 157.965 65.7817 158.198 66.031C158.43 66.2747 158.747 66.3965 159.15 66.3965C159.563 66.3965 159.889 66.269 160.127 66.014C160.365 65.759 160.484 65.3878 160.484 64.9005V62.342H161.258ZM163.337 63.209C163.496 62.9313 163.728 62.7047 164.034 62.529C164.34 62.3533 164.689 62.2655 165.08 62.2655C165.499 62.2655 165.876 62.3647 166.21 62.563C166.545 62.7613 166.808 63.0418 167.001 63.4045C167.193 63.7615 167.29 64.178 167.29 64.654C167.29 65.1243 167.193 65.5437 167.001 65.912C166.808 66.2803 166.542 66.5665 166.202 66.7705C165.867 66.9745 165.493 67.0765 165.08 67.0765C164.677 67.0765 164.323 66.9887 164.017 66.813C163.717 66.6373 163.49 66.4135 163.337 66.1415V67H162.564V60.71H163.337V63.209ZM166.499 64.654C166.499 64.3027 166.428 63.9967 166.287 63.736C166.145 63.4753 165.952 63.277 165.709 63.141C165.471 63.005 165.207 62.937 164.918 62.937C164.635 62.937 164.371 63.0078 164.128 63.1495C163.89 63.2855 163.697 63.4867 163.55 63.753C163.408 64.0137 163.337 64.3168 163.337 64.6625C163.337 65.0138 163.408 65.3227 163.55 65.589C163.697 65.8497 163.89 66.0508 164.128 66.1925C164.371 66.3285 164.635 66.3965 164.918 66.3965C165.207 66.3965 165.471 66.3285 165.709 66.1925C165.952 66.0508 166.145 65.8497 166.287 65.589C166.428 65.3227 166.499 65.011 166.499 64.654ZM169.081 60.71V67H168.308V60.71H169.081ZM170.799 61.5855C170.652 61.5855 170.527 61.5345 170.425 61.4325C170.323 61.3305 170.272 61.2058 170.272 61.0585C170.272 60.9112 170.323 60.7865 170.425 60.6845C170.527 60.5825 170.652 60.5315 170.799 60.5315C170.941 60.5315 171.06 60.5825 171.156 60.6845C171.258 60.7865 171.309 60.9112 171.309 61.0585C171.309 61.2058 171.258 61.3305 171.156 61.4325C171.06 61.5345 170.941 61.5855 170.799 61.5855ZM171.173 62.342V67H170.4V62.342H171.173ZM172.202 64.6625C172.202 64.1808 172.299 63.7615 172.491 63.4045C172.684 63.0418 172.95 62.7613 173.29 62.563C173.636 62.3647 174.03 62.2655 174.472 62.2655C175.044 62.2655 175.515 62.4043 175.883 62.682C176.257 62.9597 176.503 63.345 176.622 63.838H175.789C175.71 63.5547 175.554 63.3308 175.322 63.1665C175.095 63.0022 174.812 62.92 174.472 62.92C174.03 62.92 173.673 63.073 173.401 63.379C173.129 63.6793 172.993 64.1072 172.993 64.6625C172.993 65.2235 173.129 65.657 173.401 65.963C173.673 66.269 174.03 66.422 174.472 66.422C174.812 66.422 175.095 66.3427 175.322 66.184C175.549 66.0253 175.704 65.7987 175.789 65.504H176.622C176.498 65.98 176.248 66.3625 175.874 66.6515C175.5 66.9348 175.033 67.0765 174.472 67.0765C174.03 67.0765 173.636 66.9773 173.29 66.779C172.95 66.5807 172.684 66.3002 172.491 65.9375C172.299 65.5748 172.202 65.1498 172.202 64.6625Z" fill="#6A737C"/>
<path d="M133.254 40.56V39.8545H134.852V46H134.07V40.56H133.254ZM144.779 41.342L143.325 46H142.526L141.404 42.3025L140.282 46H139.483L138.021 41.342H138.812L139.883 45.252L141.039 41.342H141.829L142.96 45.2605L144.014 41.342H144.779ZM149.797 43.4925C149.797 43.6398 149.788 43.7957 149.771 43.96H146.048C146.076 44.419 146.232 44.7788 146.516 45.0395C146.805 45.2945 147.153 45.422 147.561 45.422C147.895 45.422 148.173 45.3455 148.394 45.1925C148.621 45.0338 148.779 44.8242 148.87 44.5635H149.703C149.578 45.0112 149.329 45.3767 148.955 45.66C148.581 45.9377 148.116 46.0765 147.561 46.0765C147.119 46.0765 146.722 45.9773 146.371 45.779C146.025 45.5807 145.753 45.3002 145.555 44.9375C145.357 44.5692 145.258 44.1442 145.258 43.6625C145.258 43.1808 145.354 42.7587 145.547 42.396C145.739 42.0333 146.008 41.7557 146.354 41.563C146.705 41.3647 147.108 41.2655 147.561 41.2655C148.003 41.2655 148.394 41.3618 148.734 41.5545C149.074 41.7472 149.335 42.0135 149.516 42.3535C149.703 42.6878 149.797 43.0675 149.797 43.4925ZM148.998 43.331C148.998 43.0363 148.932 42.7842 148.802 42.5745C148.672 42.3592 148.493 42.1977 148.267 42.09C148.046 41.9767 147.799 41.92 147.527 41.92C147.136 41.92 146.802 42.0447 146.524 42.294C146.252 42.5433 146.096 42.889 146.057 43.331H148.998ZM155.068 43.4925C155.068 43.6398 155.059 43.7957 155.042 43.96H151.319C151.347 44.419 151.503 44.7788 151.787 45.0395C152.076 45.2945 152.424 45.422 152.832 45.422C153.166 45.422 153.444 45.3455 153.665 45.1925C153.892 45.0338 154.05 44.8242 154.141 44.5635H154.974C154.849 45.0112 154.6 45.3767 154.226 45.66C153.852 45.9377 153.387 46.0765 152.832 46.0765C152.39 46.0765 151.993 45.9773 151.642 45.779C151.296 45.5807 151.024 45.3002 150.826 44.9375C150.628 44.5692 150.529 44.1442 150.529 43.6625C150.529 43.1808 150.625 42.7587 150.818 42.396C151.01 42.0333 151.279 41.7557 151.625 41.563C151.976 41.3647 152.379 41.2655 152.832 41.2655C153.274 41.2655 153.665 41.3618 154.005 41.5545C154.345 41.7472 154.606 42.0135 154.787 42.3535C154.974 42.6878 155.068 43.0675 155.068 43.4925ZM154.269 43.331C154.269 43.0363 154.203 42.7842 154.073 42.5745C153.943 42.3592 153.764 42.1977 153.538 42.09C153.317 41.9767 153.07 41.92 152.798 41.92C152.407 41.92 152.073 42.0447 151.795 42.294C151.523 42.5433 151.367 42.889 151.328 43.331H154.269ZM158.69 46L156.862 43.943V46H156.089V39.71H156.862V43.4075L158.656 41.342H159.735L157.542 43.6625L159.744 46H158.69ZM162.44 43.654C162.44 43.178 162.537 42.7615 162.729 42.4045C162.922 42.0418 163.185 41.7613 163.52 41.563C163.86 41.3647 164.237 41.2655 164.65 41.2655C165.058 41.2655 165.412 41.3533 165.713 41.529C166.013 41.7047 166.237 41.9257 166.384 42.192V41.342H167.166V46H166.384V45.133C166.231 45.405 166.002 45.6317 165.696 45.813C165.395 45.9887 165.044 46.0765 164.642 46.0765C164.228 46.0765 163.854 45.9745 163.52 45.7705C163.185 45.5665 162.922 45.2803 162.729 44.912C162.537 44.5437 162.44 44.1243 162.44 43.654ZM166.384 43.6625C166.384 43.3112 166.313 43.0052 166.172 42.7445C166.03 42.4838 165.837 42.2855 165.594 42.1495C165.356 42.0078 165.092 41.937 164.803 41.937C164.514 41.937 164.251 42.005 164.013 42.141C163.775 42.277 163.585 42.4753 163.443 42.736C163.302 42.9967 163.231 43.3027 163.231 43.654C163.231 44.011 163.302 44.3227 163.443 44.589C163.585 44.8497 163.775 45.0508 164.013 45.1925C164.251 45.3285 164.514 45.3965 164.803 45.3965C165.092 45.3965 165.356 45.3285 165.594 45.1925C165.837 45.0508 166.03 44.8497 166.172 44.589C166.313 44.3227 166.384 44.0138 166.384 43.6625ZM170.394 41.2655C170.797 41.2655 171.148 41.3533 171.448 41.529C171.754 41.7047 171.981 41.9257 172.128 42.192V41.342H172.91V46.102C172.91 46.527 172.82 46.9038 172.638 47.2325C172.457 47.5668 172.196 47.8275 171.856 48.0145C171.522 48.2015 171.131 48.295 170.683 48.295C170.071 48.295 169.561 48.1505 169.153 47.8615C168.745 47.5725 168.505 47.1787 168.431 46.68H169.196C169.281 46.9633 169.457 47.19 169.723 47.36C169.989 47.5357 170.309 47.6235 170.683 47.6235C171.108 47.6235 171.454 47.4903 171.72 47.224C171.992 46.9577 172.128 46.5837 172.128 46.102V45.1245C171.975 45.3965 171.749 45.6232 171.448 45.8045C171.148 45.9858 170.797 46.0765 170.394 46.0765C169.981 46.0765 169.604 45.9745 169.264 45.7705C168.93 45.5665 168.666 45.2803 168.473 44.912C168.281 44.5437 168.184 44.1243 168.184 43.654C168.184 43.178 168.281 42.7615 168.473 42.4045C168.666 42.0418 168.93 41.7613 169.264 41.563C169.604 41.3647 169.981 41.2655 170.394 41.2655ZM172.128 43.6625C172.128 43.3112 172.058 43.0052 171.916 42.7445C171.774 42.4838 171.582 42.2855 171.338 42.1495C171.1 42.0078 170.836 41.937 170.547 41.937C170.258 41.937 169.995 42.005 169.757 42.141C169.519 42.277 169.329 42.4753 169.187 42.736C169.046 42.9967 168.975 43.3027 168.975 43.654C168.975 44.011 169.046 44.3227 169.187 44.589C169.329 44.8497 169.519 45.0508 169.757 45.1925C169.995 45.3285 170.258 45.3965 170.547 45.3965C170.836 45.3965 171.1 45.3285 171.338 45.1925C171.582 45.0508 171.774 44.8497 171.916 44.589C172.058 44.3227 172.128 44.0138 172.128 43.6625ZM176.249 46.0765C175.813 46.0765 175.416 45.9773 175.059 45.779C174.708 45.5807 174.43 45.3002 174.226 44.9375C174.028 44.5692 173.928 44.1442 173.928 43.6625C173.928 43.1865 174.03 42.7672 174.234 42.4045C174.444 42.0362 174.727 41.7557 175.084 41.563C175.441 41.3647 175.841 41.2655 176.283 41.2655C176.725 41.2655 177.124 41.3647 177.481 41.563C177.838 41.7557 178.119 42.0333 178.323 42.396C178.533 42.7587 178.637 43.1808 178.637 43.6625C178.637 44.1442 178.53 44.5692 178.314 44.9375C178.105 45.3002 177.819 45.5807 177.456 45.779C177.093 45.9773 176.691 46.0765 176.249 46.0765ZM176.249 45.3965C176.527 45.3965 176.787 45.3313 177.031 45.201C177.275 45.0707 177.47 44.8752 177.617 44.6145C177.77 44.3538 177.847 44.0365 177.847 43.6625C177.847 43.2885 177.773 42.9712 177.626 42.7105C177.479 42.4498 177.286 42.2572 177.048 42.1325C176.81 42.0022 176.552 41.937 176.274 41.937C175.991 41.937 175.73 42.0022 175.492 42.1325C175.26 42.2572 175.073 42.4498 174.931 42.7105C174.79 42.9712 174.719 43.2885 174.719 43.6625C174.719 44.0422 174.787 44.3623 174.923 44.623C175.065 44.8837 175.252 45.0792 175.484 45.2095C175.716 45.3342 175.971 45.3965 176.249 45.3965Z" fill="#6A737C"/>
<path d="M193.51 41.4015C193.55 40.8802 193.751 40.4722 194.114 40.1775C194.476 39.8828 194.947 39.7355 195.525 39.7355C195.91 39.7355 196.241 39.8063 196.519 39.948C196.802 40.084 197.015 40.271 197.157 40.509C197.304 40.747 197.378 41.0162 197.378 41.3165C197.378 41.6678 197.276 41.971 197.072 42.226C196.873 42.481 196.613 42.6453 196.29 42.719V42.7615C196.658 42.8522 196.95 43.0307 197.165 43.297C197.38 43.5633 197.488 43.9118 197.488 44.3425C197.488 44.6655 197.414 44.9573 197.267 45.218C197.12 45.473 196.899 45.6742 196.604 45.8215C196.309 45.9688 195.955 46.0425 195.542 46.0425C194.941 46.0425 194.448 45.8867 194.062 45.575C193.677 45.2577 193.462 44.81 193.417 44.232H194.165C194.204 44.572 194.343 44.8497 194.581 45.065C194.819 45.2803 195.136 45.388 195.533 45.388C195.93 45.388 196.23 45.286 196.434 45.082C196.644 44.8723 196.749 44.6032 196.749 44.2745C196.749 43.8495 196.607 43.5435 196.324 43.3565C196.04 43.1695 195.612 43.076 195.04 43.076H194.845V42.43H195.049C195.57 42.4243 195.964 42.3393 196.23 42.175C196.496 42.005 196.63 41.7443 196.63 41.393C196.63 41.0927 196.53 40.8518 196.332 40.6705C196.139 40.4892 195.862 40.3985 195.499 40.3985C195.148 40.3985 194.864 40.4892 194.649 40.6705C194.434 40.8518 194.306 41.0955 194.267 41.4015H193.51ZM198.532 42.8635C198.532 41.8888 198.691 41.1295 199.008 40.5855C199.326 40.0358 199.881 39.761 200.674 39.761C201.462 39.761 202.015 40.0358 202.332 40.5855C202.649 41.1295 202.808 41.8888 202.808 42.8635C202.808 43.8552 202.649 44.6258 202.332 45.1755C202.015 45.7252 201.462 46 200.674 46C199.881 46 199.326 45.7252 199.008 45.1755C198.691 44.6258 198.532 43.8552 198.532 42.8635ZM202.043 42.8635C202.043 42.3705 202.009 41.954 201.941 41.614C201.879 41.2683 201.745 40.9907 201.541 40.781C201.343 40.5713 201.054 40.4665 200.674 40.4665C200.289 40.4665 199.994 40.5713 199.79 40.781C199.592 40.9907 199.459 41.2683 199.391 41.614C199.329 41.954 199.297 42.3705 199.297 42.8635C199.297 43.3735 199.329 43.8013 199.391 44.147C199.459 44.4927 199.592 44.7703 199.79 44.98C199.994 45.1897 200.289 45.2945 200.674 45.2945C201.054 45.2945 201.343 45.1897 201.541 44.98C201.745 44.7703 201.879 44.4927 201.941 44.147C202.009 43.8013 202.043 43.3735 202.043 42.8635ZM203.87 42.8635C203.87 41.8888 204.028 41.1295 204.346 40.5855C204.663 40.0358 205.218 39.761 206.012 39.761C206.799 39.761 207.352 40.0358 207.669 40.5855C207.987 41.1295 208.145 41.8888 208.145 42.8635C208.145 43.8552 207.987 44.6258 207.669 45.1755C207.352 45.7252 206.799 46 206.012 46C205.218 46 204.663 45.7252 204.346 45.1755C204.028 44.6258 203.87 43.8552 203.87 42.8635ZM207.38 42.8635C207.38 42.3705 207.346 41.954 207.278 41.614C207.216 41.2683 207.083 40.9907 206.879 40.781C206.68 40.5713 206.391 40.4665 206.012 40.4665C205.626 40.4665 205.332 40.5713 205.128 40.781C204.929 40.9907 204.796 41.2683 204.728 41.614C204.666 41.954 204.635 42.3705 204.635 42.8635C204.635 43.3735 204.666 43.8013 204.728 44.147C204.796 44.4927 204.929 44.7703 205.128 44.98C205.332 45.1897 205.626 45.2945 206.012 45.2945C206.391 45.2945 206.68 45.1897 206.879 44.98C207.083 44.7703 207.216 44.4927 207.278 44.147C207.346 43.8013 207.38 43.3735 207.38 42.8635ZM210.329 42.804C210.012 42.6793 209.768 42.498 209.598 42.26C209.428 42.022 209.343 41.733 209.343 41.393C209.343 41.087 209.42 40.8122 209.573 40.5685C209.726 40.3192 209.952 40.1237 210.253 39.982C210.559 39.8347 210.927 39.761 211.358 39.761C211.788 39.761 212.154 39.8347 212.454 39.982C212.76 40.1237 212.99 40.3192 213.143 40.5685C213.301 40.8122 213.381 41.087 213.381 41.393C213.381 41.7217 213.293 42.0107 213.117 42.26C212.942 42.5037 212.701 42.685 212.395 42.804C212.746 42.9117 213.024 43.1015 213.228 43.3735C213.437 43.6398 213.542 43.9628 213.542 44.3425C213.542 44.7108 213.452 45.0338 213.27 45.3115C213.089 45.5835 212.831 45.796 212.497 45.949C212.168 46.0963 211.788 46.17 211.358 46.17C210.927 46.17 210.547 46.0963 210.219 45.949C209.896 45.796 209.644 45.5835 209.462 45.3115C209.281 45.0338 209.19 44.7108 209.19 44.3425C209.19 43.9628 209.292 43.637 209.496 43.365C209.7 43.093 209.978 42.906 210.329 42.804ZM212.633 41.4865C212.633 41.1408 212.519 40.8745 212.293 40.6875C212.066 40.5005 211.754 40.407 211.358 40.407C210.967 40.407 210.658 40.5005 210.431 40.6875C210.205 40.8745 210.091 41.1437 210.091 41.495C210.091 41.8123 210.207 42.0673 210.44 42.26C210.678 42.4527 210.984 42.549 211.358 42.549C211.737 42.549 212.043 42.4527 212.276 42.26C212.514 42.0617 212.633 41.8038 212.633 41.4865ZM211.358 43.144C210.938 43.144 210.596 43.2432 210.329 43.4415C210.063 43.6342 209.93 43.926 209.93 44.317C209.93 44.6797 210.057 44.9715 210.312 45.1925C210.573 45.4135 210.921 45.524 211.358 45.524C211.794 45.524 212.14 45.4135 212.395 45.1925C212.65 44.9715 212.777 44.6797 212.777 44.317C212.777 43.9373 212.647 43.6483 212.386 43.45C212.126 43.246 211.783 43.144 211.358 43.144ZM215.564 44.351C215.621 44.674 215.751 44.9233 215.955 45.099C216.165 45.2747 216.445 45.3625 216.796 45.3625C217.267 45.3625 217.612 45.1783 217.833 44.81C218.06 44.4417 218.168 43.8212 218.156 42.9485C218.037 43.2035 217.839 43.4047 217.561 43.552C217.284 43.6937 216.975 43.7645 216.635 43.7645C216.255 43.7645 215.915 43.688 215.615 43.535C215.32 43.3763 215.088 43.1468 214.918 42.8465C214.748 42.5462 214.663 42.1835 214.663 41.7585C214.663 41.1522 214.839 40.6648 215.19 40.2965C215.541 39.9225 216.04 39.7355 216.686 39.7355C217.479 39.7355 218.035 39.9933 218.352 40.509C218.675 41.0247 218.836 41.7925 218.836 42.8125C218.836 43.5265 218.771 44.1158 218.641 44.5805C218.516 45.0452 218.301 45.3993 217.995 45.643C217.695 45.8867 217.281 46.0085 216.754 46.0085C216.176 46.0085 215.725 45.8527 215.402 45.541C215.079 45.2293 214.895 44.8327 214.85 44.351H215.564ZM216.762 43.11C217.142 43.11 217.454 42.9938 217.697 42.7615C217.941 42.5235 218.063 42.2033 218.063 41.801C218.063 41.376 217.944 41.0332 217.706 40.7725C217.468 40.5118 217.134 40.3815 216.703 40.3815C216.306 40.3815 215.989 40.5062 215.751 40.7555C215.519 41.0048 215.402 41.3335 215.402 41.7415C215.402 42.1552 215.519 42.4867 215.751 42.736C215.983 42.9853 216.32 43.11 216.762 43.11ZM226.278 41.8095C226.278 42.3025 226.108 42.7133 225.768 43.042C225.434 43.365 224.921 43.5265 224.23 43.5265H223.091V46H222.317V40.0755H224.23C224.898 40.0755 225.405 40.237 225.751 40.56C226.102 40.883 226.278 41.2995 226.278 41.8095ZM224.23 42.889C224.66 42.889 224.978 42.7955 225.182 42.6085C225.386 42.4215 225.488 42.1552 225.488 41.8095C225.488 41.0785 225.068 40.713 224.23 40.713H223.091V42.889H224.23ZM228.013 39.71V46H227.239V39.71H228.013ZM229.042 43.654C229.042 43.178 229.139 42.7615 229.331 42.4045C229.524 42.0418 229.787 41.7613 230.122 41.563C230.462 41.3647 230.839 41.2655 231.252 41.2655C231.66 41.2655 232.014 41.3533 232.315 41.529C232.615 41.7047 232.839 41.9257 232.986 42.192V41.342H233.768V46H232.986V45.133C232.833 45.405 232.604 45.6317 232.298 45.813C231.997 45.9887 231.646 46.0765 231.244 46.0765C230.83 46.0765 230.456 45.9745 230.122 45.7705C229.787 45.5665 229.524 45.2803 229.331 44.912C229.139 44.5437 229.042 44.1243 229.042 43.654ZM232.986 43.6625C232.986 43.3112 232.915 43.0052 232.774 42.7445C232.632 42.4838 232.439 42.2855 232.196 42.1495C231.958 42.0078 231.694 41.937 231.405 41.937C231.116 41.937 230.853 42.005 230.615 42.141C230.377 42.277 230.187 42.4753 230.045 42.736C229.904 42.9967 229.833 43.3027 229.833 43.654C229.833 44.011 229.904 44.3227 230.045 44.589C230.187 44.8497 230.377 45.0508 230.615 45.1925C230.853 45.3285 231.116 45.3965 231.405 45.3965C231.694 45.3965 231.958 45.3285 232.196 45.1925C232.439 45.0508 232.632 44.8497 232.774 44.589C232.915 44.3227 232.986 44.0138 232.986 43.6625ZM239.087 41.342L236.282 48.193H235.483L236.401 45.949L234.523 41.342H235.381L236.843 45.116L238.288 41.342H239.087ZM241.514 46.0765C241.157 46.0765 240.837 46.017 240.553 45.898C240.27 45.7733 240.046 45.6033 239.882 45.388C239.718 45.167 239.627 44.9148 239.61 44.6315H240.409C240.432 44.8638 240.539 45.0537 240.732 45.201C240.93 45.3483 241.188 45.422 241.505 45.422C241.8 45.422 242.032 45.3568 242.202 45.2265C242.372 45.0962 242.457 44.9318 242.457 44.7335C242.457 44.5295 242.367 44.3793 242.185 44.283C242.004 44.181 241.724 44.0818 241.344 43.9855C240.998 43.8948 240.715 43.8042 240.494 43.7135C240.279 43.6172 240.092 43.4783 239.933 43.297C239.78 43.11 239.703 42.8663 239.703 42.566C239.703 42.328 239.774 42.1098 239.916 41.9115C240.058 41.7132 240.259 41.5573 240.519 41.444C240.78 41.325 241.078 41.2655 241.412 41.2655C241.928 41.2655 242.344 41.3958 242.661 41.6565C242.979 41.9172 243.149 42.2742 243.171 42.7275H242.398C242.381 42.4838 242.282 42.2883 242.1 42.141C241.925 41.9937 241.687 41.92 241.386 41.92C241.109 41.92 240.888 41.9795 240.723 42.0985C240.559 42.2175 240.477 42.3733 240.477 42.566C240.477 42.719 240.525 42.8465 240.621 42.9485C240.723 43.0448 240.848 43.1242 240.995 43.1865C241.148 43.2432 241.358 43.3083 241.624 43.382C241.959 43.4727 242.231 43.5633 242.44 43.654C242.65 43.739 242.829 43.8693 242.976 44.045C243.129 44.2207 243.208 44.4502 243.214 44.7335C243.214 44.9885 243.143 45.218 243.001 45.422C242.86 45.626 242.659 45.7875 242.398 45.9065C242.143 46.0198 241.848 46.0765 241.514 46.0765Z" fill="#6A737C"/>
<circle cx="186" cy="43" r="2" fill="#078669"/>
<path d="M138.732 20.144C138.732 20.568 138.632 20.968 138.432 21.344C138.232 21.72 137.912 22.028 137.472 22.268C137.032 22.5 136.468 22.616 135.78 22.616H134.268V26H132.9V17.66H135.78C136.42 17.66 136.96 17.772 137.4 17.996C137.848 18.212 138.18 18.508 138.396 18.884C138.62 19.26 138.732 19.68 138.732 20.144ZM135.78 21.5C136.3 21.5 136.688 21.384 136.944 21.152C137.2 20.912 137.328 20.576 137.328 20.144C137.328 19.232 136.812 18.776 135.78 18.776H134.268V21.5H135.78ZM146.697 17.66V26H145.329V22.352H141.405V26H140.037V17.66H141.405V21.236H145.329V17.66H146.697ZM154.33 20.144C154.33 20.568 154.23 20.968 154.03 21.344C153.83 21.72 153.51 22.028 153.07 22.268C152.63 22.5 152.066 22.616 151.378 22.616H149.866V26H148.498V17.66H151.378C152.018 17.66 152.558 17.772 152.998 17.996C153.446 18.212 153.778 18.508 153.994 18.884C154.218 19.26 154.33 19.68 154.33 20.144ZM151.378 21.5C151.898 21.5 152.286 21.384 152.542 21.152C152.798 20.912 152.926 20.576 152.926 20.144C152.926 19.232 152.41 18.776 151.378 18.776H149.866V21.5H151.378Z" fill="#1D2746"/>
</svg>
