<svg width="26" height="28" viewBox="0 0 26 28" fill="none" xmlns="http://www.w3.org/2000/svg">
<path d="M0.221 13.976C0.221 11.4107 0.776 9.129 1.886 7.131C2.996 5.10833 4.53767 3.542 6.511 2.432C8.509 1.29733 10.766 0.729999 13.282 0.729999C16.3653 0.729999 19.0047 1.544 21.2 3.172C23.3953 4.8 24.863 7.02 25.603 9.832H18.647C18.129 8.74667 17.389 7.92033 16.427 7.353C15.4897 6.78567 14.4167 6.502 13.208 6.502C11.2593 6.502 9.68067 7.18033 8.472 8.537C7.26333 9.89367 6.659 11.7067 6.659 13.976C6.659 16.2453 7.26333 18.0583 8.472 19.415C9.68067 20.7717 11.2593 21.45 13.208 21.45C14.4167 21.45 15.4897 21.1663 16.427 20.599C17.389 20.0317 18.129 19.2053 18.647 18.12H25.603C24.863 20.932 23.3953 23.152 21.2 24.78C19.0047 26.3833 16.3653 27.185 13.282 27.185C10.766 27.185 8.509 26.63 6.511 25.52C4.53767 24.3853 2.996 22.819 1.886 20.821C0.776 18.823 0.221 16.5413 0.221 13.976Z" fill="white"/>
</svg>
