<svg width="40" height="31" viewBox="0 0 40 31" fill="none" xmlns="http://www.w3.org/2000/svg">
<path d="M8.69996 0.480884H15.345V19.1048C15.345 27.4986 11.3231 30.4279 4.89642 30.4279C3.32267 30.4279 1.31169 30.1656 0 29.7284L0.743238 24.3511C1.66134 24.6571 2.84173 24.8757 4.15318 24.8757C6.95111 24.8757 8.69996 23.6078 8.69996 19.0612V0.480884Z" fill="#1D2746"/>
<path d="M21.1145 23.1268C22.8632 24.0449 25.6612 24.963 28.5029 24.963C31.5632 24.963 33.1807 23.6952 33.1807 21.7279C33.1807 19.9355 31.7817 18.8426 28.2406 17.6184C23.3441 15.8696 20.1091 13.1591 20.1091 8.83118C20.1091 3.80354 24.3497 0 31.2571 0C34.6235 0 37.0278 0.655965 38.7767 1.48648L37.2901 6.82005C36.1535 6.25183 34.0112 5.42108 31.1698 5.42108C28.2844 5.42108 26.8853 6.77633 26.8853 8.26281C26.8853 10.1427 28.5029 10.9732 32.3502 12.4598C37.5525 14.3834 39.957 17.0939 39.957 21.2908C39.957 26.2309 36.1972 30.4279 28.1094 30.4279C24.743 30.4279 21.4204 29.5097 19.7594 28.5917L21.1145 23.1268Z" fill="#1D2746"/>
</svg>
