<svg width="67" height="33" viewBox="0 0 67 33" fill="none" xmlns="http://www.w3.org/2000/svg">
<path d="M11.7697 21.0711C13.7375 21.0711 15.2066 20.7025 16.1361 19.9759C17.0556 19.2567 17.6907 18.0108 18.0236 16.2727C18.334 14.6482 18.2157 13.5139 17.6723 12.9017C17.1166 12.2765 15.9152 11.9594 14.1015 11.9594H10.9568L9.21346 21.0711H11.7697ZM1.48416 32.2952C1.33819 32.2952 1.19955 32.2289 1.10675 32.1143C1.01378 31.9998 0.976106 31.849 1.00399 31.7034L5.62428 7.55709C5.66897 7.32366 5.8704 7.15501 6.10461 7.15501H16.0625C19.1921 7.15501 21.5215 8.01814 22.9856 9.72072C24.4576 11.4322 24.9121 13.8246 24.3365 16.8314C24.1023 18.0563 23.6995 19.194 23.1392 20.2125C22.5783 21.2322 21.837 22.1757 20.9356 23.0172C19.8565 24.0431 18.6352 24.7869 17.3089 25.2246C16.0036 25.6565 14.3273 25.8755 12.3265 25.8755H8.29439L7.14291 31.8929C7.09821 32.1265 6.89695 32.2952 6.66274 32.2952H1.48416Z" fill="white"/>
<path d="M36.6156 25.8755C36.4713 25.8755 36.3346 25.8092 36.243 25.6946C36.1511 25.5801 36.1139 25.4295 36.1414 25.2837L38.159 14.6C38.351 13.5839 38.3036 12.8546 38.0259 12.5465C37.8558 12.3581 37.3451 12.0422 35.835 12.0422H32.1798L29.6431 25.4733C29.599 25.7069 29.4001 25.8755 29.1689 25.8755H24.0971C23.9528 25.8755 23.8161 25.8092 23.7244 25.6946C23.6326 25.5801 23.5954 25.4294 23.6229 25.2837L28.184 1.13743C28.2281 0.904003 28.427 0.735352 28.6582 0.735352H33.73C33.8742 0.735352 34.0109 0.80162 34.1027 0.916097C34.1945 1.03074 34.2317 1.18133 34.2042 1.32712L33.1035 7.155H37.0357C40.0312 7.155 42.0625 7.69839 43.2456 8.81632C44.4516 9.95678 44.8279 11.7803 44.3642 14.2368L42.2421 25.4733C42.198 25.7069 41.9993 25.8755 41.7679 25.8755H36.6156Z" fill="white"/>
<path d="M53.7001 21.0711C55.7434 21.0711 57.2688 20.7025 58.234 19.9759C59.1889 19.2569 59.8483 18.0109 60.1942 16.2727C60.5164 14.6482 60.3937 13.5139 59.8292 12.9017C59.2522 12.2765 58.0047 11.9594 56.1215 11.9594H52.8561L51.0458 21.0711H53.7001ZM43.0201 32.2952C42.8685 32.2952 42.7246 32.2289 42.6282 32.1143C42.5317 31.9998 42.4924 31.849 42.5213 31.7034L47.3189 7.55709C47.3655 7.32366 47.5745 7.15501 47.8178 7.15501H58.1576C61.4074 7.15501 63.826 8.01814 65.3465 9.72072C66.875 11.4321 67.3468 13.8245 66.7493 16.8314C66.5058 18.0563 66.0876 19.194 65.5059 20.2125C64.9235 21.2322 64.1537 22.1757 63.2177 23.0172C62.0972 24.0431 60.8291 24.7869 59.4519 25.2246C58.0965 25.6565 56.3558 25.8755 54.2783 25.8755H50.0913L48.8961 31.8929C48.8496 32.1265 48.6406 32.2952 48.3972 32.2952H43.0201Z" fill="white"/>
</svg>
