<svg width="193" height="193" viewBox="0 0 193 193" fill="none" xmlns="http://www.w3.org/2000/svg">
<circle cx="96.5" cy="96.5" r="96.5" fill="#12182B"/>
<path d="M32.8814 94.1622C32.8814 92.536 33.1963 91.0204 33.8103 89.5995C34.4242 88.1786 35.2586 86.9314 36.3291 85.8578C37.3839 84.7842 38.6276 83.9475 40.0444 83.3317C41.4613 82.716 42.9726 82.4003 44.5783 82.4003C46.1841 82.4003 47.6954 82.7002 49.1123 83.3159C50.5291 83.9317 51.7571 84.7526 52.8118 85.8104C53.8666 86.8682 54.701 88.0996 55.3149 89.5206C55.9289 90.9415 56.2438 92.4413 56.2595 94.0517V111.702C56.2595 112.334 56.0549 112.855 55.6298 113.281C55.2047 113.707 54.701 113.913 54.1027 113.913C53.473 113.913 52.985 113.692 52.5914 113.265C52.2136 112.839 52.0247 112.318 52.0247 111.702V103.209C51.0172 104.045 49.8837 104.708 48.6243 105.182C47.3648 105.656 46.0109 105.893 44.5783 105.893C42.9726 105.893 41.4613 105.577 40.0444 104.961C38.6276 104.345 37.3996 103.509 36.3291 102.451C35.2743 101.393 34.4242 100.146 33.8103 98.7248C33.1963 97.3039 32.8814 95.7725 32.8814 94.1622ZM37.1163 94.1622C37.1163 95.1884 37.3052 96.1514 37.6987 97.0513C38.0923 97.9512 38.6276 98.7406 39.2888 99.4353C39.9657 100.114 40.7371 100.651 41.6502 101.046C42.5475 101.44 43.5236 101.63 44.5626 101.63C45.6174 101.63 46.5934 101.44 47.4908 101.046C48.3881 100.651 49.1752 100.114 49.8522 99.4353C50.5291 98.7564 51.0486 97.967 51.4265 97.0513C51.8043 96.1514 51.9932 95.1884 51.9932 94.1622C51.9932 93.136 51.8043 92.1729 51.4265 91.273C51.0486 90.3731 50.5134 89.5837 49.8522 88.9048C49.1752 88.226 48.4039 87.705 47.4908 87.3103C46.5934 86.9156 45.6174 86.7261 44.5626 86.7261C43.5236 86.7261 42.5633 86.9156 41.6502 87.3103C40.7528 87.705 39.9657 88.2417 39.2888 88.9048C38.6118 89.5837 38.0923 90.3573 37.6987 91.273C37.3209 92.1729 37.1163 93.136 37.1163 94.1622Z" fill="white"/>
<path d="M60.5101 84.5317C60.5101 83.9475 60.7148 83.4423 61.1241 83.0318C61.5334 82.6213 62.0372 82.4161 62.6354 82.4161C63.2179 82.4161 63.7059 82.6213 64.131 83.0318C64.556 83.4423 64.7607 83.9317 64.7607 84.5317V94.699C64.7764 95.6621 64.9653 96.562 65.3274 97.3987C65.6895 98.2355 66.1775 98.9617 66.7915 99.5932C67.4055 100.209 68.1296 100.714 68.9483 101.061C69.7826 101.425 70.68 101.598 71.6403 101.598C72.6163 101.598 73.4979 101.409 74.2851 101.046C75.0722 100.683 75.7492 100.177 76.3002 99.5301C76.8512 98.8986 77.292 98.1407 77.6068 97.2882C77.9217 96.4357 78.0791 95.52 78.0791 94.5411V84.5159C78.0791 84.2317 78.1421 83.9633 78.2523 83.6949C78.3782 83.4423 78.5199 83.2213 78.7245 83.016C78.9135 82.8266 79.1496 82.6687 79.4015 82.5582C79.6534 82.4477 79.9367 82.3845 80.2201 82.3845C80.8341 82.3845 81.3221 82.5898 81.7157 83.0002C82.1093 83.4107 82.2982 83.9159 82.2982 84.5001V94.4306V94.5569C82.2982 96.1041 82.0305 97.5724 81.4953 98.9301C80.96 100.304 80.2201 101.488 79.2755 102.514C78.331 103.54 77.2132 104.345 75.9066 104.945C74.5999 105.545 73.1673 105.829 71.6245 105.829C70.066 105.829 68.6019 105.529 67.2638 104.945C65.9099 104.361 64.7449 103.54 63.7531 102.514C62.7613 101.488 61.9742 100.288 61.3917 98.9301C60.825 97.5566 60.5259 96.1041 60.5259 94.5569V84.5317H60.5101Z" fill="white"/>
<path d="M86.8478 84.5632C86.8478 84.279 86.9108 83.9949 87.021 83.7422C87.1312 83.4739 87.2886 83.2528 87.4933 83.0634C87.6979 82.8739 87.9183 82.716 88.186 82.6055C88.4536 82.495 88.737 82.4319 89.0361 82.4319C89.6186 82.4319 90.1223 82.6371 90.5001 83.0634C90.8937 83.4739 91.0826 83.9791 91.0826 84.579V103.666C91.0826 104.266 90.878 104.756 90.4687 105.166C90.0594 105.577 89.5713 105.782 89.0046 105.782C88.4064 105.782 87.9026 105.577 87.4775 105.166C87.0525 104.756 86.8478 104.251 86.8478 103.666V84.5632Z" fill="white"/>
<path d="M114.807 82.416C115.012 82.416 115.232 82.4634 115.484 82.5581C115.72 82.6529 115.941 82.7949 116.161 82.9686C116.366 83.1423 116.539 83.3633 116.68 83.6001C116.822 83.8527 116.885 84.1369 116.901 84.4527V84.6421C116.885 84.9263 116.806 85.1947 116.68 85.4631C116.555 85.7157 116.381 85.9367 116.177 86.1104L101.646 101.44H115.39C116.004 101.44 116.507 101.63 116.917 102.009C117.326 102.388 117.546 102.877 117.546 103.445C117.546 103.73 117.483 103.998 117.373 104.266C117.263 104.519 117.106 104.74 116.917 104.945C116.728 105.135 116.492 105.293 116.24 105.403C115.972 105.514 115.689 105.577 115.39 105.577H97.2224C96.939 105.577 96.6556 105.514 96.4037 105.403C96.1361 105.293 95.9157 105.135 95.7268 104.945C95.5379 104.756 95.3804 104.535 95.2703 104.266C95.1601 104.014 95.0971 103.745 95.0971 103.445C95.0813 102.956 95.3017 102.467 95.7425 101.977L110.273 86.5998H97.5687C96.9705 86.5998 96.4824 86.3946 96.0731 85.9841C95.6638 85.5736 95.4592 85.0684 95.4592 84.4842C95.4592 83.9001 95.6638 83.3949 96.0731 83.0002C96.4824 82.6055 96.9862 82.4003 97.5687 82.4003H114.807V82.416Z" fill="white"/>
<path d="M149.425 105.877C147.82 105.877 146.308 105.561 144.907 104.945C143.506 104.33 142.278 103.493 141.239 102.435C140.2 101.377 139.366 100.13 138.768 98.7091C138.154 97.2882 137.855 95.7568 137.855 94.1464C137.855 92.5361 138.154 91.0047 138.768 89.5838C139.382 88.1628 140.2 86.9156 141.255 85.842C142.31 84.7685 143.522 83.9317 144.939 83.316C146.34 82.7003 147.851 82.3845 149.473 82.3845C151.078 82.3845 152.59 82.6845 153.991 83.3002C155.392 83.9159 156.604 84.7369 157.643 85.7947C158.682 86.8367 159.501 88.0681 160.115 89.489C160.729 90.9099 161.044 92.4098 161.075 94.0043V94.1464V103.572C161.075 104.187 160.871 104.693 160.445 105.119C160.02 105.545 159.517 105.75 158.903 105.75C158.289 105.75 157.801 105.545 157.407 105.103C157.029 104.677 156.825 104.156 156.825 103.54L156.793 103.209C155.786 104.045 154.668 104.693 153.424 105.166C152.165 105.64 150.827 105.877 149.425 105.877ZM149.425 101.598C150.48 101.598 151.456 101.409 152.338 101.014C153.235 100.619 154.007 100.083 154.668 99.4038C155.329 98.7249 155.849 97.9355 156.226 97.0356C156.604 96.1357 156.793 95.1726 156.793 94.1464C156.793 93.1202 156.604 92.1572 156.226 91.2573C155.849 90.3574 155.329 89.568 154.668 88.9049C154.007 88.2418 153.235 87.705 152.338 87.3103C151.441 86.9156 150.465 86.7262 149.425 86.7262C148.386 86.7262 147.426 86.9156 146.529 87.3103C145.631 87.705 144.86 88.226 144.215 88.9049C143.553 89.568 143.05 90.3574 142.656 91.2573C142.278 92.1572 142.089 93.1202 142.089 94.1464C142.089 95.1726 142.278 96.1357 142.656 97.0356C143.034 97.9355 143.553 98.7249 144.215 99.4038C144.876 100.083 145.647 100.619 146.529 101.014C147.426 101.409 148.386 101.598 149.425 101.598Z" fill="white"/>
<path d="M64.3671 113.723V113.123C64.3671 112.887 64.2884 112.681 64.1152 112.508C63.942 112.334 63.7374 112.255 63.5012 112.255C63.2651 112.255 63.0604 112.334 62.8872 112.508C62.7141 112.681 62.6354 112.887 62.6354 113.123H61.1713C61.1713 112.476 61.3917 111.924 61.8482 111.466C62.3048 111.008 62.8558 110.787 63.5012 110.787C64.1309 110.787 64.6819 111.008 65.1385 111.466C65.595 111.924 65.8311 112.476 65.8311 113.123V118.618H65.1385L64.8393 118.318C64.4458 118.602 63.9892 118.744 63.5012 118.744C62.8558 118.744 62.3048 118.523 61.8482 118.065C61.3917 117.607 61.1713 117.023 61.1713 116.297C61.1713 115.128 61.7695 114.371 62.9345 114.023L64.3671 113.723ZM64.3671 116.281V115.223L63.2021 115.46C62.8085 115.649 62.6196 115.918 62.6196 116.281C62.6196 116.597 62.6983 116.849 62.8715 117.023C63.0447 117.197 63.2493 117.276 63.4855 117.276C63.7216 117.276 63.9263 117.197 64.0994 117.023C64.2726 116.849 64.3671 116.612 64.3671 116.281Z" fill="white"/>
<path d="M68.5547 116.281C68.5547 116.518 68.6334 116.723 68.8066 116.897C68.9797 117.07 69.1844 117.149 69.4205 117.149C69.6567 117.149 69.8613 117.07 70.0345 116.897C70.2077 116.723 70.2864 116.518 70.2864 116.281V115.981H71.7505V116.281C71.7505 116.928 71.5301 117.481 71.0735 117.939C70.617 118.397 70.066 118.618 69.4205 118.618C68.7908 118.618 68.2398 118.397 67.7833 117.939C67.3267 117.481 67.0906 116.928 67.0906 116.281V113.25C67.0906 112.602 67.3267 112.05 67.7833 111.592C68.2398 111.134 68.7908 110.913 69.4205 110.913C70.066 110.913 70.617 111.134 71.0735 111.592C71.5301 112.05 71.7505 112.602 71.7505 113.25V113.534H70.3021V113.25C70.3021 113.013 70.2234 112.808 70.0502 112.634C69.8771 112.46 69.6724 112.381 69.4363 112.381C69.2001 112.381 68.9955 112.46 68.8223 112.634C68.6491 112.808 68.5704 113.013 68.5704 113.25V116.281H68.5547Z" fill="white"/>
<path d="M74.2693 116.281C74.2693 116.518 74.348 116.723 74.5212 116.897C74.6944 117.07 74.899 117.149 75.1352 117.149C75.3713 117.149 75.576 117.07 75.7491 116.897C75.9223 116.723 76.001 116.518 76.001 116.281V115.981H77.4651V116.281C77.4651 116.928 77.2447 117.481 76.7882 117.939C76.3316 118.397 75.7806 118.618 75.1352 118.618C74.5055 118.618 73.9545 118.397 73.4979 117.939C73.0414 117.481 72.8052 116.928 72.8052 116.281V113.25C72.8052 112.602 73.0414 112.05 73.4979 111.592C73.9545 111.134 74.5055 110.913 75.1352 110.913C75.7806 110.913 76.3316 111.134 76.7882 111.592C77.2447 112.05 77.4651 112.602 77.4651 113.25V113.534H76.001V113.25C76.001 113.013 75.9223 112.808 75.7491 112.634C75.576 112.46 75.3713 112.381 75.1352 112.381C74.899 112.381 74.6944 112.46 74.5212 112.634C74.348 112.808 74.2693 113.013 74.2693 113.25V116.281Z" fill="white"/>
<path d="M79.9839 115.413V116.407C79.9839 116.644 80.0626 116.849 80.2358 117.023C80.409 117.197 80.6136 117.276 80.8498 117.276C81.0859 117.276 81.2906 117.197 81.4637 117.023C81.6369 116.849 81.7156 116.644 81.7156 116.407H83.1797C83.1797 117.055 82.9593 117.607 82.5028 118.065C82.0462 118.523 81.4952 118.744 80.8498 118.744C80.2201 118.744 79.6691 118.523 79.2125 118.065C78.756 117.607 78.5198 117.055 78.5198 116.407V113.155C78.5198 112.508 78.756 111.955 79.2125 111.497C79.6691 111.039 80.2201 110.818 80.8498 110.818C81.4952 110.818 82.0462 111.039 82.5028 111.497C82.9593 111.955 83.1797 112.508 83.1797 113.155V115.428H79.9839V115.413ZM81.7314 113.139C81.7314 112.902 81.6526 112.697 81.4795 112.523C81.3063 112.35 81.1017 112.271 80.8655 112.271C80.6294 112.271 80.4247 112.35 80.2515 112.523C80.0784 112.697 79.9997 112.902 79.9997 113.139V113.944H81.7471V113.139H81.7314Z" fill="white"/>
<path d="M86.0921 108.987V118.618H84.6281V108.987H86.0921Z" fill="white"/>
<path d="M88.9574 115.413V116.407C88.9574 116.644 89.0361 116.849 89.2093 117.023C89.3824 117.197 89.5871 117.276 89.8232 117.276C90.0594 117.276 90.264 117.197 90.4372 117.023C90.6104 116.849 90.6891 116.644 90.6891 116.407H92.1532C92.1532 117.055 91.9328 117.607 91.4762 118.065C91.0197 118.523 90.4687 118.744 89.8232 118.744C89.1935 118.744 88.6425 118.523 88.186 118.065C87.7294 117.607 87.4933 117.055 87.4933 116.407V113.155C87.4933 112.508 87.7294 111.955 88.186 111.497C88.6425 111.039 89.1935 110.818 89.8232 110.818C90.4687 110.818 91.0197 111.039 91.4762 111.497C91.9328 111.955 92.1532 112.508 92.1532 113.155V115.428H88.9574V115.413ZM90.7048 113.139C90.7048 112.902 90.6261 112.697 90.4529 112.523C90.2798 112.35 90.0751 112.271 89.839 112.271C89.6028 112.271 89.3982 112.35 89.225 112.523C89.0518 112.697 88.9731 112.902 88.9731 113.139V113.944H90.7206V113.139H90.7048Z" fill="white"/>
<path d="M95.0656 113.25V118.618H93.6015V110.913H94.4831L94.7192 111.261C95.0813 111.024 95.4906 110.913 95.9471 110.913H96.2463V112.381H95.9471C95.711 112.381 95.5064 112.46 95.3332 112.634C95.16 112.808 95.0656 113.013 95.0656 113.25Z" fill="white"/>
<path d="M100.276 113.723V113.123C100.276 112.887 100.198 112.681 100.025 112.508C99.8514 112.334 99.6467 112.255 99.4106 112.255C99.1744 112.255 98.9698 112.334 98.7966 112.508C98.6234 112.681 98.5447 112.887 98.5447 113.123H97.0806C97.0806 112.476 97.301 111.924 97.7576 111.466C98.2141 111.008 98.7651 110.787 99.4106 110.787C100.04 110.787 100.591 111.008 101.048 111.466C101.504 111.924 101.741 112.476 101.741 113.123V118.618H101.048L100.749 118.318C100.355 118.602 99.8986 118.744 99.4106 118.744C98.7651 118.744 98.2141 118.523 97.7576 118.065C97.301 117.607 97.0806 117.023 97.0806 116.297C97.0806 115.128 97.6789 114.371 98.8438 114.023L100.276 113.723ZM100.276 116.281V115.223L99.1115 115.46C98.7179 115.649 98.529 115.918 98.529 116.281C98.529 116.597 98.6077 116.849 98.7809 117.023C98.954 117.197 99.1587 117.276 99.3948 117.276C99.631 117.276 99.8356 117.197 100.009 117.023C100.198 116.849 100.276 116.612 100.276 116.281Z" fill="white"/>
<path d="M103.488 110.913V108.987H104.952V110.913H105.818V112.381H104.952V116.297C104.952 116.534 105.031 116.739 105.204 116.912C105.377 117.086 105.582 117.165 105.818 117.165V118.633C105.172 118.633 104.621 118.412 104.165 117.954C103.708 117.497 103.488 116.944 103.488 116.297V112.381H102.905V110.913H103.488Z" fill="white"/>
<path d="M108.321 115.413V116.407C108.321 116.644 108.4 116.849 108.573 117.023C108.746 117.197 108.951 117.276 109.187 117.276C109.423 117.276 109.628 117.197 109.801 117.023C109.974 116.849 110.053 116.644 110.053 116.407H111.517C111.517 117.055 111.296 117.607 110.84 118.065C110.383 118.523 109.832 118.744 109.187 118.744C108.557 118.744 108.006 118.523 107.55 118.065C107.093 117.607 106.857 117.055 106.857 116.407V113.155C106.857 112.508 107.093 111.955 107.55 111.497C108.006 111.039 108.557 110.818 109.187 110.818C109.832 110.818 110.383 111.039 110.84 111.497C111.296 111.955 111.517 112.508 111.517 113.155V115.428H108.321V115.413ZM110.068 113.139C110.068 112.902 109.99 112.697 109.817 112.523C109.643 112.35 109.439 112.271 109.203 112.271C108.966 112.271 108.762 112.35 108.589 112.523C108.415 112.697 108.337 112.902 108.337 113.139V113.944H110.084V113.139H110.068Z" fill="white"/>
<path d="M117.357 118.618H116.476L116.24 118.27C115.878 118.507 115.468 118.618 115.012 118.618C114.366 118.618 113.815 118.397 113.359 117.939C112.902 117.481 112.682 116.928 112.682 116.281V113.25C112.682 112.602 112.902 112.05 113.359 111.592C113.815 111.134 114.366 110.913 115.012 110.913C115.327 110.913 115.61 110.96 115.893 111.071V108.987H117.357V118.618ZM115.641 112.634C115.468 112.46 115.264 112.381 115.027 112.381C114.791 112.381 114.587 112.46 114.413 112.634C114.24 112.808 114.162 113.013 114.162 113.25V116.281C114.162 116.518 114.24 116.723 114.413 116.897C114.587 117.07 114.791 117.149 115.027 117.149C115.264 117.149 115.468 117.07 115.641 116.897C115.815 116.723 115.893 116.518 115.893 116.281V113.234C115.893 113.013 115.815 112.808 115.641 112.634Z" fill="white"/>
<path d="M123.434 108.987V118.618H121.97V108.987H123.434Z" fill="white"/>
<path d="M126.284 115.413V116.407C126.284 116.644 126.362 116.849 126.535 117.023C126.709 117.197 126.913 117.276 127.149 117.276C127.386 117.276 127.59 117.197 127.763 117.023C127.937 116.849 128.015 116.644 128.015 116.407H129.479C129.479 117.055 129.259 117.607 128.802 118.065C128.346 118.523 127.795 118.744 127.149 118.744C126.52 118.744 125.969 118.523 125.512 118.065C125.056 117.607 124.819 117.055 124.819 116.407V113.155C124.819 112.508 125.056 111.955 125.512 111.497C125.969 111.039 126.52 110.818 127.149 110.818C127.795 110.818 128.346 111.039 128.802 111.497C129.259 111.955 129.479 112.508 129.479 113.155V115.428H126.284V115.413ZM128.031 113.139C128.031 112.902 127.952 112.697 127.779 112.523C127.606 112.35 127.401 112.271 127.165 112.271C126.929 112.271 126.724 112.35 126.551 112.523C126.378 112.697 126.299 112.902 126.299 113.139V113.944H128.047V113.139H128.031Z" fill="white"/>
<path d="M133.935 113.723V113.123C133.935 112.887 133.856 112.681 133.683 112.508C133.51 112.334 133.305 112.255 133.069 112.255C132.833 112.255 132.628 112.334 132.455 112.508C132.282 112.681 132.203 112.887 132.203 113.123H130.739C130.739 112.476 130.959 111.924 131.416 111.466C131.872 111.008 132.423 110.787 133.069 110.787C133.698 110.787 134.249 111.008 134.706 111.466C135.162 111.924 135.399 112.476 135.399 113.123V118.618H134.706L134.407 118.318C134.013 118.602 133.557 118.744 133.069 118.744C132.423 118.744 131.872 118.523 131.416 118.065C130.959 117.607 130.739 117.023 130.739 116.297C130.739 115.128 131.337 114.371 132.502 114.023L133.935 113.723ZM133.935 116.281V115.223L132.77 115.46C132.376 115.649 132.187 115.918 132.187 116.281C132.187 116.597 132.266 116.849 132.439 117.023C132.612 117.197 132.817 117.276 133.053 117.276C133.289 117.276 133.494 117.197 133.667 117.023C133.84 116.849 133.935 116.612 133.935 116.281Z" fill="white"/>
<path d="M138.437 113.25V118.618H136.973V110.913H137.839L138.075 111.261C138.437 111.024 138.846 110.913 139.303 110.913H139.602V112.381H139.303C139.067 112.381 138.862 112.46 138.689 112.634C138.516 112.808 138.437 113.013 138.437 113.25Z" fill="white"/>
<path d="M141.759 111.261C142.121 111.024 142.53 110.913 142.987 110.913C143.632 110.913 144.183 111.134 144.64 111.592C145.096 112.05 145.317 112.602 145.317 113.25V118.618H143.853V113.25C143.853 113.013 143.774 112.808 143.601 112.634C143.427 112.46 143.223 112.381 142.987 112.381C142.751 112.381 142.546 112.46 142.373 112.634C142.2 112.808 142.121 113.013 142.121 113.25V118.618H140.657V110.913H141.523L141.759 111.261Z" fill="white"/>
<path d="M148.402 108.577V110.045H146.938V108.577H148.402ZM148.402 110.913V118.618H146.938V110.913H148.402Z" fill="white"/>
<path d="M151.252 111.261C151.614 111.024 152.023 110.913 152.48 110.913C153.125 110.913 153.676 111.134 154.133 111.592C154.589 112.05 154.81 112.602 154.81 113.25V118.618H153.345V113.25C153.345 113.013 153.267 112.808 153.094 112.634C152.92 112.46 152.716 112.381 152.48 112.381C152.243 112.381 152.039 112.46 151.866 112.634C151.692 112.808 151.614 113.013 151.614 113.25V118.618H150.15V110.913H151.016L151.252 111.261Z" fill="white"/>
<path d="M159.816 111.261L160.052 110.913H160.918V118.918C160.918 119.565 160.682 120.117 160.225 120.575C159.769 121.033 159.218 121.254 158.588 121.254C157.942 121.254 157.391 121.033 156.935 120.575C156.478 120.117 156.258 119.565 156.258 118.918H157.722C157.722 119.154 157.801 119.36 157.974 119.533C158.147 119.707 158.352 119.786 158.588 119.786C158.824 119.786 159.029 119.707 159.202 119.533C159.375 119.36 159.454 119.154 159.454 118.918V117.876C159.17 117.986 158.871 118.033 158.572 118.033C157.927 118.033 157.376 117.812 156.935 117.355C156.478 116.897 156.258 116.344 156.258 115.697V113.25C156.258 112.602 156.478 112.05 156.935 111.592C157.391 111.134 157.942 110.913 158.588 110.913C159.044 110.913 159.454 111.024 159.816 111.261ZM159.469 115.823V113.187C159.454 112.981 159.375 112.792 159.218 112.634C159.044 112.46 158.84 112.381 158.604 112.381C158.367 112.381 158.163 112.46 157.99 112.634C157.816 112.808 157.738 113.013 157.738 113.25V115.697C157.738 115.934 157.816 116.139 157.99 116.313C158.163 116.486 158.367 116.565 158.604 116.565C158.84 116.565 159.06 116.486 159.233 116.313C159.359 116.186 159.438 116.013 159.469 115.823Z" fill="white"/>
<path d="M141.444 72.1066C140.657 72.0751 139.933 72.4856 139.539 73.1486L124.268 99.1511L121.025 91.3046C120.663 90.4363 119.766 89.8995 118.806 90.0416C117.373 90.2626 116.68 91.6204 117.231 92.9623L122.033 104.393C122.175 104.74 122.411 105.056 122.741 105.308C123.041 105.545 123.434 105.656 123.906 105.687V105.703C124.725 105.703 125.481 105.261 125.874 104.566L126.756 103.019L143.128 75.3905C143.978 74.0012 143.065 72.1698 141.444 72.1066Z" fill="#009245"/>
</svg>
