<svg width="16" height="14" viewBox="0 0 16 14" fill="none" xmlns="http://www.w3.org/2000/svg">
<path fill-rule="evenodd" clip-rule="evenodd" d="M7.2909 12.8356C6.95474 13.2629 6.36965 13.3073 5.98405 12.9348L0.317579 7.46111C0.115806 7.2662 2.34016e-08 6.9841 0 6.6875C-2.34016e-08 6.3909 0.115806 6.1088 0.317579 5.91389L5.98405 0.440221C6.36964 0.0677461 6.95474 0.11215 7.2909 0.539402C7.62706 0.966653 7.58699 1.61496 7.20139 1.98744L3.39824 5.66119L14.5113 5.66119C15.0228 5.66119 15.4375 6.12068 15.4375 6.6875C15.4375 7.25432 15.0228 7.71381 14.5113 7.71381L3.39824 7.71381L7.20139 11.3876C7.58699 11.76 7.62706 12.4083 7.2909 12.8356Z" fill="#1D2746"/>
</svg>
