<svg width="16" height="18" viewBox="0 0 16 18" fill="none" xmlns="http://www.w3.org/2000/svg">
<path fill-rule="evenodd" clip-rule="evenodd" d="M3.90361 2.50062C3.00022 2.60774 2.33756 2.81456 1.78792 3.2139C1.4197 3.48143 1.09589 3.80524 0.82836 4.17346C0 5.3136 0 6.93999 0 10.1928C0 13.4456 0 15.0719 0.82836 16.2121C1.09589 16.5803 1.4197 16.9041 1.78792 17.1716C2.92806 18 4.55445 18 7.80723 18C8.53499 18 9.18133 18 9.75904 17.9907L9.75903 17.9299C9.75897 17.1908 9.75894 16.7406 9.82045 16.3522C10.1585 14.2179 11.8324 12.544 13.9667 12.206C14.355 12.1445 14.8053 12.1445 15.5443 12.1446L15.6052 12.1446C15.6145 11.567 15.6145 10.9208 15.6145 10.1932C15.6145 6.94039 15.6145 5.3136 14.7861 4.17346C14.5186 3.80524 14.1948 3.48143 13.8265 3.2139C13.2769 2.81456 12.6142 2.60774 11.7108 2.50062V3.25301C11.7108 3.97165 11.1283 4.55422 10.4096 4.55422C9.691 4.55422 9.10843 3.97165 9.10843 3.25301V2.38798C8.70584 2.38554 8.27323 2.38554 7.80723 2.38554C7.34123 2.38554 6.90861 2.38554 6.50602 2.38798V3.25301C6.50602 3.97165 5.92346 4.55422 5.20482 4.55422C4.48618 4.55422 3.90361 3.97165 3.90361 3.25301V2.50062ZM3.46988 7.59036C3.94897 7.59036 4.33735 7.20198 4.33735 6.72289C4.33735 6.2438 3.94897 5.85542 3.46988 5.85542C2.99079 5.85542 2.60241 6.2438 2.60241 6.72289C2.60241 7.20198 2.99079 7.59036 3.46988 7.59036ZM4.33735 10.1928C4.33735 10.6719 3.94897 11.0602 3.46988 11.0602C2.99079 11.0602 2.60241 10.6719 2.60241 10.1928C2.60241 9.71368 2.99079 9.3253 3.46988 9.3253C3.94897 9.3253 4.33735 9.71368 4.33735 10.1928ZM7.80723 7.59036C8.28632 7.59036 8.6747 7.20198 8.6747 6.72289C8.6747 6.2438 8.28632 5.85542 7.80723 5.85542C7.32814 5.85542 6.93976 6.2438 6.93976 6.72289C6.93976 7.20198 7.32814 7.59036 7.80723 7.59036ZM8.6747 10.1928C8.6747 10.6719 8.28632 11.0602 7.80723 11.0602C7.32814 11.0602 6.93976 10.6719 6.93976 10.1928C6.93976 9.71368 7.32814 9.3253 7.80723 9.3253C8.28632 9.3253 8.6747 9.71368 8.6747 10.1928ZM7.80723 14.5301C8.28632 14.5301 8.6747 14.1417 8.6747 13.6627C8.6747 13.1836 8.28632 12.7952 7.80723 12.7952C7.32814 12.7952 6.93976 13.1836 6.93976 13.6627C6.93976 14.1417 7.32814 14.5301 7.80723 14.5301ZM13.012 6.72289C13.012 7.20198 12.6237 7.59036 12.1446 7.59036C11.6655 7.59036 11.2771 7.20198 11.2771 6.72289C11.2771 6.2438 11.6655 5.85542 12.1446 5.85542C12.6237 5.85542 13.012 6.2438 13.012 6.72289ZM12.1446 11.0602C12.6237 11.0602 13.012 10.6719 13.012 10.1928C13.012 9.71368 12.6237 9.3253 12.1446 9.3253C11.6655 9.3253 11.2771 9.71368 11.2771 10.1928C11.2771 10.6719 11.6655 11.0602 12.1446 11.0602ZM4.33735 13.6627C4.33735 14.1417 3.94897 14.5301 3.46988 14.5301C2.99079 14.5301 2.60241 14.1417 2.60241 13.6627C2.60241 13.1836 2.99079 12.7952 3.46988 12.7952C3.94897 12.7952 4.33735 13.1836 4.33735 13.6627Z" fill="#078669"/>
<path d="M15.5578 13.4458C14.7681 13.4459 14.4378 13.4488 14.1703 13.4912C12.5927 13.741 11.3555 14.9783 11.1056 16.5558C11.0633 16.8233 11.0604 17.1536 11.0602 17.9433C12.3091 17.8614 13.1527 17.6612 13.8265 17.1716C14.1948 16.9041 14.5186 16.5803 14.7861 16.2121C15.2757 15.5383 15.4759 14.6946 15.5578 13.4458Z" fill="#078669"/>
<path d="M5.85542 0.650602C5.85542 0.291285 5.56414 0 5.20482 0C4.8455 0 4.55422 0.291285 4.55422 0.650602V3.25301C4.55422 3.61233 4.8455 3.90361 5.20482 3.90361C5.56414 3.90361 5.85542 3.61233 5.85542 3.25301V0.650602Z" fill="#078669"/>
<path d="M11.0602 0.650602C11.0602 0.291285 10.769 0 10.4096 0C10.0503 0 9.75904 0.291285 9.75904 0.650602V3.25301C9.75904 3.61233 10.0503 3.90361 10.4096 3.90361C10.769 3.90361 11.0602 3.61233 11.0602 3.25301V0.650602Z" fill="#078669"/>
</svg>
