<svg width="16" height="16" viewBox="0 0 16 16" fill="none" xmlns="http://www.w3.org/2000/svg">
<path fill-rule="evenodd" clip-rule="evenodd" d="M16 8C16 12.4183 12.4183 16 8 16C3.58172 16 0 12.4183 0 8C0 3.58172 3.58172 0 8 0C12.4183 0 16 3.58172 16 8ZM9.24683 4.52911C8.46926 3.49234 6.84727 3.75555 6.43746 4.985L6.16921 5.78974C6.06442 6.10411 5.72463 6.274 5.41026 6.16921C5.0959 6.06442 4.926 5.72463 5.03079 5.41027L5.29904 4.60553C6.01496 2.45776 8.84846 1.99795 10.2068 3.80911C11.0025 4.87004 10.947 6.34314 10.0737 7.34118L9.33837 8.1816C8.86237 8.7256 8.6 9.42387 8.6 10.1467V10.4C8.6 10.7314 8.33137 11 8 11C7.66863 11 7.4 10.7314 7.4 10.4V10.1467C7.4 9.1332 7.76787 8.15414 8.43527 7.39139L9.17064 6.55098C9.67054 5.97966 9.70231 5.13642 9.24683 4.52911ZM8 13.6C8.44183 13.6 8.8 13.2418 8.8 12.8C8.8 12.3582 8.44183 12 8 12C7.55817 12 7.2 12.3582 7.2 12.8C7.2 13.2418 7.55817 13.6 8 13.6Z" fill="#078669"/>
</svg>
