<svg width="16" height="16" viewBox="0 0 16 16" fill="none" xmlns="http://www.w3.org/2000/svg">
<path d="M5.25218 0H5.43936C6.53874 0.084375 7.3678 0.936875 7.37218 2.04469C7.37218 2.05518 7.37556 2.0654 7.3818 2.07384C7.38804 2.08228 7.39683 2.08849 7.40686 2.09156C7.98405 2.27031 8.27124 2.63094 8.2728 3.2425C8.27384 3.58563 8.27395 3.92167 8.27311 4.25063C8.27303 4.29193 8.25657 4.33151 8.22733 4.36069C8.1981 4.38987 8.15848 4.40625 8.11718 4.40625C6.27801 4.40646 4.43686 4.40646 2.59374 4.40625C2.46061 4.40625 2.42092 4.31438 2.42155 4.19156C2.4228 3.87969 2.42259 3.56781 2.42092 3.25594C2.4178 2.67406 2.70249 2.25156 3.28311 2.10031C3.2951 2.0972 3.30572 2.09017 3.3133 2.08033C3.32087 2.07049 3.32499 2.05839 3.32499 2.04594C3.32436 0.940313 4.15936 0.08875 5.25218 0ZM5.81499 2.00469C5.81499 1.94342 5.80292 1.88275 5.77947 1.82614C5.75603 1.76954 5.72166 1.7181 5.67834 1.67478C5.63501 1.63145 5.58358 1.59709 5.52697 1.57364C5.47037 1.55019 5.40969 1.53813 5.34843 1.53813C5.28716 1.53813 5.22649 1.55019 5.16988 1.57364C5.11327 1.59709 5.06184 1.63145 5.01852 1.67478C4.97519 1.7181 4.94082 1.76954 4.91738 1.82614C4.89393 1.88275 4.88186 1.94342 4.88186 2.00469C4.88186 2.12843 4.93102 2.2471 5.01852 2.3346C5.10601 2.4221 5.22468 2.47125 5.34843 2.47125C5.40969 2.47125 5.47037 2.45918 5.52697 2.43574C5.58358 2.41229 5.63501 2.37792 5.67834 2.3346C5.72166 2.29127 5.75603 2.23984 5.77947 2.18323C5.80292 2.12663 5.81499 2.06596 5.81499 2.00469Z" fill="#078669"/>
<path d="M10.2713 16H0.427813C0.186771 15.9575 0.0441667 15.8163 0 15.5763V3.56095C0.06 3.24595 0.265 3.14313 0.56625 3.14095C0.864167 3.13886 1.16406 3.13918 1.46594 3.14188C1.4776 3.14209 1.48354 3.14803 1.48375 3.1597C1.485 3.45261 1.48531 3.74428 1.48469 4.0347C1.48427 4.27803 1.49885 4.45095 1.52844 4.55345C1.63188 4.91345 1.93344 5.2072 2.295 5.30313C2.395 5.3298 2.57563 5.34313 2.83688 5.34313C4.57875 5.34376 6.32063 5.34157 8.0625 5.33657C8.755 5.33438 9.21313 4.87126 9.21157 4.18595C9.21073 3.84699 9.21063 3.50605 9.21126 3.16313C9.21126 3.15717 9.21362 3.15144 9.21784 3.14722C9.22206 3.143 9.22779 3.14063 9.23376 3.14063C9.52125 3.14063 9.81188 3.14063 10.1056 3.14063C10.5253 3.14032 10.6963 3.30751 10.6956 3.72876C10.6946 4.59897 10.6947 5.46938 10.6959 6.34001C10.6959 6.35001 10.6924 6.35845 10.6853 6.36532L8.28282 8.76814C8.27886 8.7721 8.27415 8.77524 8.26895 8.77738C8.26375 8.77953 8.25816 8.78063 8.2525 8.78064C6.93875 8.78209 5.6249 8.78209 4.31094 8.78064C4.19448 8.78043 4.10375 8.79387 4.03875 8.82095C3.64438 8.9847 3.65656 9.54501 4.06313 9.68845C4.12042 9.70866 4.20969 9.71876 4.33094 9.71876C5.32782 9.71876 6.325 9.71876 7.3225 9.71876C7.32492 9.71871 7.32729 9.71937 7.32932 9.72067C7.33136 9.72196 7.33296 9.72383 7.33393 9.72604C7.3349 9.72825 7.3352 9.7307 7.33477 9.73307C7.33435 9.73545 7.33324 9.73765 7.33157 9.73939C7.06865 10.0261 6.82354 10.3271 6.59625 10.6425C6.58979 10.6517 6.58094 10.6563 6.56969 10.6563C5.82052 10.6565 5.07188 10.6564 4.32375 10.6559C4.19042 10.6559 4.09146 10.6704 4.02688 10.6994C3.64781 10.8694 3.66313 11.3997 4.04031 11.5528C4.10906 11.5809 4.20959 11.5948 4.34188 11.5944C4.88229 11.5933 5.42604 11.5932 5.97313 11.5941C5.97481 11.5941 5.97647 11.5945 5.97793 11.5953C5.97939 11.5962 5.98061 11.5974 5.98146 11.5989C5.98231 11.6004 5.98277 11.6021 5.98279 11.6038C5.9828 11.6055 5.98238 11.6072 5.98157 11.6088C5.81657 11.9033 5.66688 12.2055 5.5325 12.5153C5.52792 12.5257 5.5199 12.5311 5.50844 12.5313C5.1124 12.5315 4.71761 12.5314 4.32406 12.531C4.19052 12.531 4.09156 12.5453 4.02719 12.5741C3.64844 12.7435 3.6625 13.2756 4.04031 13.4281C4.10906 13.4558 4.20927 13.4695 4.34094 13.4691C4.61782 13.4682 4.89084 13.4682 5.16 13.4691C5.17313 13.4691 5.17907 13.4756 5.17781 13.4888C5.10781 14.2603 5.66188 14.8531 6.45375 14.7506C6.52209 14.7417 6.68302 14.6895 6.93657 14.5941C8.35532 14.0595 9.60021 13.2414 10.6713 12.1397C10.6732 12.1376 10.6757 12.1362 10.6785 12.1355C10.6812 12.1349 10.6841 12.1351 10.6868 12.1362C10.6894 12.1372 10.6917 12.1391 10.6932 12.1414C10.6948 12.1438 10.6957 12.1466 10.6956 12.1494C10.695 13.2338 10.695 14.3211 10.6956 15.4113C10.6956 15.7263 10.6034 15.9385 10.2713 16ZM2.8075 7.37407C2.8075 7.3128 2.79543 7.25213 2.77199 7.19553C2.74854 7.13892 2.71417 7.08749 2.67085 7.04416C2.62752 7.00084 2.57609 6.96647 2.51948 6.94303C2.46288 6.91958 2.40221 6.90751 2.34094 6.90751C2.27967 6.90751 2.219 6.91958 2.16239 6.94303C2.10579 6.96647 2.05435 7.00084 2.01103 7.04416C1.9677 7.08749 1.93334 7.13892 1.90989 7.19553C1.88644 7.25213 1.87438 7.3128 1.87438 7.37407C1.87438 7.49781 1.92353 7.61649 2.01103 7.70398C2.09853 7.79148 2.2172 7.84064 2.34094 7.84064C2.46468 7.84064 2.58335 7.79148 2.67085 7.70398C2.75835 7.61649 2.8075 7.49781 2.8075 7.37407ZM8.81907 7.36595C8.81907 7.2442 8.7707 7.12743 8.68461 7.04134C8.59852 6.95525 8.48175 6.90689 8.36 6.90689H4.21125C4.0895 6.90689 3.97274 6.95525 3.88665 7.04134C3.80055 7.12743 3.75219 7.2442 3.75219 7.36595V7.38407C3.75219 7.50582 3.80055 7.62259 3.88665 7.70868C3.97274 7.79477 4.0895 7.84314 4.21125 7.84314H8.36C8.48175 7.84314 8.59852 7.79477 8.68461 7.70868C8.7707 7.62259 8.81907 7.50582 8.81907 7.38407V7.36595ZM2.8075 9.24907C2.8075 9.12533 2.75835 9.00666 2.67085 8.91916C2.58335 8.83167 2.46468 8.78251 2.34094 8.78251C2.2172 8.78251 2.09853 8.83167 2.01103 8.91916C1.92353 9.00666 1.87438 9.12533 1.87438 9.24907C1.87438 9.37281 1.92353 9.49149 2.01103 9.57898C2.09853 9.66648 2.2172 9.71564 2.34094 9.71564C2.46468 9.71564 2.58335 9.66648 2.67085 9.57898C2.75835 9.49149 2.8075 9.37281 2.8075 9.24907ZM2.80781 11.1238C2.80781 10.9999 2.75863 10.8812 2.67107 10.7936C2.58351 10.7061 2.46476 10.6569 2.34094 10.6569C2.21712 10.6569 2.09836 10.7061 2.01081 10.7936C1.92325 10.8812 1.87406 10.9999 1.87406 11.1238C1.87406 11.2476 1.92325 11.3663 2.01081 11.4539C2.09836 11.5414 2.21712 11.5906 2.34094 11.5906C2.46476 11.5906 2.58351 11.5414 2.67107 11.4539C2.75863 11.3663 2.80781 11.2476 2.80781 11.1238ZM2.8075 12.9988C2.8075 12.875 2.75835 12.7564 2.67085 12.6689C2.58335 12.5814 2.46468 12.5322 2.34094 12.5322C2.2172 12.5322 2.09853 12.5814 2.01103 12.6689C1.92353 12.7564 1.87438 12.875 1.87438 12.9988C1.87438 13.1225 1.92353 13.2412 2.01103 13.3287C2.09853 13.4162 2.2172 13.4653 2.34094 13.4653C2.46468 13.4653 2.58335 13.4162 2.67085 13.3287C2.75835 13.2412 2.8075 13.1225 2.8075 12.9988Z" fill="#078669"/>
<path d="M15.9999 5.18971V5.23627C15.9774 5.75752 15.7346 6.00908 15.3924 6.35502C15.3908 6.3567 15.3895 6.35869 15.3886 6.36087C15.3877 6.36305 15.3873 6.36539 15.3873 6.36774C15.3873 6.3701 15.3878 6.37242 15.3887 6.37458C15.3897 6.37674 15.391 6.3787 15.3927 6.38033C15.7537 6.72658 15.9709 7.06346 15.9999 7.57252V7.68159C15.977 8.0995 15.829 8.44554 15.5559 8.71971C15.0402 9.23742 14.524 9.75419 14.0071 10.27C13.9009 10.3759 13.8205 10.4416 13.7662 10.4672C13.5115 10.5882 13.2168 10.446 13.1246 10.1794C13.0462 9.95221 13.1643 9.78565 13.3343 9.61534C13.8247 9.1245 14.3152 8.63377 14.8059 8.14315C14.9073 8.04148 14.9745 7.95419 15.0074 7.88127C15.1524 7.55784 14.9946 7.24815 14.7255 7.04409C14.7166 7.03721 14.7081 7.03784 14.7002 7.04596C13.9721 7.77388 13.2445 8.50127 12.5174 9.22815C12.4196 9.32627 12.3327 9.27377 12.2474 9.18846C11.7343 8.67596 11.222 8.16273 10.7105 7.64877C10.6326 7.57044 10.6326 7.49221 10.7105 7.41409C11.7587 6.36304 12.8077 5.31304 13.8577 4.26408C13.9517 4.17013 14.0707 4.09367 14.2149 4.03471C15.0724 3.68471 15.9565 4.28471 15.9999 5.18971Z" fill="#078669"/>
<path d="M9.86411 11.6187C8.86453 12.6187 7.69286 13.3476 6.34911 13.8053C6.16099 13.8694 6.07099 13.7462 6.13099 13.5715C6.58036 12.2586 7.2838 11.1147 8.2413 10.1397C8.54943 9.82613 9.15016 9.2255 10.0435 8.33779C10.0518 8.32946 10.0602 8.32946 10.0685 8.33779L11.5997 9.86904C11.6009 9.87015 11.6017 9.87146 11.6023 9.87291C11.6029 9.87436 11.6033 9.87591 11.6033 9.87748C11.6033 9.87905 11.6029 9.8806 11.6023 9.88205C11.6017 9.8835 11.6009 9.88481 11.5997 9.88592C11.026 10.4675 10.4426 11.0403 9.86411 11.6187Z" fill="#078669"/>
</svg>
