<svg width="20" height="16" viewBox="0 0 20 16" fill="none" xmlns="http://www.w3.org/2000/svg">
<path d="M2.76828 4.51468C2.78088 4.51455 2.79318 4.5108 2.80371 4.50388C2.81424 4.49695 2.82256 4.48713 2.82766 4.47561C3.77268 2.34764 5.66352 0.770115 7.91338 0.216147C11.4552 -0.656217 15.0849 1.18032 16.5569 4.49397C16.5621 4.50595 16.5713 4.51207 16.5843 4.51233C17.9946 4.5553 19.1576 5.51908 19.3486 6.9251C19.4088 7.36929 19.3619 7.99163 19.3658 8.51551C19.3687 8.87259 19.3569 9.13212 19.3303 9.29412C19.0705 10.8712 17.5902 11.8893 16.0182 11.5842C16.0044 11.5816 15.9935 11.586 15.9854 11.5975C14.8683 13.2365 13.3653 14.3018 11.4763 14.7936C11.313 14.8358 11.1083 14.8651 10.927 14.9069C10.9137 14.9097 10.9046 14.9175 10.8997 14.9303C10.2234 16.652 7.72039 16.1773 7.74774 14.349C7.76258 13.3735 8.658 12.623 9.63779 12.7898C10.1816 12.8825 10.5865 13.1914 10.8524 13.7165C10.8584 13.7285 10.868 13.733 10.8813 13.7302C12.7234 13.3358 14.1284 12.3602 15.0962 10.8033C17.0558 7.65018 15.7779 3.4001 12.4338 1.80617C10.9149 1.08226 9.16157 0.965059 7.55983 1.54716C3.95474 2.85668 2.30533 6.99503 4.07428 10.4294C4.15945 10.5948 4.20815 10.7191 4.22039 10.8025C4.28055 11.2158 3.99068 11.4014 3.62736 11.5159C2.03812 12.0167 0.351598 10.9896 0.0546897 9.36209C0.0252593 9.2014 0.0105441 8.94199 0.0105441 8.58388C0.0102837 8.18019 0.00689787 7.7765 0.000386726 7.37281C-0.0250067 5.81443 1.20326 4.53772 2.76828 4.51468Z" fill="#078669"/>
<path d="M8.41529 12.2655C7.77512 12.6322 7.13572 13.0001 6.49711 13.3691C5.98807 13.6629 5.42863 13.2875 5.58685 12.705C5.75302 12.0937 5.91775 11.482 6.08105 10.8696C6.08262 10.8638 6.08272 10.8576 6.08136 10.8518C6.07999 10.8459 6.0772 10.8405 6.07323 10.836C5.20256 9.85859 4.77087 8.72357 4.77817 7.43098C4.79145 4.95922 6.75769 2.83359 9.21695 2.61794C12.4841 2.33119 15.1778 5.22214 14.4961 8.49164C13.9222 11.2431 11.1957 12.966 8.45319 12.2604C8.43991 12.257 8.42727 12.2587 8.41529 12.2655ZM8.31958 7.50677C8.31958 7.35197 8.25809 7.20352 8.14863 7.09406C8.03917 6.9846 7.89072 6.92311 7.73592 6.92311C7.58112 6.92311 7.43267 6.9846 7.32321 7.09406C7.21375 7.20352 7.15226 7.35197 7.15226 7.50677C7.15226 7.66156 7.21375 7.81002 7.32321 7.91948C7.43267 8.02893 7.58112 8.09043 7.73592 8.09043C7.89072 8.09043 8.03917 8.02893 8.14863 7.91948C8.25809 7.81002 8.31958 7.66156 8.31958 7.50677ZM10.2718 7.50638C10.2718 7.35158 10.2103 7.20312 10.1008 7.09367C9.99134 6.98421 9.84289 6.92272 9.68809 6.92272C9.5333 6.92272 9.38484 6.98421 9.27538 7.09367C9.16593 7.20312 9.10443 7.35158 9.10443 7.50638C9.10443 7.66117 9.16593 7.80963 9.27538 7.91909C9.38484 8.02854 9.5333 8.09004 9.68809 8.09004C9.84289 8.09004 9.99134 8.02854 10.1008 7.91909C10.2103 7.80963 10.2718 7.66117 10.2718 7.50638ZM12.2251 7.50638C12.2251 7.35158 12.1636 7.20312 12.0541 7.09367C11.9447 6.98421 11.7962 6.92272 11.6414 6.92272C11.4866 6.92272 11.3382 6.98421 11.2287 7.09367C11.1193 7.20312 11.0578 7.35158 11.0578 7.50638C11.0578 7.66117 11.1193 7.80963 11.2287 7.91909C11.3382 8.02854 11.4866 8.09004 11.6414 8.09004C11.7962 8.09004 11.9447 8.02854 12.0541 7.91909C12.1636 7.80963 12.2251 7.66117 12.2251 7.50638Z" fill="#078669"/>
</svg>
