<svg width="16" height="16" viewBox="0 0 16 16" fill="none" xmlns="http://www.w3.org/2000/svg">
<path d="M7.22804 0H14.5174C14.5699 0.00541667 14.6229 0.00864583 14.6765 0.0096875C15.399 0.024375 15.9527 0.56375 15.9999 1.28344V13.4159C15.9268 14.075 15.5565 14.4434 14.9587 14.6438C13.6782 15.0731 12.397 15.5002 11.1149 15.925C10.9896 15.9666 10.8674 15.9841 10.7399 16H10.6152C10.0234 15.9578 9.52148 15.5744 9.37585 14.995C9.3071 14.72 9.33647 14.3347 9.33554 14.0184C9.33554 14.0068 9.3296 14.0008 9.31773 14.0006C8.66106 13.9992 8.00585 13.9991 7.3521 14.0003C6.4121 14.0019 5.57898 13.3481 5.37991 12.4231C5.35116 12.2892 5.33658 12.0986 5.33616 11.8516C5.33554 11.4909 5.33554 11.1305 5.33616 10.7703C5.33637 10.6155 5.35106 10.4999 5.38023 10.4234C5.59241 9.86969 6.40991 9.86219 6.61866 10.4197C6.64804 10.4986 6.66293 10.6178 6.66335 10.7772C6.66439 11.1141 6.6645 11.4509 6.66366 11.7878C6.66325 11.9899 6.67825 12.1347 6.70866 12.2222C6.82116 12.5466 7.09429 12.665 7.42241 12.6647C8.04387 12.6639 8.67689 12.6639 9.32148 12.6647C9.32521 12.6647 9.32878 12.6632 9.33142 12.6607C9.33406 12.6581 9.33554 12.6546 9.33554 12.6509C9.33637 9.36385 9.33616 6.07563 9.33491 2.78625C9.33491 2.60729 9.34835 2.46458 9.37523 2.35812C9.50481 1.84604 9.84273 1.51021 10.389 1.35063C10.391 1.35006 10.3928 1.34876 10.394 1.34698C10.3952 1.34519 10.3956 1.34304 10.3953 1.34093C10.395 1.33881 10.3939 1.33689 10.3923 1.33551C10.3907 1.33413 10.3886 1.33339 10.3865 1.33344C9.40064 1.33677 8.4121 1.33729 7.42085 1.335C7.06304 1.33406 6.77554 1.48125 6.68835 1.85C6.60898 2.18594 6.73866 2.5925 6.6196 2.90531C6.40866 3.45969 5.5971 3.47594 5.38054 2.91156C5.35179 2.83635 5.3371 2.7201 5.33648 2.56281C5.3346 2.15719 5.30116 1.73375 5.44429 1.34C5.72679 0.562813 6.3971 0.075625 7.22804 0Z" fill="#078669"/>
<path d="M0 6.7172V6.61532C0.071875 6.15595 0.372812 5.99939 0.795625 5.9997C1.63708 6.00012 2.47833 6.00012 3.31938 5.9997C3.32377 5.9997 3.32798 5.99799 3.33109 5.99494C3.33419 5.99189 3.33594 5.98776 3.33594 5.98345C3.33594 5.35991 3.33594 4.73439 3.33594 4.10689C3.33594 3.96314 3.34771 3.85678 3.37125 3.78782C3.5 3.41095 3.92469 3.22845 4.28125 3.40126C4.36229 3.44064 4.46677 3.52439 4.59469 3.65251C5.4051 4.46439 6.21625 5.27543 7.02812 6.08564C7.14583 6.20314 7.22406 6.30168 7.26281 6.38126C7.44531 6.75595 7.26469 7.01345 6.98906 7.28876C6.20094 8.07647 5.41281 8.86439 4.62469 9.65251C4.47323 9.80397 4.35542 9.89928 4.27125 9.93845C3.90625 10.1084 3.48406 9.90376 3.36438 9.52532C3.34583 9.46699 3.33656 9.38532 3.33656 9.28032C3.33573 8.63553 3.33552 7.99116 3.33594 7.3472C3.33598 7.3457 3.33571 7.3442 3.33515 7.3428C3.33459 7.3414 3.33374 7.34012 3.33266 7.33904C3.33159 7.33797 3.3303 7.33711 3.32887 7.33652C3.32745 7.33594 3.32592 7.33564 3.32437 7.33564C2.51354 7.33605 1.71073 7.33616 0.915937 7.33595C0.688021 7.33574 0.528333 7.31949 0.436875 7.2872C0.193542 7.20157 0.0479167 7.01157 0 6.7172Z" fill="#078669"/>
</svg>
