<svg width="15" height="12" viewBox="0 0 15 12" fill="none" xmlns="http://www.w3.org/2000/svg">
<path d="M3.75 11C3.75 11.2761 3.97386 11.5 4.25 11.5C4.52614 11.5 4.75 11.2761 4.75 11L3.75 11ZM4.75 1.4C4.75 1.12386 4.52614 0.899999 4.25 0.899999C3.97386 0.899999 3.75 1.12386 3.75 1.4L4.75 1.4ZM0.894872 3.44803C0.700483 3.64416 0.701896 3.96074 0.898027 4.15513C1.09416 4.34952 1.41074 4.3481 1.60513 4.15197L0.894872 3.44803ZM2.29838 2.74222L2.65351 3.09419L2.29838 2.74222ZM6.20161 2.74222L6.55674 2.39025L6.20161 2.74222ZM6.89487 4.15197C7.08926 4.3481 7.40584 4.34952 7.60197 4.15513C7.7981 3.96074 7.79952 3.64416 7.60513 3.44803L6.89487 4.15197ZM4.062 1.41193L3.99878 0.915946L3.99878 0.915946L4.062 1.41193ZM4.438 1.41193L4.50122 0.915946L4.50122 0.915946L4.438 1.41193ZM4.75 11L4.75 1.4L3.75 1.4L3.75 11L4.75 11ZM1.60513 4.15197L2.65351 3.09419L1.94326 2.39025L0.894872 3.44803L1.60513 4.15197ZM5.84649 3.09419L6.89487 4.15197L7.60513 3.44803L6.55674 2.39025L5.84649 3.09419ZM2.65351 3.09419C3.07982 2.66406 3.37035 2.37201 3.61573 2.17494C3.85323 1.98421 3.99947 1.92395 4.12522 1.90792L3.99878 0.915946C3.61501 0.964862 3.29748 1.14796 2.98957 1.39525C2.68954 1.6362 2.35301 1.97682 1.94326 2.39025L2.65351 3.09419ZM6.55674 2.39025C6.14699 1.97682 5.81046 1.6362 5.51043 1.39525C5.20252 1.14796 4.88499 0.964862 4.50122 0.915946L4.37478 1.90792C4.50053 1.92395 4.64677 1.98421 4.88427 2.17494C5.12965 2.37201 5.42018 2.66406 5.84649 3.09419L6.55674 2.39025ZM4.12522 1.90792C4.20808 1.89736 4.29192 1.89736 4.37478 1.90792L4.50122 0.915946C4.33441 0.894684 4.16559 0.894684 3.99878 0.915946L4.12522 1.90792Z" fill="#078669"/>
<path d="M11.5 1C11.5 0.723857 11.2761 0.5 11 0.5C10.7239 0.5 10.5 0.723858 10.5 1L11.5 1ZM10.5 10.6C10.5 10.8761 10.7239 11.1 11 11.1C11.2761 11.1 11.5 10.8761 11.5 10.6L10.5 10.6ZM14.3551 8.55197C14.5495 8.35584 14.5481 8.03926 14.352 7.84487C14.1558 7.65048 13.8393 7.6519 13.6449 7.84803L14.3551 8.55197ZM12.9516 9.25778L12.5965 8.90581L12.9516 9.25778ZM9.04838 9.25778L8.69326 9.60975L9.04838 9.25778ZM8.35513 7.84803C8.16074 7.6519 7.84416 7.65048 7.64803 7.84487C7.4519 8.03926 7.45048 8.35584 7.64487 8.55197L8.35513 7.84803ZM11.188 10.5881L11.2512 11.0841L11.2512 11.0841L11.188 10.5881ZM10.812 10.5881L10.7488 11.0841L10.7488 11.0841L10.812 10.5881ZM10.5 1L10.5 10.6L11.5 10.6L11.5 1L10.5 1ZM13.6449 7.84803L12.5965 8.90581L13.3067 9.60975L14.3551 8.55197L13.6449 7.84803ZM9.40351 8.90581L8.35513 7.84803L7.64487 8.55197L8.69326 9.60975L9.40351 8.90581ZM12.5965 8.90581C12.1702 9.33594 11.8797 9.62799 11.6343 9.82506C11.3968 10.0158 11.2505 10.0761 11.1248 10.0921L11.2512 11.0841C11.635 11.0351 11.9525 10.852 12.2604 10.6048C12.5605 10.3638 12.897 10.0232 13.3067 9.60975L12.5965 8.90581ZM8.69326 9.60975C9.10301 10.0232 9.43954 10.3638 9.73957 10.6048C10.0475 10.852 10.365 11.0351 10.7488 11.0841L10.8752 10.0921C10.7495 10.0761 10.6032 10.0158 10.3657 9.82506C10.1203 9.62799 9.82982 9.33594 9.40351 8.90581L8.69326 9.60975ZM11.1248 10.0921C11.0419 10.1026 10.9581 10.1026 10.8752 10.0921L10.7488 11.0841C10.9156 11.1053 11.0844 11.1053 11.2512 11.0841L11.1248 10.0921Z" fill="#078669"/>
</svg>
