<svg width="16" height="16" viewBox="0 0 16 16" fill="none" xmlns="http://www.w3.org/2000/svg">
<g clip-path="url(#clip0_143_43656)">
<path d="M7.93961 0H8.03242C8.53711 0.0903125 8.61304 0.78 8.10492 0.91875C7.49148 1.08594 7.25117 0.119062 7.93961 0Z" fill="#078669"/>
<path d="M4.85932 1.71595C5.11682 1.71595 5.32557 1.5072 5.32557 1.2497C5.32557 0.992195 5.11682 0.783447 4.85932 0.783447C4.60181 0.783447 4.39307 0.992195 4.39307 1.2497C4.39307 1.5072 4.60181 1.71595 4.85932 1.71595Z" fill="#078669"/>
<path d="M11.1093 1.71595C11.3668 1.71595 11.5756 1.5072 11.5756 1.2497C11.5756 0.992195 11.3668 0.783447 11.1093 0.783447C10.8518 0.783447 10.6431 0.992195 10.6431 1.2497C10.6431 1.5072 10.8518 1.71595 11.1093 1.71595Z" fill="#078669"/>
<path d="M9.36156 2.62842C9.38052 2.648 9.40156 2.65061 9.42468 2.63623C9.74906 2.43477 10.0804 2.22998 10.4187 2.02186C10.5225 1.95811 10.6216 1.88561 10.7416 1.90592C10.9872 1.94686 11.0219 2.15029 10.9872 2.37311C10.7855 3.66936 10.5828 4.9653 10.3791 6.26092C10.3434 6.48811 10.2384 6.59342 10.0116 6.59342C8.68364 6.59384 7.35583 6.59394 6.02812 6.59373C5.74499 6.59373 5.63124 6.53029 5.58781 6.25248C5.38072 4.93144 5.1726 3.61061 4.96343 2.28998C4.91406 1.97842 5.21124 1.81686 5.47124 1.97436C5.83624 2.19582 6.19635 2.41779 6.55156 2.64029C6.55998 2.64559 6.56996 2.64786 6.57984 2.64672C6.58973 2.64559 6.59893 2.64111 6.60593 2.63404C6.99426 2.24092 7.37729 1.858 7.75499 1.48529C7.89343 1.34904 8.06749 1.34279 8.20781 1.47779C8.58301 1.83946 8.9676 2.223 9.36156 2.62842Z" fill="#078669"/>
<path d="M10.6637 16H5.33647C5.33418 12.2306 5.33449 9.57958 5.33741 8.04688C5.33835 7.68125 5.57179 7.53125 5.90116 7.53125C7.28929 7.53125 8.67762 7.53125 10.0662 7.53125C10.5327 7.53125 10.664 7.73125 10.664 8.17281C10.6642 10.782 10.6641 13.391 10.6637 16ZM8.46772 9.95094C8.46679 9.37531 8.04866 9.40094 7.6196 9.40656C7.49481 9.40802 7.40283 9.42146 7.34366 9.44687C6.87772 9.64687 7.02866 10.2903 7.51429 10.3444C7.52512 10.3456 7.53054 10.3518 7.53054 10.3628C7.53158 10.7901 7.53189 11.2172 7.53147 11.6441C7.53126 11.7743 7.54387 11.8687 7.56929 11.9275C7.73116 12.3041 8.26241 12.3131 8.42397 11.9453C8.45356 11.878 8.46845 11.7613 8.46866 11.595C8.46908 11.0469 8.46877 10.4989 8.46772 9.95094Z" fill="#078669"/>
<path d="M4.39844 16H1.37375C1.05531 15.9385 0.953438 15.7303 0.953438 15.4263C0.953229 13.6371 0.953125 11.8482 0.953125 10.0594C0.953125 9.6391 1.09 9.43816 1.52688 9.43785C2.48021 9.43722 3.42896 9.43722 4.37313 9.43785C4.37984 9.43785 4.38628 9.44055 4.39102 9.44535C4.39577 9.45016 4.39844 9.45667 4.39844 9.46347V16Z" fill="#078669"/>
<path d="M14.6151 16H11.6026L11.6023 10.3922C11.6023 10.3811 11.6079 10.3756 11.6192 10.3756C12.5598 10.3746 13.5003 10.3744 14.4407 10.375C14.8673 10.3756 15.0467 10.5306 15.047 10.9644C15.047 12.4296 15.0471 13.8948 15.0473 15.36C15.0473 15.7031 14.981 15.9372 14.6151 16Z" fill="#078669"/>
</g>
<defs>
<clipPath id="clip0_143_43656">
<rect width="16" height="16" fill="white"/>
</clipPath>
</defs>
</svg>
