<svg width="29" height="29" viewBox="0 0 29 29" fill="none" xmlns="http://www.w3.org/2000/svg">
<path d="M8.38334 24.297C8.36163 24.297 8.33793 24.2931 8.31423 24.2872C5.93602 23.5622 3.36034 20.9629 2.80136 18.7249C2.76973 18.5985 2.84676 18.4721 2.97119 18.4405C3.09761 18.4089 3.22404 18.4859 3.25567 18.6103C3.77119 20.6744 6.24814 23.1652 8.45049 23.8388C8.57497 23.8763 8.64407 24.0067 8.60655 24.1311C8.57691 24.2318 8.48407 24.297 8.38334 24.297Z" fill="#975500"/>
<path d="M9.5171 27.2458C9.49934 27.2458 9.48157 27.2439 9.46377 27.2399C7.49645 26.7816 5.20914 25.3121 3.19045 23.2065C1.30211 21.2392 0.0794509 19.1454 0.000443019 17.743C-0.00745958 17.6146 0.0913001 17.502 0.221666 17.4961C0.350056 17.4882 0.462645 17.5869 0.468572 17.7173C0.539682 18.9933 1.74061 21.0199 3.52821 22.8825C5.48564 24.9249 7.68804 26.3451 9.57043 26.7836C9.69686 26.8133 9.77588 26.9397 9.74625 27.0661C9.72056 27.1727 9.62377 27.2458 9.5171 27.2458Z" fill="#975500"/>
<path d="M19.6007 6.72133C19.496 6.72133 19.4012 6.65222 19.3736 6.5475C19.0437 5.29523 17.5445 3.49776 16.1796 3.14617C16.0552 3.11454 15.9781 2.98617 16.0117 2.85975C16.0453 2.73333 16.1717 2.65829 16.2981 2.69186C17.8349 3.0889 19.4585 5.02657 19.8279 6.42901C19.8614 6.55344 19.7864 6.68181 19.66 6.71539C19.6402 6.71938 19.6205 6.72133 19.6007 6.72133Z" fill="#975500"/>
<path d="M22.5576 7.138C22.4529 7.138 22.3581 7.0669 22.3304 6.96218C21.4514 3.50158 18.1646 0.801446 16.2882 0.465658C16.1598 0.441955 16.0768 0.321468 16.0986 0.193078C16.1222 0.064683 16.2427 -0.0182761 16.3711 0.00345147C18.4155 0.370845 21.8445 3.15394 22.7847 6.84564C22.8163 6.97206 22.7413 7.09848 22.6148 7.13011C22.5951 7.136 22.5773 7.138 22.5576 7.138Z" fill="#975500"/>
<path d="M16.7208 13.2869C17.098 13.7036 17.4378 14.2508 17.2936 14.3949C17.1494 14.5391 16.7069 14.2784 16.3692 13.9386C16.0314 13.6009 15.2235 17.1958 15.1445 17.3775C15.0853 17.5138 14.1451 18.5923 13.6532 19.6175C13.4893 19.9592 13.513 20.9903 13.4517 21.0515C13.2049 21.2984 12.8908 21.2727 12.2133 20.6742C11.5358 20.0757 11.1842 23.641 11.9921 24.204C13.3728 25.1679 16.1341 28.9978 19.7824 28.9978C24.0034 28.9978 27.9124 24.595 27.9124 21.3635C27.9124 18.1321 26.9643 16.9074 27.0275 14.1994C27.0789 11.9062 28.7479 10.8119 28.7479 9.66625C28.7479 8.70231 27.3159 8.46727 26.8458 8.46727C26.0122 8.46727 23.8751 9.53589 23.8751 12.3486C23.8751 13.4429 23.563 14.4325 22.443 14.4325C21.3231 14.4325 20.0727 12.8958 19.3162 11.6968" fill="url(#paint0_linear_30_222)"/>
<path d="M28.7461 9.66661C28.7461 9.1432 28.3214 8.83503 27.8591 8.66121C28.4142 10.5001 25.5995 10.5792 25.5995 16.8446C25.5995 23.11 21.9512 24.9332 20.4402 25.2472C18.9291 25.5594 16.2665 25.6502 14.2399 23.1634C13.6177 22.3989 12.7743 21.5694 11.8361 20.7852C11.4391 21.4469 11.3541 23.7599 11.9921 24.2043C13.3728 25.1683 16.1342 28.9982 19.7825 28.9982C24.0035 28.9982 27.9125 24.5954 27.9125 21.364C27.9125 18.1325 26.9644 16.9078 27.0276 14.1998C27.0789 11.9065 28.7461 10.8123 28.7461 9.66661Z" fill="url(#paint1_linear_30_222)"/>
<path d="M12.2133 20.6748C11.5358 20.0763 9.93384 18.3696 8.89096 17.5341C7.84804 16.7006 6.93743 16.7105 6.31129 17.6309C5.68515 18.5514 7.51027 20.1671 7.92702 20.5839C8.56503 21.2219 11.1842 23.6415 11.9921 24.2065" fill="url(#paint2_linear_30_222)"/>
<path d="M15.1445 17.3776C15.0655 17.5593 14.5341 17.6857 13.4774 16.5361C12.6695 15.6572 10.5067 13.1308 9.23065 11.9852C7.95463 10.8396 6.96309 10.3694 6.12951 10.9699C5.29598 11.5704 5.77004 12.8187 6.70236 13.8617C7.85589 15.1515 9.18325 16.467 10.4533 17.7311C11.4469 18.7187 13.6967 20.8066 13.4497 21.0535" fill="url(#paint3_linear_30_222)"/>
<path d="M10.4553 17.7291C11.3936 18.6615 13.4478 20.5715 13.4695 20.9922C13.7658 20.53 13.2246 19.1553 12.6518 18.6733C9.3413 15.8863 6.14342 11.3926 5.73651 11.5269C5.56269 12.1807 6.00318 13.0775 6.7024 13.8616C7.85594 15.1495 9.18329 16.467 10.4553 17.7291Z" fill="url(#paint4_linear_30_222)"/>
<path d="M19.3142 11.6992C18.5577 10.5002 15.4566 6.6446 14.7021 5.55034C13.9456 4.45603 12.9303 4.45603 12.2271 4.95184C11.5239 5.44761 11.3145 6.43721 12.8987 8.54082C13.8982 9.86818 14.7278 11.0889 16.7228 13.2893L19.0416 13.1273L19.3142 11.6992Z" fill="url(#paint5_linear_30_222)"/>
<path d="M16.3692 13.9389C16.0314 13.6011 13.035 10.0496 12.3575 9.2872C11.0874 7.86106 9.4776 4.80538 7.55769 6.16631C6.54834 6.88135 7.09549 7.91834 7.38187 8.33513C7.66829 8.75192 11.3936 13.052 11.759 13.4154C12.1244 13.7809 15.2236 17.1941 15.1465 17.3758" fill="url(#paint6_linear_30_222)"/>
<path d="M16.7208 13.2869C17.0842 13.6878 17.4101 14.2073 17.3074 14.3752C18.5162 13.4034 15.9603 10.5472 14.5125 8.83271C13.3925 7.50536 13.0863 5.81654 12.2844 4.91187C12.2646 4.92374 12.2469 4.93756 12.2271 4.94938C11.5239 5.4452 11.3145 6.43479 12.8987 8.53841C13.8962 9.86576 14.7278 11.0884 16.7208 13.2869Z" fill="url(#paint7_linear_30_222)"/>
<path d="M11.757 13.4174C12.1224 13.7828 15.2216 17.196 15.1445 17.3777C16.1025 16.0879 12.3891 12.2974 10.5916 10.3814C9.03315 8.72026 8.76648 7.26649 7.24555 6.45071C6.68063 7.13417 7.12901 7.97165 7.37986 8.33705C7.66628 8.75384 11.3936 13.0539 11.757 13.4174Z" fill="url(#paint8_linear_30_222)"/>
<path d="M15.0754 17.4549C14.9667 17.5221 14.7435 17.528 14.3979 17.3285C14.6547 17.5359 14.8917 17.6149 15.0754 17.4549Z" fill="url(#paint9_linear_30_222)"/>
<path d="M27.065 8.85837C27.8611 8.71613 28.0013 8.80703 27.8591 8.66085C27.4719 8.51666 27.0571 8.46727 26.8438 8.46727C26.0102 8.46727 23.8731 9.53589 23.8731 12.3486C23.8731 13.4429 23.561 14.4325 22.439 14.4325C21.9966 14.4325 21.5363 14.1935 21.0919 13.83C23.0593 16.0087 24.6019 13.9564 24.837 12.5501C25.072 11.1437 24.7303 9.2771 27.065 8.85837Z" fill="url(#paint10_radial_30_222)"/>
<path d="M11.9861 5.16264C11.5002 5.71374 11.516 6.70138 12.8967 8.53833C13.8962 9.86568 14.7258 11.0864 16.7208 13.2868C17.098 13.7036 17.4378 14.2507 17.2936 14.3949C17.6274 12.1155 14.3821 9.87357 13.3273 8.15512C12.4918 6.79224 12.3259 5.98829 11.9861 5.16264Z" fill="url(#paint11_linear_30_222)"/>
<path d="M11.757 13.4174C12.1224 13.7828 15.2215 17.196 15.1445 17.3777C15.8279 16.8898 15.3618 16.1294 14.305 15.0726C12.1382 12.9058 9.12203 9.9943 7.90922 7.59638C7.79467 7.36922 7.58134 7.20134 7.33048 7.16971C6.67666 7.08479 7.1626 8.01906 7.38182 8.33706C7.66625 8.75385 11.3935 13.0539 11.757 13.4174Z" fill="url(#paint12_linear_30_222)"/>
<path d="M6.70239 13.8619C7.85592 15.1517 9.18328 16.4672 10.4534 17.7314C11.4469 18.719 13.6967 20.8068 13.4498 21.0537C14.8443 19.8804 8.36751 15.6396 5.73455 11.5291C5.56268 12.179 6.00316 13.0778 6.70239 13.8619Z" fill="url(#paint13_linear_30_222)"/>
<path d="M13.1654 21.2866C13.2977 21.2352 13.3668 21.174 13.3885 21.1069C13.1495 21.2906 12.8355 21.2254 12.2133 20.6743C11.5358 20.0758 9.93386 18.3692 8.89094 17.5337C8.43268 17.1683 8.00013 16.9648 7.60504 16.9292C8.16996 17.2828 7.90728 17.4092 9.16354 18.3731C9.83907 18.8907 12.3041 21.6243 13.1654 21.2866Z" fill="url(#paint14_linear_30_222)"/>
<path d="M11.524 15.0332C12.4385 16.1472 14.2241 17.9862 15.026 17.4785C14.8048 17.5536 14.3011 17.4311 13.4794 16.5364C12.6716 15.6574 10.5087 13.131 9.23268 11.9854C8.19963 11.0571 7.35228 10.5731 6.62537 10.741C8.74085 11.4363 10.6568 13.9804 11.524 15.0332Z" fill="url(#paint15_linear_30_222)"/>
<path d="M12.5135 10.2393C13.9732 11.8274 16.1401 14.9779 17.2383 14.4268C17.0585 14.4821 16.6714 14.2431 16.3692 13.9389C16.0314 13.6011 13.035 10.0497 12.3575 9.28726C11.4766 8.29961 10.4356 6.52982 9.23859 5.9886C10.4455 6.94067 11.3304 8.95343 12.5135 10.2393Z" fill="url(#paint16_linear_30_222)"/>
<path d="M21.0919 13.832C21.0939 13.832 21.0939 13.832 21.0919 13.832C20.4105 13.2749 19.7705 12.4236 19.3123 11.6987C18.5577 10.4997 15.4566 6.64409 14.7021 5.54983C14.471 5.21601 14.2181 4.98491 13.9554 4.83873C14.307 5.34438 14.5065 6.06535 15.3025 6.95816C16.5785 8.39019 18.2476 10.9699 18.8204 11.8567C19.3912 12.7397 20.3157 14.6082 21.0919 13.832Z" fill="url(#paint17_linear_30_222)"/>
<path d="M25.2716 26.5487C24.7975 25.3952 24.1042 24.692 23.1028 25.3517C20.371 27.1512 17.2285 26.5428 13.2879 23.3587C9.77393 20.5163 7.95669 18.4858 6.24617 17.751C5.83531 18.6853 7.52613 20.1845 7.92511 20.5835C8.56312 21.2215 11.1823 23.6412 11.9901 24.2061C13.3708 25.17 16.1322 28.9999 19.7805 28.9999C21.8209 28.998 23.7842 27.9728 25.2716 26.5487Z" fill="url(#paint18_linear_30_222)"/>
<path d="M27.0256 14.1997C27.0769 11.9064 28.746 10.8122 28.746 9.66652C28.746 9.32875 28.5702 9.08189 28.3213 8.90213C28.6255 9.79493 27.9006 10.587 26.8182 11.9341C25.6449 13.3938 25.3862 15.6594 26.1921 17.9269C26.9999 20.1945 25.9827 23.3213 24.3412 24.3109C22.6998 25.3005 20.5192 29.6519 14.2755 24.7356C14.2735 24.7336 14.2735 24.7336 14.2715 24.7316C13.8903 24.3781 13.513 24.064 13.1318 23.827C10.4949 22.1934 8.99173 20.7239 7.85595 19.4894C7.63279 19.2464 7.0323 18.3161 6.31726 18.6222C6.67478 19.4321 7.63673 20.2953 7.9251 20.5837C8.56311 21.2217 11.1822 23.6413 11.9901 24.2062C12.0948 24.2793 12.2094 24.3701 12.3298 24.4749C12.3615 24.5025 12.3931 24.5301 12.4247 24.5578C12.4326 24.5657 12.4424 24.5736 12.4503 24.5795C12.4701 24.5973 12.4918 24.6171 12.5116 24.6349C12.5155 24.6388 12.5215 24.6428 12.5254 24.6487C13.3451 25.3933 14.473 26.6259 15.8557 27.5878C15.8557 27.5878 15.8576 27.5878 15.8576 27.5898C15.9781 27.6747 16.1026 27.7577 16.227 27.8367C16.229 27.8387 16.2309 27.8387 16.2329 27.8406C16.3574 27.9197 16.4838 27.9967 16.6102 28.0698C16.6122 28.0698 16.6122 28.0717 16.6141 28.0717C17.5702 28.6209 18.6308 29.0001 19.7765 29.0001C23.9975 29.0001 27.9065 24.5973 27.9065 21.3658C27.9065 18.1343 26.9644 16.9097 27.0256 14.1997Z" fill="url(#paint19_radial_30_222)"/>
<defs>
<linearGradient id="paint0_linear_30_222" x1="25.8604" y1="29.8337" x2="22.3821" y2="21.6846" gradientUnits="userSpaceOnUse">
<stop offset="0.00132565" stop-color="#FFCB4B"/>
<stop offset="1" stop-color="#FFD748"/>
</linearGradient>
<linearGradient id="paint1_linear_30_222" x1="26.5527" y1="24.1664" x2="19.2573" y2="15.464" gradientUnits="userSpaceOnUse">
<stop offset="0.00132565" stop-color="#FFCB4B"/>
<stop offset="1" stop-color="#FFD748"/>
</linearGradient>
<linearGradient id="paint2_linear_30_222" x1="7.05266" y1="18.3728" x2="11.3517" y2="21.5385" gradientUnits="userSpaceOnUse">
<stop offset="0.00132565" stop-color="#FFCB4B"/>
<stop offset="1" stop-color="#FFD748"/>
</linearGradient>
<linearGradient id="paint3_linear_30_222" x1="5.48724" y1="9.99334" x2="13.0302" y2="17.888" gradientUnits="userSpaceOnUse">
<stop offset="0.00132565" stop-color="#FFCB4B"/>
<stop offset="1" stop-color="#FFD748"/>
</linearGradient>
<linearGradient id="paint4_linear_30_222" x1="11.2778" y1="14.6814" x2="8.78436" y2="17.0303" gradientUnits="userSpaceOnUse">
<stop stop-color="#FFBC47" stop-opacity="0"/>
<stop offset="1" stop-color="#FFA754"/>
</linearGradient>
<linearGradient id="paint5_linear_30_222" x1="13.6345" y1="6.26909" x2="18.0117" y2="13.1476" gradientUnits="userSpaceOnUse">
<stop offset="0.00132565" stop-color="#FFCB4B"/>
<stop offset="1" stop-color="#FFD748"/>
</linearGradient>
<linearGradient id="paint6_linear_30_222" x1="9.11605" y1="7.41151" x2="15.0566" y2="15.4365" gradientUnits="userSpaceOnUse">
<stop offset="0.00132565" stop-color="#FFCB4B"/>
<stop offset="1" stop-color="#FFD748"/>
</linearGradient>
<linearGradient id="paint7_linear_30_222" x1="16.1811" y1="8.37967" x2="12.4292" y2="11.7668" gradientUnits="userSpaceOnUse">
<stop stop-color="#FFBC47" stop-opacity="0"/>
<stop offset="1" stop-color="#FFA754"/>
</linearGradient>
<linearGradient id="paint8_linear_30_222" x1="12.7299" y1="10.793" x2="7.57104" y2="14.5644" gradientUnits="userSpaceOnUse">
<stop stop-color="#FFBC47" stop-opacity="0"/>
<stop offset="1" stop-color="#FFA754"/>
</linearGradient>
<linearGradient id="paint9_linear_30_222" x1="16.573" y1="16.0499" x2="11.4141" y2="19.8214" gradientUnits="userSpaceOnUse">
<stop stop-color="#FFBC47" stop-opacity="0"/>
<stop offset="1" stop-color="#FFA754"/>
</linearGradient>
<radialGradient id="paint10_radial_30_222" cx="0" cy="0" r="1" gradientUnits="userSpaceOnUse" gradientTransform="translate(23.3423 9.92671) scale(6.19344 6.19343)">
<stop stop-color="#FFBC47" stop-opacity="0"/>
<stop offset="1" stop-color="#FFA754"/>
</radialGradient>
<linearGradient id="paint11_linear_30_222" x1="16.8677" y1="7.7144" x2="13.663" y2="10.6847" gradientUnits="userSpaceOnUse">
<stop offset="0.3118" stop-color="#FFBC47" stop-opacity="0"/>
<stop offset="1" stop-color="#FF8900"/>
</linearGradient>
<linearGradient id="paint12_linear_30_222" x1="14.4136" y1="9.32452" x2="10.1927" y2="13.1286" gradientUnits="userSpaceOnUse">
<stop offset="0.3118" stop-color="#FFBC47" stop-opacity="0"/>
<stop offset="1" stop-color="#FF8900"/>
</linearGradient>
<linearGradient id="paint13_linear_30_222" x1="12.9872" y1="13.4391" x2="7.77617" y2="17.8164" gradientUnits="userSpaceOnUse">
<stop offset="0.3118" stop-color="#FFBC47" stop-opacity="0"/>
<stop offset="1" stop-color="#FF8900"/>
</linearGradient>
<linearGradient id="paint14_linear_30_222" x1="7.30117" y1="16.6187" x2="13.359" y2="21.5431" gradientUnits="userSpaceOnUse">
<stop stop-color="#FFBC47" stop-opacity="0"/>
<stop offset="1" stop-color="#FFBC47"/>
</linearGradient>
<linearGradient id="paint15_linear_30_222" x1="8.46068" y1="10.515" x2="13.1897" y2="17.7062" gradientUnits="userSpaceOnUse">
<stop stop-color="#FFBC47" stop-opacity="0"/>
<stop offset="1" stop-color="#FFBC47"/>
</linearGradient>
<linearGradient id="paint16_linear_30_222" x1="12.1649" y1="11.0287" x2="13.4937" y2="10.0126" gradientUnits="userSpaceOnUse">
<stop stop-color="#FFBC47" stop-opacity="0"/>
<stop offset="1" stop-color="#FFA754"/>
</linearGradient>
<linearGradient id="paint17_linear_30_222" x1="18.7222" y1="15.0431" x2="16.9504" y2="6.60118" gradientUnits="userSpaceOnUse">
<stop stop-color="#FFBC47" stop-opacity="0"/>
<stop offset="1" stop-color="#FFBC47"/>
</linearGradient>
<linearGradient id="paint18_linear_30_222" x1="14.6777" y1="23.1452" x2="12.02" y2="25.5879" gradientUnits="userSpaceOnUse">
<stop offset="0.3118" stop-color="#FFBC47" stop-opacity="0"/>
<stop offset="1" stop-color="#FF8900"/>
</linearGradient>
<radialGradient id="paint19_radial_30_222" cx="0" cy="0" r="1" gradientUnits="userSpaceOnUse" gradientTransform="translate(16.4379 15.0726) rotate(48.1401) scale(17.952 16.2948)">
<stop offset="0.6134" stop-color="#FFBC47" stop-opacity="0"/>
<stop offset="1" stop-color="#FF8900"/>
</radialGradient>
</defs>
</svg>
