<svg width="30" height="30" viewBox="0 0 30 30" fill="none" xmlns="http://www.w3.org/2000/svg">
<path d="M2.89722 3.01546C4.50808 1.4046 6.34587 0.630639 7.002 1.28677L11.4387 5.72349L5.60524 11.557L1.16852 7.12025C0.512392 6.46412 1.28636 4.62638 2.89722 3.01546Z" fill="#FF6E83"/>
<path d="M5.70957 5.82785C7.54748 3.98994 9.6442 3.10693 10.3928 3.85552L14.9362 8.39888L8.28061 15.0545L3.73725 10.5111C2.98866 9.76253 3.87166 7.66576 5.70957 5.82785Z" fill="#BFBCAF"/>
<path d="M23.2298 26.366L27.2314 28.1064C27.5227 28.2331 27.8614 28.0997 27.9881 27.8085C28.054 27.6569 28.0486 27.4905 27.9881 27.3498L26.2475 23.3481C25.7423 22.1866 24.3912 21.6546 23.2297 22.1598C22.0682 22.665 21.5362 24.0161 22.0414 25.1776C22.2817 25.7301 22.7181 26.1422 23.2298 26.366Z" fill="#1D2746"/>
<path d="M6.36232 13.1224C6.35804 13.1163 6.3537 13.1102 6.34966 13.1039C5.77246 12.2767 6.6557 10.2856 8.41146 8.52985C10.1673 6.77402 12.1585 5.89084 12.9856 6.46811C12.9917 6.47209 12.9978 6.47637 13.0038 6.48059C13.0112 6.48609 13.019 6.49131 13.0262 6.49705C13.0466 6.51276 13.0666 6.52934 13.0852 6.54803L13.0947 6.55746C13.0947 6.55746 13.0947 6.55746 13.0947 6.55746C13.0948 6.55746 13.0947 6.5574 13.0947 6.55746L23.6439 17.1067C23.6439 17.1067 26.6309 24.4984 25.5054 25.6238C24.38 26.7492 16.9883 23.7623 16.9883 23.7623L6.4297 13.2037C6.41101 13.185 6.39437 13.1651 6.37867 13.1446C6.37298 13.1374 6.36783 13.1297 6.36232 13.1224Z" fill="#FFD469"/>
<path d="M23.6439 17.1067L23.8784 18.568C23.9129 18.7829 23.7268 18.9685 23.512 18.9335L22.4647 18.7624C22.2579 18.7287 22.0753 18.9001 22.0958 19.1086L22.2124 20.2907C22.2329 20.4982 22.0521 20.6692 21.8461 20.6372L20.7877 20.4731C20.5713 20.4395 20.3861 20.6289 20.4247 20.8445L20.6057 21.8571C20.643 22.0656 20.4704 22.252 20.2597 22.2307L19.0685 22.1106C18.8675 22.0903 18.6985 22.2595 18.7191 22.4604L18.8419 23.6622C18.863 23.869 18.6839 24.0404 18.4783 24.0103L16.9624 23.7882L25.5054 27.363C24.8238 26.6815 26.5885 24.9168 27.27 25.5983L23.6439 17.1067Z" fill="#E5AA6E"/>
<path d="M21.4517 17.4928C21.5535 17.4928 21.6554 17.4539 21.733 17.3762C21.8883 17.2209 21.8883 16.969 21.733 16.8136L12.9231 8.00368C12.7678 7.84834 12.5158 7.84834 12.3604 8.00368C12.2051 8.15907 12.2051 8.41096 12.3604 8.56635L21.1704 17.3762C21.248 17.4539 21.3498 17.4928 21.4517 17.4928ZM18.9198 19.6268L10.1099 10.8169C9.95453 10.6615 9.95453 10.4096 10.1099 10.2542C10.2652 10.0989 10.5172 10.0989 10.6725 10.2542L19.4825 19.0642C19.6378 19.2195 19.6378 19.4714 19.4825 19.6268C19.4048 19.7045 19.303 19.7433 19.2012 19.7433C19.0993 19.7433 18.9975 19.7045 18.9198 19.6268ZM16.6692 21.8773L7.85933 13.0675C7.70395 12.9121 7.70395 12.6602 7.85933 12.5048C8.01461 12.3495 8.26662 12.3495 8.42195 12.5048L17.2319 21.3147C17.3872 21.47 17.3872 21.7219 17.2319 21.8773C17.1542 21.955 17.0524 21.9939 16.9506 21.9939C16.8487 21.9939 16.7469 21.955 16.6692 21.8773Z" fill="#FFB636"/>
</svg>
