<svg width="20" height="20" viewBox="0 0 20 20" fill="none" xmlns="http://www.w3.org/2000/svg">
<path d="M0.362318 7.12236C0.358042 7.11627 0.353704 7.11018 0.349663 7.10391C-0.227545 6.27674 0.655697 4.28561 2.41146 2.52985C4.16728 0.774025 6.15847 -0.109159 6.98558 0.468107C6.99173 0.472091 6.99777 0.476368 7.0038 0.480587C7.01124 0.486095 7.01898 0.49131 7.02624 0.497052C7.04663 0.512755 7.06656 0.529337 7.08525 0.548029L7.09468 0.557462C7.09468 0.557462 7.09468 0.557462 7.09474 0.557462C7.0948 0.557462 7.09474 0.557404 7.09474 0.557462L17.6439 11.1067C17.6439 11.1067 20.6309 18.4984 19.5054 19.6238C18.38 20.7492 10.9883 17.7623 10.9883 17.7623L0.429701 7.20369C0.411009 7.185 0.394369 7.16508 0.378666 7.14463C0.372982 7.13742 0.367826 7.12975 0.362318 7.12236Z" fill="#FFD469"/>
</svg>
