<svg width="4" height="7" viewBox="0 0 4 7" fill="none" xmlns="http://www.w3.org/2000/svg">
<path d="M0.777888 0.132275C0.598812 -0.0452105 0.309761 -0.0439209 0.132275 0.135156C-0.0452105 0.314232 -0.0439209 0.603283 0.135156 0.780768L1.20827 1.84435C1.64378 2.276 1.94253 2.57306 2.14468 2.82478C2.34105 3.06929 2.40841 3.22634 2.42634 3.367C2.4376 3.45532 2.4376 3.54468 2.42634 3.633C2.40841 3.77366 2.34105 3.93071 2.14468 4.17522C1.94253 4.42694 1.64379 4.724 1.20827 5.15565L0.135156 6.21923C-0.0439209 6.39672 -0.0452105 6.68577 0.132275 6.86484C0.309761 7.04392 0.598812 7.04521 0.777888 6.86772L1.87033 5.78498C2.28179 5.37719 2.61808 5.0439 2.85657 4.74694C3.10457 4.43813 3.2841 4.12469 3.33206 3.74845C3.35308 3.58347 3.35308 3.41653 3.33206 3.25155C3.2841 2.87531 3.10457 2.56187 2.85657 2.25306C2.61808 1.9561 2.2818 1.62281 1.87033 1.21501L0.777888 0.132275Z" fill="#2D264B"/>
</svg>
